<svg xmlns:xlink="http://www.w3.org/1999/xlink" version="1.1" xmlns="http://www.w3.org/2000/svg" width="244" height="244" viewBox="0 0 244 244" preserveAspectRatio="xMinYMin meet"><rect width="100%" height="100%" fill="#000000" cx="0" cy="0" fill-opacity="0"></rect><path d="M0,0l4,0 0,4 -4,0 0,-4z M4,0l4,0 0,4 -4,0 0,-4z M8,0l4,0 0,4 -4,0 0,-4z M12,0l4,0 0,4 -4,0 0,-4z M16,0l4,0 0,4 -4,0 0,-4z M20,0l4,0 0,4 -4,0 0,-4z M24,0l4,0 0,4 -4,0 0,-4z M36,0l4,0 0,4 -4,0 0,-4z M40,0l4,0 0,4 -4,0 0,-4z M44,0l4,0 0,4 -4,0 0,-4z M48,0l4,0 0,4 -4,0 0,-4z M52,0l4,0 0,4 -4,0 0,-4z M56,0l4,0 0,4 -4,0 0,-4z M64,0l4,0 0,4 -4,0 0,-4z M68,0l4,0 0,4 -4,0 0,-4z M76,0l4,0 0,4 -4,0 0,-4z M80,0l4,0 0,4 -4,0 0,-4z M88,0l4,0 0,4 -4,0 0,-4z M92,0l4,0 0,4 -4,0 0,-4z M112,0l4,0 0,4 -4,0 0,-4z M116,0l4,0 0,4 -4,0 0,-4z M124,0l4,0 0,4 -4,0 0,-4z M136,0l4,0 0,4 -4,0 0,-4z M140,0l4,0 0,4 -4,0 0,-4z M144,0l4,0 0,4 -4,0 0,-4z M152,0l4,0 0,4 -4,0 0,-4z M156,0l4,0 0,4 -4,0 0,-4z M164,0l4,0 0,4 -4,0 0,-4z M168,0l4,0 0,4 -4,0 0,-4z M176,0l4,0 0,4 -4,0 0,-4z M184,0l4,0 0,4 -4,0 0,-4z M204,0l4,0 0,4 -4,0 0,-4z M208,0l4,0 0,4 -4,0 0,-4z M216,0l4,0 0,4 -4,0 0,-4z M220,0l4,0 0,4 -4,0 0,-4z M224,0l4,0 0,4 -4,0 0,-4z M228,0l4,0 0,4 -4,0 0,-4z M232,0l4,0 0,4 -4,0 0,-4z M236,0l4,0 0,4 -4,0 0,-4z M240,0l4,0 0,4 -4,0 0,-4z M0,4l4,0 0,4 -4,0 0,-4z M24,4l4,0 0,4 -4,0 0,-4z M32,4l4,0 0,4 -4,0 0,-4z M40,4l4,0 0,4 -4,0 0,-4z M44,4l4,0 0,4 -4,0 0,-4z M48,4l4,0 0,4 -4,0 0,-4z M52,4l4,0 0,4 -4,0 0,-4z M64,4l4,0 0,4 -4,0 0,-4z M76,4l4,0 0,4 -4,0 0,-4z M84,4l4,0 0,4 -4,0 0,-4z M88,4l4,0 0,4 -4,0 0,-4z M92,4l4,0 0,4 -4,0 0,-4z M96,4l4,0 0,4 -4,0 0,-4z M100,4l4,0 0,4 -4,0 0,-4z M112,4l4,0 0,4 -4,0 0,-4z M120,4l4,0 0,4 -4,0 0,-4z M148,4l4,0 0,4 -4,0 0,-4z M152,4l4,0 0,4 -4,0 0,-4z M160,4l4,0 0,4 -4,0 0,-4z M164,4l4,0 0,4 -4,0 0,-4z M168,4l4,0 0,4 -4,0 0,-4z M172,4l4,0 0,4 -4,0 0,-4z M196,4l4,0 0,4 -4,0 0,-4z M204,4l4,0 0,4 -4,0 0,-4z M208,4l4,0 0,4 -4,0 0,-4z M216,4l4,0 0,4 -4,0 0,-4z M240,4l4,0 0,4 -4,0 0,-4z M0,8l4,0 0,4 -4,0 0,-4z M8,8l4,0 0,4 -4,0 0,-4z M12,8l4,0 0,4 -4,0 0,-4z M16,8l4,0 0,4 -4,0 0,-4z M24,8l4,0 0,4 -4,0 0,-4z M32,8l4,0 0,4 -4,0 0,-4z M36,8l4,0 0,4 -4,0 0,-4z M44,8l4,0 0,4 -4,0 0,-4z M48,8l4,0 0,4 -4,0 0,-4z M56,8l4,0 0,4 -4,0 0,-4z M64,8l4,0 0,4 -4,0 0,-4z M72,8l4,0 0,4 -4,0 0,-4z M80,8l4,0 0,4 -4,0 0,-4z M88,8l4,0 0,4 -4,0 0,-4z M100,8l4,0 0,4 -4,0 0,-4z M108,8l4,0 0,4 -4,0 0,-4z M116,8l4,0 0,4 -4,0 0,-4z M120,8l4,0 0,4 -4,0 0,-4z M132,8l4,0 0,4 -4,0 0,-4z M140,8l4,0 0,4 -4,0 0,-4z M168,8l4,0 0,4 -4,0 0,-4z M172,8l4,0 0,4 -4,0 0,-4z M176,8l4,0 0,4 -4,0 0,-4z M180,8l4,0 0,4 -4,0 0,-4z M184,8l4,0 0,4 -4,0 0,-4z M188,8l4,0 0,4 -4,0 0,-4z M192,8l4,0 0,4 -4,0 0,-4z M200,8l4,0 0,4 -4,0 0,-4z M204,8l4,0 0,4 -4,0 0,-4z M208,8l4,0 0,4 -4,0 0,-4z M216,8l4,0 0,4 -4,0 0,-4z M224,8l4,0 0,4 -4,0 0,-4z M228,8l4,0 0,4 -4,0 0,-4z M232,8l4,0 0,4 -4,0 0,-4z M240,8l4,0 0,4 -4,0 0,-4z M0,12l4,0 0,4 -4,0 0,-4z M8,12l4,0 0,4 -4,0 0,-4z M12,12l4,0 0,4 -4,0 0,-4z M16,12l4,0 0,4 -4,0 0,-4z M24,12l4,0 0,4 -4,0 0,-4z M40,12l4,0 0,4 -4,0 0,-4z M44,12l4,0 0,4 -4,0 0,-4z M48,12l4,0 0,4 -4,0 0,-4z M64,12l4,0 0,4 -4,0 0,-4z M68,12l4,0 0,4 -4,0 0,-4z M80,12l4,0 0,4 -4,0 0,-4z M84,12l4,0 0,4 -4,0 0,-4z M96,12l4,0 0,4 -4,0 0,-4z M100,12l4,0 0,4 -4,0 0,-4z M112,12l4,0 0,4 -4,0 0,-4z M116,12l4,0 0,4 -4,0 0,-4z M120,12l4,0 0,4 -4,0 0,-4z M124,12l4,0 0,4 -4,0 0,-4z M132,12l4,0 0,4 -4,0 0,-4z M136,12l4,0 0,4 -4,0 0,-4z M148,12l4,0 0,4 -4,0 0,-4z M152,12l4,0 0,4 -4,0 0,-4z M164,12l4,0 0,4 -4,0 0,-4z M168,12l4,0 0,4 -4,0 0,-4z M200,12l4,0 0,4 -4,0 0,-4z M208,12l4,0 0,4 -4,0 0,-4z M216,12l4,0 0,4 -4,0 0,-4z M224,12l4,0 0,4 -4,0 0,-4z M228,12l4,0 0,4 -4,0 0,-4z M232,12l4,0 0,4 -4,0 0,-4z M240,12l4,0 0,4 -4,0 0,-4z M0,16l4,0 0,4 -4,0 0,-4z M8,16l4,0 0,4 -4,0 0,-4z M12,16l4,0 0,4 -4,0 0,-4z M16,16l4,0 0,4 -4,0 0,-4z M24,16l4,0 0,4 -4,0 0,-4z M32,16l4,0 0,4 -4,0 0,-4z M36,16l4,0 0,4 -4,0 0,-4z M40,16l4,0 0,4 -4,0 0,-4z M48,16l4,0 0,4 -4,0 0,-4z M60,16l4,0 0,4 -4,0 0,-4z M68,16l4,0 0,4 -4,0 0,-4z M76,16l4,0 0,4 -4,0 0,-4z M80,16l4,0 0,4 -4,0 0,-4z M84,16l4,0 0,4 -4,0 0,-4z M88,16l4,0 0,4 -4,0 0,-4z M92,16l4,0 0,4 -4,0 0,-4z M96,16l4,0 0,4 -4,0 0,-4z M112,16l4,0 0,4 -4,0 0,-4z M116,16l4,0 0,4 -4,0 0,-4z M120,16l4,0 0,4 -4,0 0,-4z M124,16l4,0 0,4 -4,0 0,-4z M128,16l4,0 0,4 -4,0 0,-4z M132,16l4,0 0,4 -4,0 0,-4z M136,16l4,0 0,4 -4,0 0,-4z M144,16l4,0 0,4 -4,0 0,-4z M152,16l4,0 0,4 -4,0 0,-4z M160,16l4,0 0,4 -4,0 0,-4z M164,16l4,0 0,4 -4,0 0,-4z M168,16l4,0 0,4 -4,0 0,-4z M172,16l4,0 0,4 -4,0 0,-4z M176,16l4,0 0,4 -4,0 0,-4z M188,16l4,0 0,4 -4,0 0,-4z M200,16l4,0 0,4 -4,0 0,-4z M204,16l4,0 0,4 -4,0 0,-4z M216,16l4,0 0,4 -4,0 0,-4z M224,16l4,0 0,4 -4,0 0,-4z M228,16l4,0 0,4 -4,0 0,-4z M232,16l4,0 0,4 -4,0 0,-4z M240,16l4,0 0,4 -4,0 0,-4z M0,20l4,0 0,4 -4,0 0,-4z M24,20l4,0 0,4 -4,0 0,-4z M32,20l4,0 0,4 -4,0 0,-4z M36,20l4,0 0,4 -4,0 0,-4z M40,20l4,0 0,4 -4,0 0,-4z M48,20l4,0 0,4 -4,0 0,-4z M56,20l4,0 0,4 -4,0 0,-4z M68,20l4,0 0,4 -4,0 0,-4z M72,20l4,0 0,4 -4,0 0,-4z M80,20l4,0 0,4 -4,0 0,-4z M84,20l4,0 0,4 -4,0 0,-4z M100,20l4,0 0,4 -4,0 0,-4z M104,20l4,0 0,4 -4,0 0,-4z M108,20l4,0 0,4 -4,0 0,-4z M112,20l4,0 0,4 -4,0 0,-4z M128,20l4,0 0,4 -4,0 0,-4z M132,20l4,0 0,4 -4,0 0,-4z M140,20l4,0 0,4 -4,0 0,-4z M148,20l4,0 0,4 -4,0 0,-4z M152,20l4,0 0,4 -4,0 0,-4z M160,20l4,0 0,4 -4,0 0,-4z M164,20l4,0 0,4 -4,0 0,-4z M168,20l4,0 0,4 -4,0 0,-4z M176,20l4,0 0,4 -4,0 0,-4z M184,20l4,0 0,4 -4,0 0,-4z M188,20l4,0 0,4 -4,0 0,-4z M196,20l4,0 0,4 -4,0 0,-4z M200,20l4,0 0,4 -4,0 0,-4z M216,20l4,0 0,4 -4,0 0,-4z M240,20l4,0 0,4 -4,0 0,-4z M0,24l4,0 0,4 -4,0 0,-4z M4,24l4,0 0,4 -4,0 0,-4z M8,24l4,0 0,4 -4,0 0,-4z M12,24l4,0 0,4 -4,0 0,-4z M16,24l4,0 0,4 -4,0 0,-4z M20,24l4,0 0,4 -4,0 0,-4z M24,24l4,0 0,4 -4,0 0,-4z M32,24l4,0 0,4 -4,0 0,-4z M40,24l4,0 0,4 -4,0 0,-4z M48,24l4,0 0,4 -4,0 0,-4z M56,24l4,0 0,4 -4,0 0,-4z M64,24l4,0 0,4 -4,0 0,-4z M72,24l4,0 0,4 -4,0 0,-4z M80,24l4,0 0,4 -4,0 0,-4z M88,24l4,0 0,4 -4,0 0,-4z M96,24l4,0 0,4 -4,0 0,-4z M104,24l4,0 0,4 -4,0 0,-4z M112,24l4,0 0,4 -4,0 0,-4z M120,24l4,0 0,4 -4,0 0,-4z M128,24l4,0 0,4 -4,0 0,-4z M136,24l4,0 0,4 -4,0 0,-4z M144,24l4,0 0,4 -4,0 0,-4z M152,24l4,0 0,4 -4,0 0,-4z M160,24l4,0 0,4 -4,0 0,-4z M168,24l4,0 0,4 -4,0 0,-4z M176,24l4,0 0,4 -4,0 0,-4z M184,24l4,0 0,4 -4,0 0,-4z M192,24l4,0 0,4 -4,0 0,-4z M200,24l4,0 0,4 -4,0 0,-4z M208,24l4,0 0,4 -4,0 0,-4z M216,24l4,0 0,4 -4,0 0,-4z M220,24l4,0 0,4 -4,0 0,-4z M224,24l4,0 0,4 -4,0 0,-4z M228,24l4,0 0,4 -4,0 0,-4z M232,24l4,0 0,4 -4,0 0,-4z M236,24l4,0 0,4 -4,0 0,-4z M240,24l4,0 0,4 -4,0 0,-4z M32,28l4,0 0,4 -4,0 0,-4z M36,28l4,0 0,4 -4,0 0,-4z M40,28l4,0 0,4 -4,0 0,-4z M52,28l4,0 0,4 -4,0 0,-4z M60,28l4,0 0,4 -4,0 0,-4z M64,28l4,0 0,4 -4,0 0,-4z M68,28l4,0 0,4 -4,0 0,-4z M72,28l4,0 0,4 -4,0 0,-4z M76,28l4,0 0,4 -4,0 0,-4z M84,28l4,0 0,4 -4,0 0,-4z M92,28l4,0 0,4 -4,0 0,-4z M100,28l4,0 0,4 -4,0 0,-4z M112,28l4,0 0,4 -4,0 0,-4z M128,28l4,0 0,4 -4,0 0,-4z M136,28l4,0 0,4 -4,0 0,-4z M140,28l4,0 0,4 -4,0 0,-4z M144,28l4,0 0,4 -4,0 0,-4z M148,28l4,0 0,4 -4,0 0,-4z M156,28l4,0 0,4 -4,0 0,-4z M160,28l4,0 0,4 -4,0 0,-4z M176,28l4,0 0,4 -4,0 0,-4z M180,28l4,0 0,4 -4,0 0,-4z M184,28l4,0 0,4 -4,0 0,-4z M192,28l4,0 0,4 -4,0 0,-4z M196,28l4,0 0,4 -4,0 0,-4z M200,28l4,0 0,4 -4,0 0,-4z M208,28l4,0 0,4 -4,0 0,-4z M0,32l4,0 0,4 -4,0 0,-4z M4,32l4,0 0,4 -4,0 0,-4z M12,32l4,0 0,4 -4,0 0,-4z M24,32l4,0 0,4 -4,0 0,-4z M28,32l4,0 0,4 -4,0 0,-4z M36,32l4,0 0,4 -4,0 0,-4z M44,32l4,0 0,4 -4,0 0,-4z M48,32l4,0 0,4 -4,0 0,-4z M76,32l4,0 0,4 -4,0 0,-4z M88,32l4,0 0,4 -4,0 0,-4z M108,32l4,0 0,4 -4,0 0,-4z M112,32l4,0 0,4 -4,0 0,-4z M116,32l4,0 0,4 -4,0 0,-4z M120,32l4,0 0,4 -4,0 0,-4z M124,32l4,0 0,4 -4,0 0,-4z M128,32l4,0 0,4 -4,0 0,-4z M144,32l4,0 0,4 -4,0 0,-4z M156,32l4,0 0,4 -4,0 0,-4z M160,32l4,0 0,4 -4,0 0,-4z M164,32l4,0 0,4 -4,0 0,-4z M168,32l4,0 0,4 -4,0 0,-4z M172,32l4,0 0,4 -4,0 0,-4z M188,32l4,0 0,4 -4,0 0,-4z M192,32l4,0 0,4 -4,0 0,-4z M196,32l4,0 0,4 -4,0 0,-4z M216,32l4,0 0,4 -4,0 0,-4z M220,32l4,0 0,4 -4,0 0,-4z M224,32l4,0 0,4 -4,0 0,-4z M232,32l4,0 0,4 -4,0 0,-4z M236,32l4,0 0,4 -4,0 0,-4z M0,36l4,0 0,4 -4,0 0,-4z M4,36l4,0 0,4 -4,0 0,-4z M20,36l4,0 0,4 -4,0 0,-4z M28,36l4,0 0,4 -4,0 0,-4z M32,36l4,0 0,4 -4,0 0,-4z M36,36l4,0 0,4 -4,0 0,-4z M40,36l4,0 0,4 -4,0 0,-4z M48,36l4,0 0,4 -4,0 0,-4z M56,36l4,0 0,4 -4,0 0,-4z M60,36l4,0 0,4 -4,0 0,-4z M68,36l4,0 0,4 -4,0 0,-4z M76,36l4,0 0,4 -4,0 0,-4z M84,36l4,0 0,4 -4,0 0,-4z M88,36l4,0 0,4 -4,0 0,-4z M92,36l4,0 0,4 -4,0 0,-4z M108,36l4,0 0,4 -4,0 0,-4z M124,36l4,0 0,4 -4,0 0,-4z M144,36l4,0 0,4 -4,0 0,-4z M148,36l4,0 0,4 -4,0 0,-4z M160,36l4,0 0,4 -4,0 0,-4z M172,36l4,0 0,4 -4,0 0,-4z M176,36l4,0 0,4 -4,0 0,-4z M180,36l4,0 0,4 -4,0 0,-4z M196,36l4,0 0,4 -4,0 0,-4z M204,36l4,0 0,4 -4,0 0,-4z M212,36l4,0 0,4 -4,0 0,-4z M220,36l4,0 0,4 -4,0 0,-4z M224,36l4,0 0,4 -4,0 0,-4z M236,36l4,0 0,4 -4,0 0,-4z M240,36l4,0 0,4 -4,0 0,-4z M4,40l4,0 0,4 -4,0 0,-4z M12,40l4,0 0,4 -4,0 0,-4z M24,40l4,0 0,4 -4,0 0,-4z M28,40l4,0 0,4 -4,0 0,-4z M32,40l4,0 0,4 -4,0 0,-4z M44,40l4,0 0,4 -4,0 0,-4z M52,40l4,0 0,4 -4,0 0,-4z M64,40l4,0 0,4 -4,0 0,-4z M68,40l4,0 0,4 -4,0 0,-4z M72,40l4,0 0,4 -4,0 0,-4z M80,40l4,0 0,4 -4,0 0,-4z M100,40l4,0 0,4 -4,0 0,-4z M104,40l4,0 0,4 -4,0 0,-4z M116,40l4,0 0,4 -4,0 0,-4z M120,40l4,0 0,4 -4,0 0,-4z M136,40l4,0 0,4 -4,0 0,-4z M144,40l4,0 0,4 -4,0 0,-4z M148,40l4,0 0,4 -4,0 0,-4z M156,40l4,0 0,4 -4,0 0,-4z M172,40l4,0 0,4 -4,0 0,-4z M176,40l4,0 0,4 -4,0 0,-4z M180,40l4,0 0,4 -4,0 0,-4z M184,40l4,0 0,4 -4,0 0,-4z M188,40l4,0 0,4 -4,0 0,-4z M192,40l4,0 0,4 -4,0 0,-4z M204,40l4,0 0,4 -4,0 0,-4z M212,40l4,0 0,4 -4,0 0,-4z M224,40l4,0 0,4 -4,0 0,-4z M228,40l4,0 0,4 -4,0 0,-4z M232,40l4,0 0,4 -4,0 0,-4z M236,40l4,0 0,4 -4,0 0,-4z M240,40l4,0 0,4 -4,0 0,-4z M0,44l4,0 0,4 -4,0 0,-4z M12,44l4,0 0,4 -4,0 0,-4z M20,44l4,0 0,4 -4,0 0,-4z M28,44l4,0 0,4 -4,0 0,-4z M32,44l4,0 0,4 -4,0 0,-4z M36,44l4,0 0,4 -4,0 0,-4z M40,44l4,0 0,4 -4,0 0,-4z M44,44l4,0 0,4 -4,0 0,-4z M56,44l4,0 0,4 -4,0 0,-4z M60,44l4,0 0,4 -4,0 0,-4z M72,44l4,0 0,4 -4,0 0,-4z M76,44l4,0 0,4 -4,0 0,-4z M80,44l4,0 0,4 -4,0 0,-4z M84,44l4,0 0,4 -4,0 0,-4z M88,44l4,0 0,4 -4,0 0,-4z M100,44l4,0 0,4 -4,0 0,-4z M104,44l4,0 0,4 -4,0 0,-4z M112,44l4,0 0,4 -4,0 0,-4z M124,44l4,0 0,4 -4,0 0,-4z M140,44l4,0 0,4 -4,0 0,-4z M152,44l4,0 0,4 -4,0 0,-4z M160,44l4,0 0,4 -4,0 0,-4z M164,44l4,0 0,4 -4,0 0,-4z M172,44l4,0 0,4 -4,0 0,-4z M192,44l4,0 0,4 -4,0 0,-4z M200,44l4,0 0,4 -4,0 0,-4z M220,44l4,0 0,4 -4,0 0,-4z M224,44l4,0 0,4 -4,0 0,-4z M0,48l4,0 0,4 -4,0 0,-4z M24,48l4,0 0,4 -4,0 0,-4z M32,48l4,0 0,4 -4,0 0,-4z M48,48l4,0 0,4 -4,0 0,-4z M52,48l4,0 0,4 -4,0 0,-4z M56,48l4,0 0,4 -4,0 0,-4z M72,48l4,0 0,4 -4,0 0,-4z M84,48l4,0 0,4 -4,0 0,-4z M88,48l4,0 0,4 -4,0 0,-4z M92,48l4,0 0,4 -4,0 0,-4z M104,48l4,0 0,4 -4,0 0,-4z M116,48l4,0 0,4 -4,0 0,-4z M124,48l4,0 0,4 -4,0 0,-4z M132,48l4,0 0,4 -4,0 0,-4z M144,48l4,0 0,4 -4,0 0,-4z M148,48l4,0 0,4 -4,0 0,-4z M152,48l4,0 0,4 -4,0 0,-4z M160,48l4,0 0,4 -4,0 0,-4z M168,48l4,0 0,4 -4,0 0,-4z M176,48l4,0 0,4 -4,0 0,-4z M184,48l4,0 0,4 -4,0 0,-4z M192,48l4,0 0,4 -4,0 0,-4z M200,48l4,0 0,4 -4,0 0,-4z M204,48l4,0 0,4 -4,0 0,-4z M212,48l4,0 0,4 -4,0 0,-4z M216,48l4,0 0,4 -4,0 0,-4z M220,48l4,0 0,4 -4,0 0,-4z M224,48l4,0 0,4 -4,0 0,-4z M232,48l4,0 0,4 -4,0 0,-4z M236,48l4,0 0,4 -4,0 0,-4z M240,48l4,0 0,4 -4,0 0,-4z M8,52l4,0 0,4 -4,0 0,-4z M20,52l4,0 0,4 -4,0 0,-4z M28,52l4,0 0,4 -4,0 0,-4z M32,52l4,0 0,4 -4,0 0,-4z M40,52l4,0 0,4 -4,0 0,-4z M56,52l4,0 0,4 -4,0 0,-4z M60,52l4,0 0,4 -4,0 0,-4z M64,52l4,0 0,4 -4,0 0,-4z M72,52l4,0 0,4 -4,0 0,-4z M84,52l4,0 0,4 -4,0 0,-4z M92,52l4,0 0,4 -4,0 0,-4z M100,52l4,0 0,4 -4,0 0,-4z M104,52l4,0 0,4 -4,0 0,-4z M116,52l4,0 0,4 -4,0 0,-4z M128,52l4,0 0,4 -4,0 0,-4z M136,52l4,0 0,4 -4,0 0,-4z M160,52l4,0 0,4 -4,0 0,-4z M180,52l4,0 0,4 -4,0 0,-4z M184,52l4,0 0,4 -4,0 0,-4z M188,52l4,0 0,4 -4,0 0,-4z M192,52l4,0 0,4 -4,0 0,-4z M196,52l4,0 0,4 -4,0 0,-4z M208,52l4,0 0,4 -4,0 0,-4z M220,52l4,0 0,4 -4,0 0,-4z M224,52l4,0 0,4 -4,0 0,-4z M232,52l4,0 0,4 -4,0 0,-4z M236,52l4,0 0,4 -4,0 0,-4z M240,52l4,0 0,4 -4,0 0,-4z M0,56l4,0 0,4 -4,0 0,-4z M12,56l4,0 0,4 -4,0 0,-4z M20,56l4,0 0,4 -4,0 0,-4z M24,56l4,0 0,4 -4,0 0,-4z M40,56l4,0 0,4 -4,0 0,-4z M44,56l4,0 0,4 -4,0 0,-4z M48,56l4,0 0,4 -4,0 0,-4z M52,56l4,0 0,4 -4,0 0,-4z M56,56l4,0 0,4 -4,0 0,-4z M64,56l4,0 0,4 -4,0 0,-4z M72,56l4,0 0,4 -4,0 0,-4z M80,56l4,0 0,4 -4,0 0,-4z M88,56l4,0 0,4 -4,0 0,-4z M92,56l4,0 0,4 -4,0 0,-4z M96,56l4,0 0,4 -4,0 0,-4z M100,56l4,0 0,4 -4,0 0,-4z M104,56l4,0 0,4 -4,0 0,-4z M120,56l4,0 0,4 -4,0 0,-4z M140,56l4,0 0,4 -4,0 0,-4z M144,56l4,0 0,4 -4,0 0,-4z M156,56l4,0 0,4 -4,0 0,-4z M160,56l4,0 0,4 -4,0 0,-4z M172,56l4,0 0,4 -4,0 0,-4z M188,56l4,0 0,4 -4,0 0,-4z M192,56l4,0 0,4 -4,0 0,-4z M196,56l4,0 0,4 -4,0 0,-4z M204,56l4,0 0,4 -4,0 0,-4z M212,56l4,0 0,4 -4,0 0,-4z M228,56l4,0 0,4 -4,0 0,-4z M232,56l4,0 0,4 -4,0 0,-4z M240,56l4,0 0,4 -4,0 0,-4z M12,60l4,0 0,4 -4,0 0,-4z M20,60l4,0 0,4 -4,0 0,-4z M28,60l4,0 0,4 -4,0 0,-4z M32,60l4,0 0,4 -4,0 0,-4z M40,60l4,0 0,4 -4,0 0,-4z M44,60l4,0 0,4 -4,0 0,-4z M52,60l4,0 0,4 -4,0 0,-4z M56,60l4,0 0,4 -4,0 0,-4z M60,60l4,0 0,4 -4,0 0,-4z M64,60l4,0 0,4 -4,0 0,-4z M68,60l4,0 0,4 -4,0 0,-4z M76,60l4,0 0,4 -4,0 0,-4z M100,60l4,0 0,4 -4,0 0,-4z M104,60l4,0 0,4 -4,0 0,-4z M108,60l4,0 0,4 -4,0 0,-4z M116,60l4,0 0,4 -4,0 0,-4z M132,60l4,0 0,4 -4,0 0,-4z M140,60l4,0 0,4 -4,0 0,-4z M144,60l4,0 0,4 -4,0 0,-4z M160,60l4,0 0,4 -4,0 0,-4z M172,60l4,0 0,4 -4,0 0,-4z M176,60l4,0 0,4 -4,0 0,-4z M188,60l4,0 0,4 -4,0 0,-4z M192,60l4,0 0,4 -4,0 0,-4z M204,60l4,0 0,4 -4,0 0,-4z M212,60l4,0 0,4 -4,0 0,-4z M224,60l4,0 0,4 -4,0 0,-4z M0,64l4,0 0,4 -4,0 0,-4z M24,64l4,0 0,4 -4,0 0,-4z M40,64l4,0 0,4 -4,0 0,-4z M44,64l4,0 0,4 -4,0 0,-4z M68,64l4,0 0,4 -4,0 0,-4z M72,64l4,0 0,4 -4,0 0,-4z M76,64l4,0 0,4 -4,0 0,-4z M92,64l4,0 0,4 -4,0 0,-4z M96,64l4,0 0,4 -4,0 0,-4z M104,64l4,0 0,4 -4,0 0,-4z M108,64l4,0 0,4 -4,0 0,-4z M116,64l4,0 0,4 -4,0 0,-4z M120,64l4,0 0,4 -4,0 0,-4z M128,64l4,0 0,4 -4,0 0,-4z M136,64l4,0 0,4 -4,0 0,-4z M144,64l4,0 0,4 -4,0 0,-4z M152,64l4,0 0,4 -4,0 0,-4z M168,64l4,0 0,4 -4,0 0,-4z M176,64l4,0 0,4 -4,0 0,-4z M188,64l4,0 0,4 -4,0 0,-4z M192,64l4,0 0,4 -4,0 0,-4z M200,64l4,0 0,4 -4,0 0,-4z M204,64l4,0 0,4 -4,0 0,-4z M208,64l4,0 0,4 -4,0 0,-4z M220,64l4,0 0,4 -4,0 0,-4z M224,64l4,0 0,4 -4,0 0,-4z M240,64l4,0 0,4 -4,0 0,-4z M0,68l4,0 0,4 -4,0 0,-4z M16,68l4,0 0,4 -4,0 0,-4z M20,68l4,0 0,4 -4,0 0,-4z M28,68l4,0 0,4 -4,0 0,-4z M48,68l4,0 0,4 -4,0 0,-4z M52,68l4,0 0,4 -4,0 0,-4z M56,68l4,0 0,4 -4,0 0,-4z M64,68l4,0 0,4 -4,0 0,-4z M72,68l4,0 0,4 -4,0 0,-4z M80,68l4,0 0,4 -4,0 0,-4z M100,68l4,0 0,4 -4,0 0,-4z M108,68l4,0 0,4 -4,0 0,-4z M124,68l4,0 0,4 -4,0 0,-4z M132,68l4,0 0,4 -4,0 0,-4z M144,68l4,0 0,4 -4,0 0,-4z M148,68l4,0 0,4 -4,0 0,-4z M152,68l4,0 0,4 -4,0 0,-4z M164,68l4,0 0,4 -4,0 0,-4z M176,68l4,0 0,4 -4,0 0,-4z M180,68l4,0 0,4 -4,0 0,-4z M188,68l4,0 0,4 -4,0 0,-4z M192,68l4,0 0,4 -4,0 0,-4z M196,68l4,0 0,4 -4,0 0,-4z M200,68l4,0 0,4 -4,0 0,-4z M204,68l4,0 0,4 -4,0 0,-4z M224,68l4,0 0,4 -4,0 0,-4z M236,68l4,0 0,4 -4,0 0,-4z M240,68l4,0 0,4 -4,0 0,-4z M8,72l4,0 0,4 -4,0 0,-4z M20,72l4,0 0,4 -4,0 0,-4z M24,72l4,0 0,4 -4,0 0,-4z M28,72l4,0 0,4 -4,0 0,-4z M32,72l4,0 0,4 -4,0 0,-4z M40,72l4,0 0,4 -4,0 0,-4z M48,72l4,0 0,4 -4,0 0,-4z M72,72l4,0 0,4 -4,0 0,-4z M84,72l4,0 0,4 -4,0 0,-4z M88,72l4,0 0,4 -4,0 0,-4z M92,72l4,0 0,4 -4,0 0,-4z M96,72l4,0 0,4 -4,0 0,-4z M104,72l4,0 0,4 -4,0 0,-4z M116,72l4,0 0,4 -4,0 0,-4z M124,72l4,0 0,4 -4,0 0,-4z M128,72l4,0 0,4 -4,0 0,-4z M132,72l4,0 0,4 -4,0 0,-4z M144,72l4,0 0,4 -4,0 0,-4z M148,72l4,0 0,4 -4,0 0,-4z M164,72l4,0 0,4 -4,0 0,-4z M176,72l4,0 0,4 -4,0 0,-4z M180,72l4,0 0,4 -4,0 0,-4z M192,72l4,0 0,4 -4,0 0,-4z M196,72l4,0 0,4 -4,0 0,-4z M208,72l4,0 0,4 -4,0 0,-4z M212,72l4,0 0,4 -4,0 0,-4z M220,72l4,0 0,4 -4,0 0,-4z M224,72l4,0 0,4 -4,0 0,-4z M232,72l4,0 0,4 -4,0 0,-4z M240,72l4,0 0,4 -4,0 0,-4z M0,76l4,0 0,4 -4,0 0,-4z M4,76l4,0 0,4 -4,0 0,-4z M8,76l4,0 0,4 -4,0 0,-4z M16,76l4,0 0,4 -4,0 0,-4z M32,76l4,0 0,4 -4,0 0,-4z M36,76l4,0 0,4 -4,0 0,-4z M40,76l4,0 0,4 -4,0 0,-4z M44,76l4,0 0,4 -4,0 0,-4z M56,76l4,0 0,4 -4,0 0,-4z M68,76l4,0 0,4 -4,0 0,-4z M72,76l4,0 0,4 -4,0 0,-4z M84,76l4,0 0,4 -4,0 0,-4z M92,76l4,0 0,4 -4,0 0,-4z M104,76l4,0 0,4 -4,0 0,-4z M112,76l4,0 0,4 -4,0 0,-4z M124,76l4,0 0,4 -4,0 0,-4z M132,76l4,0 0,4 -4,0 0,-4z M136,76l4,0 0,4 -4,0 0,-4z M144,76l4,0 0,4 -4,0 0,-4z M148,76l4,0 0,4 -4,0 0,-4z M156,76l4,0 0,4 -4,0 0,-4z M164,76l4,0 0,4 -4,0 0,-4z M172,76l4,0 0,4 -4,0 0,-4z M176,76l4,0 0,4 -4,0 0,-4z M180,76l4,0 0,4 -4,0 0,-4z M184,76l4,0 0,4 -4,0 0,-4z M192,76l4,0 0,4 -4,0 0,-4z M196,76l4,0 0,4 -4,0 0,-4z M200,76l4,0 0,4 -4,0 0,-4z M208,76l4,0 0,4 -4,0 0,-4z M212,76l4,0 0,4 -4,0 0,-4z M224,76l4,0 0,4 -4,0 0,-4z M228,76l4,0 0,4 -4,0 0,-4z M232,76l4,0 0,4 -4,0 0,-4z M0,80l4,0 0,4 -4,0 0,-4z M8,80l4,0 0,4 -4,0 0,-4z M16,80l4,0 0,4 -4,0 0,-4z M20,80l4,0 0,4 -4,0 0,-4z M24,80l4,0 0,4 -4,0 0,-4z M32,80l4,0 0,4 -4,0 0,-4z M36,80l4,0 0,4 -4,0 0,-4z M40,80l4,0 0,4 -4,0 0,-4z M44,80l4,0 0,4 -4,0 0,-4z M56,80l4,0 0,4 -4,0 0,-4z M72,80l4,0 0,4 -4,0 0,-4z M76,80l4,0 0,4 -4,0 0,-4z M80,80l4,0 0,4 -4,0 0,-4z M84,80l4,0 0,4 -4,0 0,-4z M88,80l4,0 0,4 -4,0 0,-4z M108,80l4,0 0,4 -4,0 0,-4z M116,80l4,0 0,4 -4,0 0,-4z M128,80l4,0 0,4 -4,0 0,-4z M132,80l4,0 0,4 -4,0 0,-4z M136,80l4,0 0,4 -4,0 0,-4z M144,80l4,0 0,4 -4,0 0,-4z M152,80l4,0 0,4 -4,0 0,-4z M156,80l4,0 0,4 -4,0 0,-4z M160,80l4,0 0,4 -4,0 0,-4z M164,80l4,0 0,4 -4,0 0,-4z M172,80l4,0 0,4 -4,0 0,-4z M180,80l4,0 0,4 -4,0 0,-4z M188,80l4,0 0,4 -4,0 0,-4z M192,80l4,0 0,4 -4,0 0,-4z M196,80l4,0 0,4 -4,0 0,-4z M216,80l4,0 0,4 -4,0 0,-4z M220,80l4,0 0,4 -4,0 0,-4z M240,80l4,0 0,4 -4,0 0,-4z M0,84l4,0 0,4 -4,0 0,-4z M4,84l4,0 0,4 -4,0 0,-4z M12,84l4,0 0,4 -4,0 0,-4z M20,84l4,0 0,4 -4,0 0,-4z M32,84l4,0 0,4 -4,0 0,-4z M36,84l4,0 0,4 -4,0 0,-4z M40,84l4,0 0,4 -4,0 0,-4z M44,84l4,0 0,4 -4,0 0,-4z M48,84l4,0 0,4 -4,0 0,-4z M52,84l4,0 0,4 -4,0 0,-4z M56,84l4,0 0,4 -4,0 0,-4z M68,84l4,0 0,4 -4,0 0,-4z M76,84l4,0 0,4 -4,0 0,-4z M84,84l4,0 0,4 -4,0 0,-4z M88,84l4,0 0,4 -4,0 0,-4z M104,84l4,0 0,4 -4,0 0,-4z M108,84l4,0 0,4 -4,0 0,-4z M128,84l4,0 0,4 -4,0 0,-4z M132,84l4,0 0,4 -4,0 0,-4z M148,84l4,0 0,4 -4,0 0,-4z M160,84l4,0 0,4 -4,0 0,-4z M172,84l4,0 0,4 -4,0 0,-4z M212,84l4,0 0,4 -4,0 0,-4z M228,84l4,0 0,4 -4,0 0,-4z M240,84l4,0 0,4 -4,0 0,-4z M0,88l4,0 0,4 -4,0 0,-4z M4,88l4,0 0,4 -4,0 0,-4z M12,88l4,0 0,4 -4,0 0,-4z M16,88l4,0 0,4 -4,0 0,-4z M20,88l4,0 0,4 -4,0 0,-4z M24,88l4,0 0,4 -4,0 0,-4z M36,88l4,0 0,4 -4,0 0,-4z M40,88l4,0 0,4 -4,0 0,-4z M44,88l4,0 0,4 -4,0 0,-4z M48,88l4,0 0,4 -4,0 0,-4z M72,88l4,0 0,4 -4,0 0,-4z M76,88l4,0 0,4 -4,0 0,-4z M80,88l4,0 0,4 -4,0 0,-4z M84,88l4,0 0,4 -4,0 0,-4z M92,88l4,0 0,4 -4,0 0,-4z M112,88l4,0 0,4 -4,0 0,-4z M116,88l4,0 0,4 -4,0 0,-4z M120,88l4,0 0,4 -4,0 0,-4z M124,88l4,0 0,4 -4,0 0,-4z M128,88l4,0 0,4 -4,0 0,-4z M132,88l4,0 0,4 -4,0 0,-4z M140,88l4,0 0,4 -4,0 0,-4z M144,88l4,0 0,4 -4,0 0,-4z M148,88l4,0 0,4 -4,0 0,-4z M156,88l4,0 0,4 -4,0 0,-4z M160,88l4,0 0,4 -4,0 0,-4z M172,88l4,0 0,4 -4,0 0,-4z M188,88l4,0 0,4 -4,0 0,-4z M192,88l4,0 0,4 -4,0 0,-4z M204,88l4,0 0,4 -4,0 0,-4z M208,88l4,0 0,4 -4,0 0,-4z M228,88l4,0 0,4 -4,0 0,-4z M232,88l4,0 0,4 -4,0 0,-4z M240,88l4,0 0,4 -4,0 0,-4z M0,92l4,0 0,4 -4,0 0,-4z M12,92l4,0 0,4 -4,0 0,-4z M16,92l4,0 0,4 -4,0 0,-4z M20,92l4,0 0,4 -4,0 0,-4z M28,92l4,0 0,4 -4,0 0,-4z M32,92l4,0 0,4 -4,0 0,-4z M36,92l4,0 0,4 -4,0 0,-4z M40,92l4,0 0,4 -4,0 0,-4z M48,92l4,0 0,4 -4,0 0,-4z M56,92l4,0 0,4 -4,0 0,-4z M60,92l4,0 0,4 -4,0 0,-4z M68,92l4,0 0,4 -4,0 0,-4z M76,92l4,0 0,4 -4,0 0,-4z M92,92l4,0 0,4 -4,0 0,-4z M96,92l4,0 0,4 -4,0 0,-4z M100,92l4,0 0,4 -4,0 0,-4z M124,92l4,0 0,4 -4,0 0,-4z M128,92l4,0 0,4 -4,0 0,-4z M140,92l4,0 0,4 -4,0 0,-4z M144,92l4,0 0,4 -4,0 0,-4z M152,92l4,0 0,4 -4,0 0,-4z M160,92l4,0 0,4 -4,0 0,-4z M172,92l4,0 0,4 -4,0 0,-4z M180,92l4,0 0,4 -4,0 0,-4z M192,92l4,0 0,4 -4,0 0,-4z M200,92l4,0 0,4 -4,0 0,-4z M212,92l4,0 0,4 -4,0 0,-4z M216,92l4,0 0,4 -4,0 0,-4z M228,92l4,0 0,4 -4,0 0,-4z M236,92l4,0 0,4 -4,0 0,-4z M0,96l4,0 0,4 -4,0 0,-4z M8,96l4,0 0,4 -4,0 0,-4z M16,96l4,0 0,4 -4,0 0,-4z M24,96l4,0 0,4 -4,0 0,-4z M28,96l4,0 0,4 -4,0 0,-4z M36,96l4,0 0,4 -4,0 0,-4z M40,96l4,0 0,4 -4,0 0,-4z M44,96l4,0 0,4 -4,0 0,-4z M48,96l4,0 0,4 -4,0 0,-4z M56,96l4,0 0,4 -4,0 0,-4z M60,96l4,0 0,4 -4,0 0,-4z M72,96l4,0 0,4 -4,0 0,-4z M80,96l4,0 0,4 -4,0 0,-4z M88,96l4,0 0,4 -4,0 0,-4z M92,96l4,0 0,4 -4,0 0,-4z M100,96l4,0 0,4 -4,0 0,-4z M112,96l4,0 0,4 -4,0 0,-4z M116,96l4,0 0,4 -4,0 0,-4z M144,96l4,0 0,4 -4,0 0,-4z M148,96l4,0 0,4 -4,0 0,-4z M152,96l4,0 0,4 -4,0 0,-4z M160,96l4,0 0,4 -4,0 0,-4z M172,96l4,0 0,4 -4,0 0,-4z M176,96l4,0 0,4 -4,0 0,-4z M192,96l4,0 0,4 -4,0 0,-4z M200,96l4,0 0,4 -4,0 0,-4z M212,96l4,0 0,4 -4,0 0,-4z M216,96l4,0 0,4 -4,0 0,-4z M220,96l4,0 0,4 -4,0 0,-4z M224,96l4,0 0,4 -4,0 0,-4z M228,96l4,0 0,4 -4,0 0,-4z M236,96l4,0 0,4 -4,0 0,-4z M240,96l4,0 0,4 -4,0 0,-4z M4,100l4,0 0,4 -4,0 0,-4z M8,100l4,0 0,4 -4,0 0,-4z M12,100l4,0 0,4 -4,0 0,-4z M16,100l4,0 0,4 -4,0 0,-4z M32,100l4,0 0,4 -4,0 0,-4z M48,100l4,0 0,4 -4,0 0,-4z M56,100l4,0 0,4 -4,0 0,-4z M60,100l4,0 0,4 -4,0 0,-4z M64,100l4,0 0,4 -4,0 0,-4z M76,100l4,0 0,4 -4,0 0,-4z M80,100l4,0 0,4 -4,0 0,-4z M92,100l4,0 0,4 -4,0 0,-4z M112,100l4,0 0,4 -4,0 0,-4z M116,100l4,0 0,4 -4,0 0,-4z M124,100l4,0 0,4 -4,0 0,-4z M132,100l4,0 0,4 -4,0 0,-4z M136,100l4,0 0,4 -4,0 0,-4z M140,100l4,0 0,4 -4,0 0,-4z M144,100l4,0 0,4 -4,0 0,-4z M160,100l4,0 0,4 -4,0 0,-4z M176,100l4,0 0,4 -4,0 0,-4z M184,100l4,0 0,4 -4,0 0,-4z M208,100l4,0 0,4 -4,0 0,-4z M212,100l4,0 0,4 -4,0 0,-4z M220,100l4,0 0,4 -4,0 0,-4z M224,100l4,0 0,4 -4,0 0,-4z M228,100l4,0 0,4 -4,0 0,-4z M232,100l4,0 0,4 -4,0 0,-4z M240,100l4,0 0,4 -4,0 0,-4z M0,104l4,0 0,4 -4,0 0,-4z M12,104l4,0 0,4 -4,0 0,-4z M24,104l4,0 0,4 -4,0 0,-4z M28,104l4,0 0,4 -4,0 0,-4z M36,104l4,0 0,4 -4,0 0,-4z M40,104l4,0 0,4 -4,0 0,-4z M48,104l4,0 0,4 -4,0 0,-4z M52,104l4,0 0,4 -4,0 0,-4z M68,104l4,0 0,4 -4,0 0,-4z M80,104l4,0 0,4 -4,0 0,-4z M84,104l4,0 0,4 -4,0 0,-4z M96,104l4,0 0,4 -4,0 0,-4z M100,104l4,0 0,4 -4,0 0,-4z M108,104l4,0 0,4 -4,0 0,-4z M112,104l4,0 0,4 -4,0 0,-4z M116,104l4,0 0,4 -4,0 0,-4z M132,104l4,0 0,4 -4,0 0,-4z M140,104l4,0 0,4 -4,0 0,-4z M144,104l4,0 0,4 -4,0 0,-4z M148,104l4,0 0,4 -4,0 0,-4z M152,104l4,0 0,4 -4,0 0,-4z M156,104l4,0 0,4 -4,0 0,-4z M160,104l4,0 0,4 -4,0 0,-4z M164,104l4,0 0,4 -4,0 0,-4z M180,104l4,0 0,4 -4,0 0,-4z M188,104l4,0 0,4 -4,0 0,-4z M192,104l4,0 0,4 -4,0 0,-4z M196,104l4,0 0,4 -4,0 0,-4z M200,104l4,0 0,4 -4,0 0,-4z M204,104l4,0 0,4 -4,0 0,-4z M208,104l4,0 0,4 -4,0 0,-4z M220,104l4,0 0,4 -4,0 0,-4z M224,104l4,0 0,4 -4,0 0,-4z M240,104l4,0 0,4 -4,0 0,-4z M4,108l4,0 0,4 -4,0 0,-4z M8,108l4,0 0,4 -4,0 0,-4z M16,108l4,0 0,4 -4,0 0,-4z M28,108l4,0 0,4 -4,0 0,-4z M36,108l4,0 0,4 -4,0 0,-4z M40,108l4,0 0,4 -4,0 0,-4z M48,108l4,0 0,4 -4,0 0,-4z M60,108l4,0 0,4 -4,0 0,-4z M68,108l4,0 0,4 -4,0 0,-4z M80,108l4,0 0,4 -4,0 0,-4z M88,108l4,0 0,4 -4,0 0,-4z M104,108l4,0 0,4 -4,0 0,-4z M108,108l4,0 0,4 -4,0 0,-4z M116,108l4,0 0,4 -4,0 0,-4z M140,108l4,0 0,4 -4,0 0,-4z M152,108l4,0 0,4 -4,0 0,-4z M156,108l4,0 0,4 -4,0 0,-4z M160,108l4,0 0,4 -4,0 0,-4z M164,108l4,0 0,4 -4,0 0,-4z M172,108l4,0 0,4 -4,0 0,-4z M192,108l4,0 0,4 -4,0 0,-4z M208,108l4,0 0,4 -4,0 0,-4z M216,108l4,0 0,4 -4,0 0,-4z M224,108l4,0 0,4 -4,0 0,-4z M228,108l4,0 0,4 -4,0 0,-4z M236,108l4,0 0,4 -4,0 0,-4z M240,108l4,0 0,4 -4,0 0,-4z M16,112l4,0 0,4 -4,0 0,-4z M20,112l4,0 0,4 -4,0 0,-4z M24,112l4,0 0,4 -4,0 0,-4z M28,112l4,0 0,4 -4,0 0,-4z M32,112l4,0 0,4 -4,0 0,-4z M36,112l4,0 0,4 -4,0 0,-4z M40,112l4,0 0,4 -4,0 0,-4z M52,112l4,0 0,4 -4,0 0,-4z M60,112l4,0 0,4 -4,0 0,-4z M64,112l4,0 0,4 -4,0 0,-4z M72,112l4,0 0,4 -4,0 0,-4z M84,112l4,0 0,4 -4,0 0,-4z M92,112l4,0 0,4 -4,0 0,-4z M104,112l4,0 0,4 -4,0 0,-4z M108,112l4,0 0,4 -4,0 0,-4z M112,112l4,0 0,4 -4,0 0,-4z M116,112l4,0 0,4 -4,0 0,-4z M120,112l4,0 0,4 -4,0 0,-4z M124,112l4,0 0,4 -4,0 0,-4z M128,112l4,0 0,4 -4,0 0,-4z M132,112l4,0 0,4 -4,0 0,-4z M140,112l4,0 0,4 -4,0 0,-4z M148,112l4,0 0,4 -4,0 0,-4z M168,112l4,0 0,4 -4,0 0,-4z M176,112l4,0 0,4 -4,0 0,-4z M180,112l4,0 0,4 -4,0 0,-4z M192,112l4,0 0,4 -4,0 0,-4z M200,112l4,0 0,4 -4,0 0,-4z M204,112l4,0 0,4 -4,0 0,-4z M208,112l4,0 0,4 -4,0 0,-4z M212,112l4,0 0,4 -4,0 0,-4z M216,112l4,0 0,4 -4,0 0,-4z M220,112l4,0 0,4 -4,0 0,-4z M224,112l4,0 0,4 -4,0 0,-4z M232,112l4,0 0,4 -4,0 0,-4z M236,112l4,0 0,4 -4,0 0,-4z M240,112l4,0 0,4 -4,0 0,-4z M8,116l4,0 0,4 -4,0 0,-4z M12,116l4,0 0,4 -4,0 0,-4z M16,116l4,0 0,4 -4,0 0,-4z M32,116l4,0 0,4 -4,0 0,-4z M36,116l4,0 0,4 -4,0 0,-4z M52,116l4,0 0,4 -4,0 0,-4z M56,116l4,0 0,4 -4,0 0,-4z M60,116l4,0 0,4 -4,0 0,-4z M68,116l4,0 0,4 -4,0 0,-4z M72,116l4,0 0,4 -4,0 0,-4z M76,116l4,0 0,4 -4,0 0,-4z M80,116l4,0 0,4 -4,0 0,-4z M84,116l4,0 0,4 -4,0 0,-4z M88,116l4,0 0,4 -4,0 0,-4z M100,116l4,0 0,4 -4,0 0,-4z M108,116l4,0 0,4 -4,0 0,-4z M112,116l4,0 0,4 -4,0 0,-4z M128,116l4,0 0,4 -4,0 0,-4z M144,116l4,0 0,4 -4,0 0,-4z M164,116l4,0 0,4 -4,0 0,-4z M180,116l4,0 0,4 -4,0 0,-4z M192,116l4,0 0,4 -4,0 0,-4z M200,116l4,0 0,4 -4,0 0,-4z M208,116l4,0 0,4 -4,0 0,-4z M224,116l4,0 0,4 -4,0 0,-4z M228,116l4,0 0,4 -4,0 0,-4z M240,116l4,0 0,4 -4,0 0,-4z M12,120l4,0 0,4 -4,0 0,-4z M16,120l4,0 0,4 -4,0 0,-4z M24,120l4,0 0,4 -4,0 0,-4z M32,120l4,0 0,4 -4,0 0,-4z M36,120l4,0 0,4 -4,0 0,-4z M40,120l4,0 0,4 -4,0 0,-4z M52,120l4,0 0,4 -4,0 0,-4z M56,120l4,0 0,4 -4,0 0,-4z M60,120l4,0 0,4 -4,0 0,-4z M68,120l4,0 0,4 -4,0 0,-4z M72,120l4,0 0,4 -4,0 0,-4z M84,120l4,0 0,4 -4,0 0,-4z M96,120l4,0 0,4 -4,0 0,-4z M112,120l4,0 0,4 -4,0 0,-4z M120,120l4,0 0,4 -4,0 0,-4z M128,120l4,0 0,4 -4,0 0,-4z M140,120l4,0 0,4 -4,0 0,-4z M152,120l4,0 0,4 -4,0 0,-4z M160,120l4,0 0,4 -4,0 0,-4z M164,120l4,0 0,4 -4,0 0,-4z M172,120l4,0 0,4 -4,0 0,-4z M176,120l4,0 0,4 -4,0 0,-4z M180,120l4,0 0,4 -4,0 0,-4z M192,120l4,0 0,4 -4,0 0,-4z M196,120l4,0 0,4 -4,0 0,-4z M204,120l4,0 0,4 -4,0 0,-4z M208,120l4,0 0,4 -4,0 0,-4z M216,120l4,0 0,4 -4,0 0,-4z M224,120l4,0 0,4 -4,0 0,-4z M236,120l4,0 0,4 -4,0 0,-4z M240,120l4,0 0,4 -4,0 0,-4z M0,124l4,0 0,4 -4,0 0,-4z M16,124l4,0 0,4 -4,0 0,-4z M32,124l4,0 0,4 -4,0 0,-4z M52,124l4,0 0,4 -4,0 0,-4z M56,124l4,0 0,4 -4,0 0,-4z M60,124l4,0 0,4 -4,0 0,-4z M64,124l4,0 0,4 -4,0 0,-4z M84,124l4,0 0,4 -4,0 0,-4z M104,124l4,0 0,4 -4,0 0,-4z M108,124l4,0 0,4 -4,0 0,-4z M112,124l4,0 0,4 -4,0 0,-4z M128,124l4,0 0,4 -4,0 0,-4z M132,124l4,0 0,4 -4,0 0,-4z M136,124l4,0 0,4 -4,0 0,-4z M140,124l4,0 0,4 -4,0 0,-4z M148,124l4,0 0,4 -4,0 0,-4z M164,124l4,0 0,4 -4,0 0,-4z M176,124l4,0 0,4 -4,0 0,-4z M180,124l4,0 0,4 -4,0 0,-4z M184,124l4,0 0,4 -4,0 0,-4z M192,124l4,0 0,4 -4,0 0,-4z M204,124l4,0 0,4 -4,0 0,-4z M208,124l4,0 0,4 -4,0 0,-4z M224,124l4,0 0,4 -4,0 0,-4z M228,124l4,0 0,4 -4,0 0,-4z M232,124l4,0 0,4 -4,0 0,-4z M240,124l4,0 0,4 -4,0 0,-4z M4,128l4,0 0,4 -4,0 0,-4z M16,128l4,0 0,4 -4,0 0,-4z M20,128l4,0 0,4 -4,0 0,-4z M24,128l4,0 0,4 -4,0 0,-4z M28,128l4,0 0,4 -4,0 0,-4z M32,128l4,0 0,4 -4,0 0,-4z M36,128l4,0 0,4 -4,0 0,-4z M40,128l4,0 0,4 -4,0 0,-4z M44,128l4,0 0,4 -4,0 0,-4z M56,128l4,0 0,4 -4,0 0,-4z M60,128l4,0 0,4 -4,0 0,-4z M64,128l4,0 0,4 -4,0 0,-4z M72,128l4,0 0,4 -4,0 0,-4z M76,128l4,0 0,4 -4,0 0,-4z M80,128l4,0 0,4 -4,0 0,-4z M84,128l4,0 0,4 -4,0 0,-4z M92,128l4,0 0,4 -4,0 0,-4z M96,128l4,0 0,4 -4,0 0,-4z M100,128l4,0 0,4 -4,0 0,-4z M112,128l4,0 0,4 -4,0 0,-4z M116,128l4,0 0,4 -4,0 0,-4z M120,128l4,0 0,4 -4,0 0,-4z M124,128l4,0 0,4 -4,0 0,-4z M128,128l4,0 0,4 -4,0 0,-4z M144,128l4,0 0,4 -4,0 0,-4z M152,128l4,0 0,4 -4,0 0,-4z M160,128l4,0 0,4 -4,0 0,-4z M164,128l4,0 0,4 -4,0 0,-4z M172,128l4,0 0,4 -4,0 0,-4z M180,128l4,0 0,4 -4,0 0,-4z M184,128l4,0 0,4 -4,0 0,-4z M188,128l4,0 0,4 -4,0 0,-4z M192,128l4,0 0,4 -4,0 0,-4z M200,128l4,0 0,4 -4,0 0,-4z M204,128l4,0 0,4 -4,0 0,-4z M208,128l4,0 0,4 -4,0 0,-4z M212,128l4,0 0,4 -4,0 0,-4z M216,128l4,0 0,4 -4,0 0,-4z M220,128l4,0 0,4 -4,0 0,-4z M224,128l4,0 0,4 -4,0 0,-4z M0,132l4,0 0,4 -4,0 0,-4z M4,132l4,0 0,4 -4,0 0,-4z M8,132l4,0 0,4 -4,0 0,-4z M12,132l4,0 0,4 -4,0 0,-4z M16,132l4,0 0,4 -4,0 0,-4z M20,132l4,0 0,4 -4,0 0,-4z M28,132l4,0 0,4 -4,0 0,-4z M36,132l4,0 0,4 -4,0 0,-4z M40,132l4,0 0,4 -4,0 0,-4z M52,132l4,0 0,4 -4,0 0,-4z M60,132l4,0 0,4 -4,0 0,-4z M68,132l4,0 0,4 -4,0 0,-4z M72,132l4,0 0,4 -4,0 0,-4z M76,132l4,0 0,4 -4,0 0,-4z M84,132l4,0 0,4 -4,0 0,-4z M96,132l4,0 0,4 -4,0 0,-4z M104,132l4,0 0,4 -4,0 0,-4z M108,132l4,0 0,4 -4,0 0,-4z M112,132l4,0 0,4 -4,0 0,-4z M120,132l4,0 0,4 -4,0 0,-4z M124,132l4,0 0,4 -4,0 0,-4z M144,132l4,0 0,4 -4,0 0,-4z M148,132l4,0 0,4 -4,0 0,-4z M164,132l4,0 0,4 -4,0 0,-4z M176,132l4,0 0,4 -4,0 0,-4z M180,132l4,0 0,4 -4,0 0,-4z M188,132l4,0 0,4 -4,0 0,-4z M192,132l4,0 0,4 -4,0 0,-4z M196,132l4,0 0,4 -4,0 0,-4z M204,132l4,0 0,4 -4,0 0,-4z M208,132l4,0 0,4 -4,0 0,-4z M212,132l4,0 0,4 -4,0 0,-4z M216,132l4,0 0,4 -4,0 0,-4z M220,132l4,0 0,4 -4,0 0,-4z M236,132l4,0 0,4 -4,0 0,-4z M240,132l4,0 0,4 -4,0 0,-4z M0,136l4,0 0,4 -4,0 0,-4z M8,136l4,0 0,4 -4,0 0,-4z M12,136l4,0 0,4 -4,0 0,-4z M24,136l4,0 0,4 -4,0 0,-4z M28,136l4,0 0,4 -4,0 0,-4z M36,136l4,0 0,4 -4,0 0,-4z M40,136l4,0 0,4 -4,0 0,-4z M48,136l4,0 0,4 -4,0 0,-4z M52,136l4,0 0,4 -4,0 0,-4z M56,136l4,0 0,4 -4,0 0,-4z M60,136l4,0 0,4 -4,0 0,-4z M72,136l4,0 0,4 -4,0 0,-4z M76,136l4,0 0,4 -4,0 0,-4z M84,136l4,0 0,4 -4,0 0,-4z M100,136l4,0 0,4 -4,0 0,-4z M104,136l4,0 0,4 -4,0 0,-4z M112,136l4,0 0,4 -4,0 0,-4z M116,136l4,0 0,4 -4,0 0,-4z M124,136l4,0 0,4 -4,0 0,-4z M136,136l4,0 0,4 -4,0 0,-4z M140,136l4,0 0,4 -4,0 0,-4z M144,136l4,0 0,4 -4,0 0,-4z M180,136l4,0 0,4 -4,0 0,-4z M184,136l4,0 0,4 -4,0 0,-4z M188,136l4,0 0,4 -4,0 0,-4z M192,136l4,0 0,4 -4,0 0,-4z M212,136l4,0 0,4 -4,0 0,-4z M216,136l4,0 0,4 -4,0 0,-4z M224,136l4,0 0,4 -4,0 0,-4z M228,136l4,0 0,4 -4,0 0,-4z M240,136l4,0 0,4 -4,0 0,-4z M4,140l4,0 0,4 -4,0 0,-4z M8,140l4,0 0,4 -4,0 0,-4z M12,140l4,0 0,4 -4,0 0,-4z M16,140l4,0 0,4 -4,0 0,-4z M36,140l4,0 0,4 -4,0 0,-4z M44,140l4,0 0,4 -4,0 0,-4z M48,140l4,0 0,4 -4,0 0,-4z M60,140l4,0 0,4 -4,0 0,-4z M68,140l4,0 0,4 -4,0 0,-4z M72,140l4,0 0,4 -4,0 0,-4z M76,140l4,0 0,4 -4,0 0,-4z M80,140l4,0 0,4 -4,0 0,-4z M92,140l4,0 0,4 -4,0 0,-4z M96,140l4,0 0,4 -4,0 0,-4z M100,140l4,0 0,4 -4,0 0,-4z M120,140l4,0 0,4 -4,0 0,-4z M128,140l4,0 0,4 -4,0 0,-4z M136,140l4,0 0,4 -4,0 0,-4z M144,140l4,0 0,4 -4,0 0,-4z M152,140l4,0 0,4 -4,0 0,-4z M156,140l4,0 0,4 -4,0 0,-4z M160,140l4,0 0,4 -4,0 0,-4z M164,140l4,0 0,4 -4,0 0,-4z M172,140l4,0 0,4 -4,0 0,-4z M180,140l4,0 0,4 -4,0 0,-4z M192,140l4,0 0,4 -4,0 0,-4z M196,140l4,0 0,4 -4,0 0,-4z M200,140l4,0 0,4 -4,0 0,-4z M208,140l4,0 0,4 -4,0 0,-4z M216,140l4,0 0,4 -4,0 0,-4z M224,140l4,0 0,4 -4,0 0,-4z M228,140l4,0 0,4 -4,0 0,-4z M236,140l4,0 0,4 -4,0 0,-4z M0,144l4,0 0,4 -4,0 0,-4z M4,144l4,0 0,4 -4,0 0,-4z M8,144l4,0 0,4 -4,0 0,-4z M12,144l4,0 0,4 -4,0 0,-4z M24,144l4,0 0,4 -4,0 0,-4z M32,144l4,0 0,4 -4,0 0,-4z M36,144l4,0 0,4 -4,0 0,-4z M40,144l4,0 0,4 -4,0 0,-4z M44,144l4,0 0,4 -4,0 0,-4z M60,144l4,0 0,4 -4,0 0,-4z M72,144l4,0 0,4 -4,0 0,-4z M76,144l4,0 0,4 -4,0 0,-4z M88,144l4,0 0,4 -4,0 0,-4z M92,144l4,0 0,4 -4,0 0,-4z M96,144l4,0 0,4 -4,0 0,-4z M100,144l4,0 0,4 -4,0 0,-4z M104,144l4,0 0,4 -4,0 0,-4z M112,144l4,0 0,4 -4,0 0,-4z M116,144l4,0 0,4 -4,0 0,-4z M124,144l4,0 0,4 -4,0 0,-4z M128,144l4,0 0,4 -4,0 0,-4z M140,144l4,0 0,4 -4,0 0,-4z M144,144l4,0 0,4 -4,0 0,-4z M148,144l4,0 0,4 -4,0 0,-4z M152,144l4,0 0,4 -4,0 0,-4z M156,144l4,0 0,4 -4,0 0,-4z M160,144l4,0 0,4 -4,0 0,-4z M164,144l4,0 0,4 -4,0 0,-4z M168,144l4,0 0,4 -4,0 0,-4z M172,144l4,0 0,4 -4,0 0,-4z M176,144l4,0 0,4 -4,0 0,-4z M180,144l4,0 0,4 -4,0 0,-4z M184,144l4,0 0,4 -4,0 0,-4z M192,144l4,0 0,4 -4,0 0,-4z M196,144l4,0 0,4 -4,0 0,-4z M216,144l4,0 0,4 -4,0 0,-4z M228,144l4,0 0,4 -4,0 0,-4z M240,144l4,0 0,4 -4,0 0,-4z M0,148l4,0 0,4 -4,0 0,-4z M4,148l4,0 0,4 -4,0 0,-4z M8,148l4,0 0,4 -4,0 0,-4z M12,148l4,0 0,4 -4,0 0,-4z M16,148l4,0 0,4 -4,0 0,-4z M20,148l4,0 0,4 -4,0 0,-4z M36,148l4,0 0,4 -4,0 0,-4z M44,148l4,0 0,4 -4,0 0,-4z M52,148l4,0 0,4 -4,0 0,-4z M56,148l4,0 0,4 -4,0 0,-4z M64,148l4,0 0,4 -4,0 0,-4z M68,148l4,0 0,4 -4,0 0,-4z M72,148l4,0 0,4 -4,0 0,-4z M100,148l4,0 0,4 -4,0 0,-4z M104,148l4,0 0,4 -4,0 0,-4z M116,148l4,0 0,4 -4,0 0,-4z M124,148l4,0 0,4 -4,0 0,-4z M128,148l4,0 0,4 -4,0 0,-4z M144,148l4,0 0,4 -4,0 0,-4z M156,148l4,0 0,4 -4,0 0,-4z M176,148l4,0 0,4 -4,0 0,-4z M180,148l4,0 0,4 -4,0 0,-4z M184,148l4,0 0,4 -4,0 0,-4z M188,148l4,0 0,4 -4,0 0,-4z M192,148l4,0 0,4 -4,0 0,-4z M204,148l4,0 0,4 -4,0 0,-4z M208,148l4,0 0,4 -4,0 0,-4z M212,148l4,0 0,4 -4,0 0,-4z M216,148l4,0 0,4 -4,0 0,-4z M228,148l4,0 0,4 -4,0 0,-4z M236,148l4,0 0,4 -4,0 0,-4z M240,148l4,0 0,4 -4,0 0,-4z M8,152l4,0 0,4 -4,0 0,-4z M16,152l4,0 0,4 -4,0 0,-4z M20,152l4,0 0,4 -4,0 0,-4z M24,152l4,0 0,4 -4,0 0,-4z M32,152l4,0 0,4 -4,0 0,-4z M36,152l4,0 0,4 -4,0 0,-4z M52,152l4,0 0,4 -4,0 0,-4z M76,152l4,0 0,4 -4,0 0,-4z M88,152l4,0 0,4 -4,0 0,-4z M92,152l4,0 0,4 -4,0 0,-4z M112,152l4,0 0,4 -4,0 0,-4z M120,152l4,0 0,4 -4,0 0,-4z M128,152l4,0 0,4 -4,0 0,-4z M136,152l4,0 0,4 -4,0 0,-4z M144,152l4,0 0,4 -4,0 0,-4z M148,152l4,0 0,4 -4,0 0,-4z M152,152l4,0 0,4 -4,0 0,-4z M156,152l4,0 0,4 -4,0 0,-4z M188,152l4,0 0,4 -4,0 0,-4z M192,152l4,0 0,4 -4,0 0,-4z M200,152l4,0 0,4 -4,0 0,-4z M204,152l4,0 0,4 -4,0 0,-4z M208,152l4,0 0,4 -4,0 0,-4z M216,152l4,0 0,4 -4,0 0,-4z M224,152l4,0 0,4 -4,0 0,-4z M236,152l4,0 0,4 -4,0 0,-4z M240,152l4,0 0,4 -4,0 0,-4z M4,156l4,0 0,4 -4,0 0,-4z M8,156l4,0 0,4 -4,0 0,-4z M16,156l4,0 0,4 -4,0 0,-4z M20,156l4,0 0,4 -4,0 0,-4z M28,156l4,0 0,4 -4,0 0,-4z M40,156l4,0 0,4 -4,0 0,-4z M44,156l4,0 0,4 -4,0 0,-4z M60,156l4,0 0,4 -4,0 0,-4z M68,156l4,0 0,4 -4,0 0,-4z M72,156l4,0 0,4 -4,0 0,-4z M76,156l4,0 0,4 -4,0 0,-4z M84,156l4,0 0,4 -4,0 0,-4z M88,156l4,0 0,4 -4,0 0,-4z M96,156l4,0 0,4 -4,0 0,-4z M108,156l4,0 0,4 -4,0 0,-4z M112,156l4,0 0,4 -4,0 0,-4z M116,156l4,0 0,4 -4,0 0,-4z M144,156l4,0 0,4 -4,0 0,-4z M148,156l4,0 0,4 -4,0 0,-4z M156,156l4,0 0,4 -4,0 0,-4z M160,156l4,0 0,4 -4,0 0,-4z M172,156l4,0 0,4 -4,0 0,-4z M176,156l4,0 0,4 -4,0 0,-4z M188,156l4,0 0,4 -4,0 0,-4z M196,156l4,0 0,4 -4,0 0,-4z M208,156l4,0 0,4 -4,0 0,-4z M212,156l4,0 0,4 -4,0 0,-4z M216,156l4,0 0,4 -4,0 0,-4z M220,156l4,0 0,4 -4,0 0,-4z M228,156l4,0 0,4 -4,0 0,-4z M0,160l4,0 0,4 -4,0 0,-4z M8,160l4,0 0,4 -4,0 0,-4z M20,160l4,0 0,4 -4,0 0,-4z M24,160l4,0 0,4 -4,0 0,-4z M28,160l4,0 0,4 -4,0 0,-4z M44,160l4,0 0,4 -4,0 0,-4z M52,160l4,0 0,4 -4,0 0,-4z M60,160l4,0 0,4 -4,0 0,-4z M64,160l4,0 0,4 -4,0 0,-4z M68,160l4,0 0,4 -4,0 0,-4z M80,160l4,0 0,4 -4,0 0,-4z M84,160l4,0 0,4 -4,0 0,-4z M100,160l4,0 0,4 -4,0 0,-4z M104,160l4,0 0,4 -4,0 0,-4z M120,160l4,0 0,4 -4,0 0,-4z M124,160l4,0 0,4 -4,0 0,-4z M144,160l4,0 0,4 -4,0 0,-4z M148,160l4,0 0,4 -4,0 0,-4z M168,160l4,0 0,4 -4,0 0,-4z M176,160l4,0 0,4 -4,0 0,-4z M188,160l4,0 0,4 -4,0 0,-4z M192,160l4,0 0,4 -4,0 0,-4z M196,160l4,0 0,4 -4,0 0,-4z M200,160l4,0 0,4 -4,0 0,-4z M212,160l4,0 0,4 -4,0 0,-4z M216,160l4,0 0,4 -4,0 0,-4z M220,160l4,0 0,4 -4,0 0,-4z M232,160l4,0 0,4 -4,0 0,-4z M236,160l4,0 0,4 -4,0 0,-4z M0,164l4,0 0,4 -4,0 0,-4z M4,164l4,0 0,4 -4,0 0,-4z M8,164l4,0 0,4 -4,0 0,-4z M28,164l4,0 0,4 -4,0 0,-4z M32,164l4,0 0,4 -4,0 0,-4z M44,164l4,0 0,4 -4,0 0,-4z M48,164l4,0 0,4 -4,0 0,-4z M52,164l4,0 0,4 -4,0 0,-4z M56,164l4,0 0,4 -4,0 0,-4z M60,164l4,0 0,4 -4,0 0,-4z M76,164l4,0 0,4 -4,0 0,-4z M80,164l4,0 0,4 -4,0 0,-4z M84,164l4,0 0,4 -4,0 0,-4z M104,164l4,0 0,4 -4,0 0,-4z M112,164l4,0 0,4 -4,0 0,-4z M116,164l4,0 0,4 -4,0 0,-4z M120,164l4,0 0,4 -4,0 0,-4z M132,164l4,0 0,4 -4,0 0,-4z M140,164l4,0 0,4 -4,0 0,-4z M152,164l4,0 0,4 -4,0 0,-4z M156,164l4,0 0,4 -4,0 0,-4z M160,164l4,0 0,4 -4,0 0,-4z M172,164l4,0 0,4 -4,0 0,-4z M176,164l4,0 0,4 -4,0 0,-4z M188,164l4,0 0,4 -4,0 0,-4z M192,164l4,0 0,4 -4,0 0,-4z M196,164l4,0 0,4 -4,0 0,-4z M200,164l4,0 0,4 -4,0 0,-4z M212,164l4,0 0,4 -4,0 0,-4z M224,164l4,0 0,4 -4,0 0,-4z M236,164l4,0 0,4 -4,0 0,-4z M4,168l4,0 0,4 -4,0 0,-4z M12,168l4,0 0,4 -4,0 0,-4z M24,168l4,0 0,4 -4,0 0,-4z M48,168l4,0 0,4 -4,0 0,-4z M56,168l4,0 0,4 -4,0 0,-4z M60,168l4,0 0,4 -4,0 0,-4z M64,168l4,0 0,4 -4,0 0,-4z M68,168l4,0 0,4 -4,0 0,-4z M72,168l4,0 0,4 -4,0 0,-4z M76,168l4,0 0,4 -4,0 0,-4z M80,168l4,0 0,4 -4,0 0,-4z M84,168l4,0 0,4 -4,0 0,-4z M100,168l4,0 0,4 -4,0 0,-4z M104,168l4,0 0,4 -4,0 0,-4z M120,168l4,0 0,4 -4,0 0,-4z M124,168l4,0 0,4 -4,0 0,-4z M132,168l4,0 0,4 -4,0 0,-4z M140,168l4,0 0,4 -4,0 0,-4z M144,168l4,0 0,4 -4,0 0,-4z M152,168l4,0 0,4 -4,0 0,-4z M160,168l4,0 0,4 -4,0 0,-4z M164,168l4,0 0,4 -4,0 0,-4z M176,168l4,0 0,4 -4,0 0,-4z M192,168l4,0 0,4 -4,0 0,-4z M196,168l4,0 0,4 -4,0 0,-4z M208,168l4,0 0,4 -4,0 0,-4z M216,168l4,0 0,4 -4,0 0,-4z M228,168l4,0 0,4 -4,0 0,-4z M232,168l4,0 0,4 -4,0 0,-4z M240,168l4,0 0,4 -4,0 0,-4z M8,172l4,0 0,4 -4,0 0,-4z M20,172l4,0 0,4 -4,0 0,-4z M28,172l4,0 0,4 -4,0 0,-4z M32,172l4,0 0,4 -4,0 0,-4z M40,172l4,0 0,4 -4,0 0,-4z M48,172l4,0 0,4 -4,0 0,-4z M56,172l4,0 0,4 -4,0 0,-4z M64,172l4,0 0,4 -4,0 0,-4z M68,172l4,0 0,4 -4,0 0,-4z M72,172l4,0 0,4 -4,0 0,-4z M96,172l4,0 0,4 -4,0 0,-4z M100,172l4,0 0,4 -4,0 0,-4z M108,172l4,0 0,4 -4,0 0,-4z M112,172l4,0 0,4 -4,0 0,-4z M116,172l4,0 0,4 -4,0 0,-4z M120,172l4,0 0,4 -4,0 0,-4z M156,172l4,0 0,4 -4,0 0,-4z M160,172l4,0 0,4 -4,0 0,-4z M164,172l4,0 0,4 -4,0 0,-4z M172,172l4,0 0,4 -4,0 0,-4z M176,172l4,0 0,4 -4,0 0,-4z M184,172l4,0 0,4 -4,0 0,-4z M192,172l4,0 0,4 -4,0 0,-4z M216,172l4,0 0,4 -4,0 0,-4z M228,172l4,0 0,4 -4,0 0,-4z M232,172l4,0 0,4 -4,0 0,-4z M0,176l4,0 0,4 -4,0 0,-4z M8,176l4,0 0,4 -4,0 0,-4z M16,176l4,0 0,4 -4,0 0,-4z M20,176l4,0 0,4 -4,0 0,-4z M24,176l4,0 0,4 -4,0 0,-4z M36,176l4,0 0,4 -4,0 0,-4z M44,176l4,0 0,4 -4,0 0,-4z M52,176l4,0 0,4 -4,0 0,-4z M60,176l4,0 0,4 -4,0 0,-4z M72,176l4,0 0,4 -4,0 0,-4z M76,176l4,0 0,4 -4,0 0,-4z M80,176l4,0 0,4 -4,0 0,-4z M84,176l4,0 0,4 -4,0 0,-4z M88,176l4,0 0,4 -4,0 0,-4z M112,176l4,0 0,4 -4,0 0,-4z M120,176l4,0 0,4 -4,0 0,-4z M124,176l4,0 0,4 -4,0 0,-4z M132,176l4,0 0,4 -4,0 0,-4z M136,176l4,0 0,4 -4,0 0,-4z M140,176l4,0 0,4 -4,0 0,-4z M144,176l4,0 0,4 -4,0 0,-4z M148,176l4,0 0,4 -4,0 0,-4z M156,176l4,0 0,4 -4,0 0,-4z M160,176l4,0 0,4 -4,0 0,-4z M180,176l4,0 0,4 -4,0 0,-4z M184,176l4,0 0,4 -4,0 0,-4z M188,176l4,0 0,4 -4,0 0,-4z M192,176l4,0 0,4 -4,0 0,-4z M200,176l4,0 0,4 -4,0 0,-4z M212,176l4,0 0,4 -4,0 0,-4z M216,176l4,0 0,4 -4,0 0,-4z M220,176l4,0 0,4 -4,0 0,-4z M224,176l4,0 0,4 -4,0 0,-4z M228,176l4,0 0,4 -4,0 0,-4z M236,176l4,0 0,4 -4,0 0,-4z M240,176l4,0 0,4 -4,0 0,-4z M28,180l4,0 0,4 -4,0 0,-4z M40,180l4,0 0,4 -4,0 0,-4z M44,180l4,0 0,4 -4,0 0,-4z M52,180l4,0 0,4 -4,0 0,-4z M60,180l4,0 0,4 -4,0 0,-4z M68,180l4,0 0,4 -4,0 0,-4z M72,180l4,0 0,4 -4,0 0,-4z M76,180l4,0 0,4 -4,0 0,-4z M84,180l4,0 0,4 -4,0 0,-4z M88,180l4,0 0,4 -4,0 0,-4z M92,180l4,0 0,4 -4,0 0,-4z M104,180l4,0 0,4 -4,0 0,-4z M108,180l4,0 0,4 -4,0 0,-4z M112,180l4,0 0,4 -4,0 0,-4z M116,180l4,0 0,4 -4,0 0,-4z M148,180l4,0 0,4 -4,0 0,-4z M160,180l4,0 0,4 -4,0 0,-4z M164,180l4,0 0,4 -4,0 0,-4z M204,180l4,0 0,4 -4,0 0,-4z M212,180l4,0 0,4 -4,0 0,-4z M216,180l4,0 0,4 -4,0 0,-4z M220,180l4,0 0,4 -4,0 0,-4z M236,180l4,0 0,4 -4,0 0,-4z M240,180l4,0 0,4 -4,0 0,-4z M0,184l4,0 0,4 -4,0 0,-4z M4,184l4,0 0,4 -4,0 0,-4z M16,184l4,0 0,4 -4,0 0,-4z M24,184l4,0 0,4 -4,0 0,-4z M28,184l4,0 0,4 -4,0 0,-4z M36,184l4,0 0,4 -4,0 0,-4z M40,184l4,0 0,4 -4,0 0,-4z M44,184l4,0 0,4 -4,0 0,-4z M48,184l4,0 0,4 -4,0 0,-4z M56,184l4,0 0,4 -4,0 0,-4z M60,184l4,0 0,4 -4,0 0,-4z M64,184l4,0 0,4 -4,0 0,-4z M68,184l4,0 0,4 -4,0 0,-4z M80,184l4,0 0,4 -4,0 0,-4z M92,184l4,0 0,4 -4,0 0,-4z M96,184l4,0 0,4 -4,0 0,-4z M100,184l4,0 0,4 -4,0 0,-4z M104,184l4,0 0,4 -4,0 0,-4z M108,184l4,0 0,4 -4,0 0,-4z M120,184l4,0 0,4 -4,0 0,-4z M124,184l4,0 0,4 -4,0 0,-4z M128,184l4,0 0,4 -4,0 0,-4z M132,184l4,0 0,4 -4,0 0,-4z M136,184l4,0 0,4 -4,0 0,-4z M144,184l4,0 0,4 -4,0 0,-4z M152,184l4,0 0,4 -4,0 0,-4z M176,184l4,0 0,4 -4,0 0,-4z M188,184l4,0 0,4 -4,0 0,-4z M192,184l4,0 0,4 -4,0 0,-4z M196,184l4,0 0,4 -4,0 0,-4z M216,184l4,0 0,4 -4,0 0,-4z M228,184l4,0 0,4 -4,0 0,-4z M236,184l4,0 0,4 -4,0 0,-4z M240,184l4,0 0,4 -4,0 0,-4z M4,188l4,0 0,4 -4,0 0,-4z M12,188l4,0 0,4 -4,0 0,-4z M16,188l4,0 0,4 -4,0 0,-4z M20,188l4,0 0,4 -4,0 0,-4z M36,188l4,0 0,4 -4,0 0,-4z M52,188l4,0 0,4 -4,0 0,-4z M60,188l4,0 0,4 -4,0 0,-4z M68,188l4,0 0,4 -4,0 0,-4z M80,188l4,0 0,4 -4,0 0,-4z M112,188l4,0 0,4 -4,0 0,-4z M120,188l4,0 0,4 -4,0 0,-4z M136,188l4,0 0,4 -4,0 0,-4z M140,188l4,0 0,4 -4,0 0,-4z M144,188l4,0 0,4 -4,0 0,-4z M148,188l4,0 0,4 -4,0 0,-4z M160,188l4,0 0,4 -4,0 0,-4z M164,188l4,0 0,4 -4,0 0,-4z M176,188l4,0 0,4 -4,0 0,-4z M180,188l4,0 0,4 -4,0 0,-4z M188,188l4,0 0,4 -4,0 0,-4z M192,188l4,0 0,4 -4,0 0,-4z M196,188l4,0 0,4 -4,0 0,-4z M200,188l4,0 0,4 -4,0 0,-4z M208,188l4,0 0,4 -4,0 0,-4z M216,188l4,0 0,4 -4,0 0,-4z M228,188l4,0 0,4 -4,0 0,-4z M0,192l4,0 0,4 -4,0 0,-4z M4,192l4,0 0,4 -4,0 0,-4z M8,192l4,0 0,4 -4,0 0,-4z M12,192l4,0 0,4 -4,0 0,-4z M16,192l4,0 0,4 -4,0 0,-4z M20,192l4,0 0,4 -4,0 0,-4z M24,192l4,0 0,4 -4,0 0,-4z M32,192l4,0 0,4 -4,0 0,-4z M36,192l4,0 0,4 -4,0 0,-4z M40,192l4,0 0,4 -4,0 0,-4z M48,192l4,0 0,4 -4,0 0,-4z M52,192l4,0 0,4 -4,0 0,-4z M56,192l4,0 0,4 -4,0 0,-4z M64,192l4,0 0,4 -4,0 0,-4z M68,192l4,0 0,4 -4,0 0,-4z M72,192l4,0 0,4 -4,0 0,-4z M76,192l4,0 0,4 -4,0 0,-4z M88,192l4,0 0,4 -4,0 0,-4z M92,192l4,0 0,4 -4,0 0,-4z M96,192l4,0 0,4 -4,0 0,-4z M100,192l4,0 0,4 -4,0 0,-4z M104,192l4,0 0,4 -4,0 0,-4z M108,192l4,0 0,4 -4,0 0,-4z M120,192l4,0 0,4 -4,0 0,-4z M144,192l4,0 0,4 -4,0 0,-4z M152,192l4,0 0,4 -4,0 0,-4z M160,192l4,0 0,4 -4,0 0,-4z M164,192l4,0 0,4 -4,0 0,-4z M168,192l4,0 0,4 -4,0 0,-4z M172,192l4,0 0,4 -4,0 0,-4z M176,192l4,0 0,4 -4,0 0,-4z M180,192l4,0 0,4 -4,0 0,-4z M192,192l4,0 0,4 -4,0 0,-4z M208,192l4,0 0,4 -4,0 0,-4z M228,192l4,0 0,4 -4,0 0,-4z M236,192l4,0 0,4 -4,0 0,-4z M0,196l4,0 0,4 -4,0 0,-4z M4,196l4,0 0,4 -4,0 0,-4z M8,196l4,0 0,4 -4,0 0,-4z M12,196l4,0 0,4 -4,0 0,-4z M16,196l4,0 0,4 -4,0 0,-4z M20,196l4,0 0,4 -4,0 0,-4z M40,196l4,0 0,4 -4,0 0,-4z M44,196l4,0 0,4 -4,0 0,-4z M72,196l4,0 0,4 -4,0 0,-4z M88,196l4,0 0,4 -4,0 0,-4z M92,196l4,0 0,4 -4,0 0,-4z M104,196l4,0 0,4 -4,0 0,-4z M112,196l4,0 0,4 -4,0 0,-4z M116,196l4,0 0,4 -4,0 0,-4z M120,196l4,0 0,4 -4,0 0,-4z M124,196l4,0 0,4 -4,0 0,-4z M128,196l4,0 0,4 -4,0 0,-4z M136,196l4,0 0,4 -4,0 0,-4z M156,196l4,0 0,4 -4,0 0,-4z M160,196l4,0 0,4 -4,0 0,-4z M164,196l4,0 0,4 -4,0 0,-4z M176,196l4,0 0,4 -4,0 0,-4z M180,196l4,0 0,4 -4,0 0,-4z M184,196l4,0 0,4 -4,0 0,-4z M228,196l4,0 0,4 -4,0 0,-4z M232,196l4,0 0,4 -4,0 0,-4z M236,196l4,0 0,4 -4,0 0,-4z M8,200l4,0 0,4 -4,0 0,-4z M12,200l4,0 0,4 -4,0 0,-4z M16,200l4,0 0,4 -4,0 0,-4z M20,200l4,0 0,4 -4,0 0,-4z M24,200l4,0 0,4 -4,0 0,-4z M28,200l4,0 0,4 -4,0 0,-4z M52,200l4,0 0,4 -4,0 0,-4z M56,200l4,0 0,4 -4,0 0,-4z M72,200l4,0 0,4 -4,0 0,-4z M76,200l4,0 0,4 -4,0 0,-4z M84,200l4,0 0,4 -4,0 0,-4z M88,200l4,0 0,4 -4,0 0,-4z M96,200l4,0 0,4 -4,0 0,-4z M100,200l4,0 0,4 -4,0 0,-4z M116,200l4,0 0,4 -4,0 0,-4z M120,200l4,0 0,4 -4,0 0,-4z M128,200l4,0 0,4 -4,0 0,-4z M144,200l4,0 0,4 -4,0 0,-4z M148,200l4,0 0,4 -4,0 0,-4z M152,200l4,0 0,4 -4,0 0,-4z M156,200l4,0 0,4 -4,0 0,-4z M160,200l4,0 0,4 -4,0 0,-4z M172,200l4,0 0,4 -4,0 0,-4z M176,200l4,0 0,4 -4,0 0,-4z M180,200l4,0 0,4 -4,0 0,-4z M192,200l4,0 0,4 -4,0 0,-4z M200,200l4,0 0,4 -4,0 0,-4z M208,200l4,0 0,4 -4,0 0,-4z M216,200l4,0 0,4 -4,0 0,-4z M224,200l4,0 0,4 -4,0 0,-4z M240,200l4,0 0,4 -4,0 0,-4z M0,204l4,0 0,4 -4,0 0,-4z M4,204l4,0 0,4 -4,0 0,-4z M8,204l4,0 0,4 -4,0 0,-4z M16,204l4,0 0,4 -4,0 0,-4z M28,204l4,0 0,4 -4,0 0,-4z M44,204l4,0 0,4 -4,0 0,-4z M64,204l4,0 0,4 -4,0 0,-4z M88,204l4,0 0,4 -4,0 0,-4z M92,204l4,0 0,4 -4,0 0,-4z M100,204l4,0 0,4 -4,0 0,-4z M108,204l4,0 0,4 -4,0 0,-4z M112,204l4,0 0,4 -4,0 0,-4z M132,204l4,0 0,4 -4,0 0,-4z M140,204l4,0 0,4 -4,0 0,-4z M144,204l4,0 0,4 -4,0 0,-4z M148,204l4,0 0,4 -4,0 0,-4z M156,204l4,0 0,4 -4,0 0,-4z M160,204l4,0 0,4 -4,0 0,-4z M176,204l4,0 0,4 -4,0 0,-4z M192,204l4,0 0,4 -4,0 0,-4z M208,204l4,0 0,4 -4,0 0,-4z M212,204l4,0 0,4 -4,0 0,-4z M216,204l4,0 0,4 -4,0 0,-4z M220,204l4,0 0,4 -4,0 0,-4z M228,204l4,0 0,4 -4,0 0,-4z M240,204l4,0 0,4 -4,0 0,-4z M0,208l4,0 0,4 -4,0 0,-4z M4,208l4,0 0,4 -4,0 0,-4z M8,208l4,0 0,4 -4,0 0,-4z M12,208l4,0 0,4 -4,0 0,-4z M24,208l4,0 0,4 -4,0 0,-4z M28,208l4,0 0,4 -4,0 0,-4z M36,208l4,0 0,4 -4,0 0,-4z M40,208l4,0 0,4 -4,0 0,-4z M60,208l4,0 0,4 -4,0 0,-4z M64,208l4,0 0,4 -4,0 0,-4z M72,208l4,0 0,4 -4,0 0,-4z M76,208l4,0 0,4 -4,0 0,-4z M104,208l4,0 0,4 -4,0 0,-4z M112,208l4,0 0,4 -4,0 0,-4z M116,208l4,0 0,4 -4,0 0,-4z M120,208l4,0 0,4 -4,0 0,-4z M124,208l4,0 0,4 -4,0 0,-4z M128,208l4,0 0,4 -4,0 0,-4z M132,208l4,0 0,4 -4,0 0,-4z M140,208l4,0 0,4 -4,0 0,-4z M144,208l4,0 0,4 -4,0 0,-4z M148,208l4,0 0,4 -4,0 0,-4z M156,208l4,0 0,4 -4,0 0,-4z M168,208l4,0 0,4 -4,0 0,-4z M172,208l4,0 0,4 -4,0 0,-4z M176,208l4,0 0,4 -4,0 0,-4z M180,208l4,0 0,4 -4,0 0,-4z M192,208l4,0 0,4 -4,0 0,-4z M200,208l4,0 0,4 -4,0 0,-4z M208,208l4,0 0,4 -4,0 0,-4z M212,208l4,0 0,4 -4,0 0,-4z M216,208l4,0 0,4 -4,0 0,-4z M220,208l4,0 0,4 -4,0 0,-4z M224,208l4,0 0,4 -4,0 0,-4z M228,208l4,0 0,4 -4,0 0,-4z M232,208l4,0 0,4 -4,0 0,-4z M240,208l4,0 0,4 -4,0 0,-4z M32,212l4,0 0,4 -4,0 0,-4z M36,212l4,0 0,4 -4,0 0,-4z M44,212l4,0 0,4 -4,0 0,-4z M48,212l4,0 0,4 -4,0 0,-4z M52,212l4,0 0,4 -4,0 0,-4z M56,212l4,0 0,4 -4,0 0,-4z M60,212l4,0 0,4 -4,0 0,-4z M68,212l4,0 0,4 -4,0 0,-4z M72,212l4,0 0,4 -4,0 0,-4z M80,212l4,0 0,4 -4,0 0,-4z M88,212l4,0 0,4 -4,0 0,-4z M92,212l4,0 0,4 -4,0 0,-4z M100,212l4,0 0,4 -4,0 0,-4z M112,212l4,0 0,4 -4,0 0,-4z M128,212l4,0 0,4 -4,0 0,-4z M132,212l4,0 0,4 -4,0 0,-4z M144,212l4,0 0,4 -4,0 0,-4z M152,212l4,0 0,4 -4,0 0,-4z M172,212l4,0 0,4 -4,0 0,-4z M180,212l4,0 0,4 -4,0 0,-4z M192,212l4,0 0,4 -4,0 0,-4z M196,212l4,0 0,4 -4,0 0,-4z M200,212l4,0 0,4 -4,0 0,-4z M204,212l4,0 0,4 -4,0 0,-4z M208,212l4,0 0,4 -4,0 0,-4z M224,212l4,0 0,4 -4,0 0,-4z M232,212l4,0 0,4 -4,0 0,-4z M236,212l4,0 0,4 -4,0 0,-4z M240,212l4,0 0,4 -4,0 0,-4z M0,216l4,0 0,4 -4,0 0,-4z M4,216l4,0 0,4 -4,0 0,-4z M8,216l4,0 0,4 -4,0 0,-4z M12,216l4,0 0,4 -4,0 0,-4z M16,216l4,0 0,4 -4,0 0,-4z M20,216l4,0 0,4 -4,0 0,-4z M24,216l4,0 0,4 -4,0 0,-4z M32,216l4,0 0,4 -4,0 0,-4z M40,216l4,0 0,4 -4,0 0,-4z M72,216l4,0 0,4 -4,0 0,-4z M88,216l4,0 0,4 -4,0 0,-4z M92,216l4,0 0,4 -4,0 0,-4z M100,216l4,0 0,4 -4,0 0,-4z M108,216l4,0 0,4 -4,0 0,-4z M112,216l4,0 0,4 -4,0 0,-4z M120,216l4,0 0,4 -4,0 0,-4z M128,216l4,0 0,4 -4,0 0,-4z M132,216l4,0 0,4 -4,0 0,-4z M136,216l4,0 0,4 -4,0 0,-4z M140,216l4,0 0,4 -4,0 0,-4z M144,216l4,0 0,4 -4,0 0,-4z M152,216l4,0 0,4 -4,0 0,-4z M156,216l4,0 0,4 -4,0 0,-4z M164,216l4,0 0,4 -4,0 0,-4z M176,216l4,0 0,4 -4,0 0,-4z M180,216l4,0 0,4 -4,0 0,-4z M192,216l4,0 0,4 -4,0 0,-4z M196,216l4,0 0,4 -4,0 0,-4z M204,216l4,0 0,4 -4,0 0,-4z M208,216l4,0 0,4 -4,0 0,-4z M216,216l4,0 0,4 -4,0 0,-4z M224,216l4,0 0,4 -4,0 0,-4z M228,216l4,0 0,4 -4,0 0,-4z M240,216l4,0 0,4 -4,0 0,-4z M0,220l4,0 0,4 -4,0 0,-4z M24,220l4,0 0,4 -4,0 0,-4z M36,220l4,0 0,4 -4,0 0,-4z M40,220l4,0 0,4 -4,0 0,-4z M44,220l4,0 0,4 -4,0 0,-4z M48,220l4,0 0,4 -4,0 0,-4z M60,220l4,0 0,4 -4,0 0,-4z M64,220l4,0 0,4 -4,0 0,-4z M76,220l4,0 0,4 -4,0 0,-4z M96,220l4,0 0,4 -4,0 0,-4z M104,220l4,0 0,4 -4,0 0,-4z M112,220l4,0 0,4 -4,0 0,-4z M128,220l4,0 0,4 -4,0 0,-4z M136,220l4,0 0,4 -4,0 0,-4z M144,220l4,0 0,4 -4,0 0,-4z M164,220l4,0 0,4 -4,0 0,-4z M168,220l4,0 0,4 -4,0 0,-4z M172,220l4,0 0,4 -4,0 0,-4z M176,220l4,0 0,4 -4,0 0,-4z M192,220l4,0 0,4 -4,0 0,-4z M200,220l4,0 0,4 -4,0 0,-4z M208,220l4,0 0,4 -4,0 0,-4z M224,220l4,0 0,4 -4,0 0,-4z M228,220l4,0 0,4 -4,0 0,-4z M232,220l4,0 0,4 -4,0 0,-4z M236,220l4,0 0,4 -4,0 0,-4z M240,220l4,0 0,4 -4,0 0,-4z M0,224l4,0 0,4 -4,0 0,-4z M8,224l4,0 0,4 -4,0 0,-4z M12,224l4,0 0,4 -4,0 0,-4z M16,224l4,0 0,4 -4,0 0,-4z M24,224l4,0 0,4 -4,0 0,-4z M48,224l4,0 0,4 -4,0 0,-4z M68,224l4,0 0,4 -4,0 0,-4z M72,224l4,0 0,4 -4,0 0,-4z M88,224l4,0 0,4 -4,0 0,-4z M92,224l4,0 0,4 -4,0 0,-4z M100,224l4,0 0,4 -4,0 0,-4z M104,224l4,0 0,4 -4,0 0,-4z M112,224l4,0 0,4 -4,0 0,-4z M116,224l4,0 0,4 -4,0 0,-4z M120,224l4,0 0,4 -4,0 0,-4z M124,224l4,0 0,4 -4,0 0,-4z M128,224l4,0 0,4 -4,0 0,-4z M136,224l4,0 0,4 -4,0 0,-4z M140,224l4,0 0,4 -4,0 0,-4z M144,224l4,0 0,4 -4,0 0,-4z M148,224l4,0 0,4 -4,0 0,-4z M152,224l4,0 0,4 -4,0 0,-4z M160,224l4,0 0,4 -4,0 0,-4z M168,224l4,0 0,4 -4,0 0,-4z M180,224l4,0 0,4 -4,0 0,-4z M188,224l4,0 0,4 -4,0 0,-4z M192,224l4,0 0,4 -4,0 0,-4z M196,224l4,0 0,4 -4,0 0,-4z M208,224l4,0 0,4 -4,0 0,-4z M212,224l4,0 0,4 -4,0 0,-4z M216,224l4,0 0,4 -4,0 0,-4z M220,224l4,0 0,4 -4,0 0,-4z M224,224l4,0 0,4 -4,0 0,-4z M236,224l4,0 0,4 -4,0 0,-4z M240,224l4,0 0,4 -4,0 0,-4z M0,228l4,0 0,4 -4,0 0,-4z M8,228l4,0 0,4 -4,0 0,-4z M12,228l4,0 0,4 -4,0 0,-4z M16,228l4,0 0,4 -4,0 0,-4z M24,228l4,0 0,4 -4,0 0,-4z M32,228l4,0 0,4 -4,0 0,-4z M36,228l4,0 0,4 -4,0 0,-4z M40,228l4,0 0,4 -4,0 0,-4z M48,228l4,0 0,4 -4,0 0,-4z M56,228l4,0 0,4 -4,0 0,-4z M60,228l4,0 0,4 -4,0 0,-4z M80,228l4,0 0,4 -4,0 0,-4z M84,228l4,0 0,4 -4,0 0,-4z M88,228l4,0 0,4 -4,0 0,-4z M100,228l4,0 0,4 -4,0 0,-4z M108,228l4,0 0,4 -4,0 0,-4z M112,228l4,0 0,4 -4,0 0,-4z M116,228l4,0 0,4 -4,0 0,-4z M140,228l4,0 0,4 -4,0 0,-4z M148,228l4,0 0,4 -4,0 0,-4z M156,228l4,0 0,4 -4,0 0,-4z M160,228l4,0 0,4 -4,0 0,-4z M196,228l4,0 0,4 -4,0 0,-4z M208,228l4,0 0,4 -4,0 0,-4z M216,228l4,0 0,4 -4,0 0,-4z M220,228l4,0 0,4 -4,0 0,-4z M228,228l4,0 0,4 -4,0 0,-4z M236,228l4,0 0,4 -4,0 0,-4z M0,232l4,0 0,4 -4,0 0,-4z M8,232l4,0 0,4 -4,0 0,-4z M12,232l4,0 0,4 -4,0 0,-4z M16,232l4,0 0,4 -4,0 0,-4z M24,232l4,0 0,4 -4,0 0,-4z M36,232l4,0 0,4 -4,0 0,-4z M44,232l4,0 0,4 -4,0 0,-4z M48,232l4,0 0,4 -4,0 0,-4z M52,232l4,0 0,4 -4,0 0,-4z M60,232l4,0 0,4 -4,0 0,-4z M64,232l4,0 0,4 -4,0 0,-4z M68,232l4,0 0,4 -4,0 0,-4z M72,232l4,0 0,4 -4,0 0,-4z M76,232l4,0 0,4 -4,0 0,-4z M84,232l4,0 0,4 -4,0 0,-4z M92,232l4,0 0,4 -4,0 0,-4z M100,232l4,0 0,4 -4,0 0,-4z M108,232l4,0 0,4 -4,0 0,-4z M116,232l4,0 0,4 -4,0 0,-4z M120,232l4,0 0,4 -4,0 0,-4z M124,232l4,0 0,4 -4,0 0,-4z M128,232l4,0 0,4 -4,0 0,-4z M136,232l4,0 0,4 -4,0 0,-4z M140,232l4,0 0,4 -4,0 0,-4z M144,232l4,0 0,4 -4,0 0,-4z M148,232l4,0 0,4 -4,0 0,-4z M172,232l4,0 0,4 -4,0 0,-4z M176,232l4,0 0,4 -4,0 0,-4z M184,232l4,0 0,4 -4,0 0,-4z M188,232l4,0 0,4 -4,0 0,-4z M192,232l4,0 0,4 -4,0 0,-4z M224,232l4,0 0,4 -4,0 0,-4z M232,232l4,0 0,4 -4,0 0,-4z M240,232l4,0 0,4 -4,0 0,-4z M0,236l4,0 0,4 -4,0 0,-4z M24,236l4,0 0,4 -4,0 0,-4z M32,236l4,0 0,4 -4,0 0,-4z M36,236l4,0 0,4 -4,0 0,-4z M44,236l4,0 0,4 -4,0 0,-4z M60,236l4,0 0,4 -4,0 0,-4z M72,236l4,0 0,4 -4,0 0,-4z M84,236l4,0 0,4 -4,0 0,-4z M88,236l4,0 0,4 -4,0 0,-4z M92,236l4,0 0,4 -4,0 0,-4z M96,236l4,0 0,4 -4,0 0,-4z M104,236l4,0 0,4 -4,0 0,-4z M108,236l4,0 0,4 -4,0 0,-4z M112,236l4,0 0,4 -4,0 0,-4z M120,236l4,0 0,4 -4,0 0,-4z M124,236l4,0 0,4 -4,0 0,-4z M132,236l4,0 0,4 -4,0 0,-4z M160,236l4,0 0,4 -4,0 0,-4z M164,236l4,0 0,4 -4,0 0,-4z M172,236l4,0 0,4 -4,0 0,-4z M192,236l4,0 0,4 -4,0 0,-4z M204,236l4,0 0,4 -4,0 0,-4z M208,236l4,0 0,4 -4,0 0,-4z M212,236l4,0 0,4 -4,0 0,-4z M228,236l4,0 0,4 -4,0 0,-4z M0,240l4,0 0,4 -4,0 0,-4z M4,240l4,0 0,4 -4,0 0,-4z M8,240l4,0 0,4 -4,0 0,-4z M12,240l4,0 0,4 -4,0 0,-4z M16,240l4,0 0,4 -4,0 0,-4z M20,240l4,0 0,4 -4,0 0,-4z M24,240l4,0 0,4 -4,0 0,-4z M32,240l4,0 0,4 -4,0 0,-4z M36,240l4,0 0,4 -4,0 0,-4z M44,240l4,0 0,4 -4,0 0,-4z M48,240l4,0 0,4 -4,0 0,-4z M56,240l4,0 0,4 -4,0 0,-4z M60,240l4,0 0,4 -4,0 0,-4z M72,240l4,0 0,4 -4,0 0,-4z M88,240l4,0 0,4 -4,0 0,-4z M92,240l4,0 0,4 -4,0 0,-4z M104,240l4,0 0,4 -4,0 0,-4z M108,240l4,0 0,4 -4,0 0,-4z M112,240l4,0 0,4 -4,0 0,-4z M116,240l4,0 0,4 -4,0 0,-4z M120,240l4,0 0,4 -4,0 0,-4z M128,240l4,0 0,4 -4,0 0,-4z M132,240l4,0 0,4 -4,0 0,-4z M140,240l4,0 0,4 -4,0 0,-4z M160,240l4,0 0,4 -4,0 0,-4z M164,240l4,0 0,4 -4,0 0,-4z M168,240l4,0 0,4 -4,0 0,-4z M176,240l4,0 0,4 -4,0 0,-4z M184,240l4,0 0,4 -4,0 0,-4z M192,240l4,0 0,4 -4,0 0,-4z M200,240l4,0 0,4 -4,0 0,-4z M208,240l4,0 0,4 -4,0 0,-4z M220,240l4,0 0,4 -4,0 0,-4z M224,240l4,0 0,4 -4,0 0,-4z M228,240l4,0 0,4 -4,0 0,-4z M236,240l4,0 0,4 -4,0 0,-4z M240,240l4,0 0,4 -4,0 0,-4z " stroke="#000000" fill="black" stroke-opacity="0"></path></svg>