<?xml version="1.0" encoding="utf-8"?><svg xmlns="http://www.w3.org/2000/svg" xmlns:xlink="http://www.w3.org/1999/xlink"><symbol viewBox="0 0 28 28" id="card-calendar" xmlns="http://www.w3.org/2000/svg">
    <path fill-rule="evenodd" clip-rule="evenodd" d="M8.75 2.5a1 1 0 0 1 1 1V7a1 1 0 0 1-2 0V3.5a1 1 0 0 1 1-1zm10.5 0a1 1 0 0 1 1 1V7a1 1 0 1 1-2 0V3.5a1 1 0 0 1 1-1z"/>
    <path fill-rule="evenodd" clip-rule="evenodd" d="M7 6.25a2.5 2.5 0 0 0-2.5 2.5V21A2.5 2.5 0 0 0 7 23.5h11.384a2.5 2.5 0 0 0 1.767-.732l2.617-2.617a2.5 2.5 0 0 0 .732-1.767V8.75a2.5 2.5 0 0 0-2.5-2.5H7zm-3.182-.682A4.5 4.5 0 0 1 7 4.25h14a4.5 4.5 0 0 1 4.5 4.5v9.634a4.5 4.5 0 0 1-1.318 3.182l-2.616 2.616a4.5 4.5 0 0 1-3.182 1.318H7A4.5 4.5 0 0 1 2.5 21V8.75a4.5 4.5 0 0 1 1.318-3.182z"/>
    <path fill-rule="evenodd" clip-rule="evenodd" d="M18.06 18.06a3.334 3.334 0 0 1 2.357-.977H24.5a1 1 0 1 1 0 2h-4.083a1.334 1.334 0 0 0-1.334 1.334V24.5a1 1 0 0 1-2 0v-4.083c0-.884.352-1.732.977-2.357z"/>
</symbol><symbol viewBox="0 0 28 28" id="card-users" xmlns="http://www.w3.org/2000/svg">
    <g clip-path="url(#bclip0_29606_175680)">
        <g clip-path="url(#bclip1_29606_175680)">
            <path d="M16.053 12.818a2.903 2.903 0 1 1-4.107 4.106 2.903 2.903 0 0 1 4.107-4.106zm6.37-6.968a2.903 2.903 0 1 1-4.105 4.105 2.903 2.903 0 0 1 4.106-4.105m-1.456 8.44c1.78 0 3.484.619 4.645 1.548M9.682 5.85a2.903 2.903 0 1 1-4.106 4.105A2.903 2.903 0 0 1 9.682 5.85m-7.296 9.988c1.162-.929 2.865-1.548 4.646-1.548m12.3 8.71c-1.353-1.046-3.297-1.742-5.332-1.742-2.035 0-3.979.696-5.332 1.742" stroke-width="2px" stroke-linecap="round" stroke-linejoin="round"/>
        </g>
    </g>
    <defs>
        <clipPath id="bclip0_29606_175680">
            <path d="M0 0H28V28H0z"/>
        </clipPath>
        <clipPath id="bclip1_29606_175680">
            <path d="M0 0H28V28H0z"/>
        </clipPath>
    </defs>
</symbol><symbol viewBox="0 0 157 28" id="logo" xmlns="http://www.w3.org/2000/svg">
    <g clip-path="url(#dfull_logo_svg__clip0_5161_199826)">
        <path fill-rule="evenodd" clip-rule="evenodd" d="M14.0179 0C14.0179 7.74185 7.74185 14.0179 0 14.0179C0 6.276 6.276 0 14.0179 0ZM14.0179 28.0357C6.276 28.0357 0 21.7597 0 14.0179C7.74185 14.0179 14.0179 20.2939 14.0179 28.0357ZM28.0357 14.0179C28.0357 21.7597 21.7597 28.0357 14.0179 28.0357C14.0179 20.2939 20.2939 14.0179 28.0357 14.0179ZM26.8675 1.16818C26.8675 7.61969 21.6375 12.8497 15.186 12.8497C15.186 6.39817 20.416 1.16818 26.8675 1.16818Z"/>
        <path d="M47.3524 27.8252C46.1562 27.8252 44.9507 27.6477 43.7358 27.2925C42.5396 26.9561 41.5678 26.5075 40.8201 25.9468L42.3901 22.7507C42.9882 23.162 43.661 23.4797 44.4087 23.704C45.175 23.947 45.9694 24.0684 46.7917 24.0684C47.7449 24.0684 48.5206 23.9282 49.1187 23.6479C49.7168 23.3675 50.156 22.947 50.4364 22.3863C50.7354 21.8256 50.8849 21.1247 50.8849 20.2836V17.8165L51.726 17.9847C51.6139 18.5641 51.2962 19.1061 50.7728 19.6107C50.2682 20.1154 49.642 20.5173 48.8944 20.8163C48.1468 21.1154 47.3618 21.2649 46.5394 21.2649C45.1937 21.2649 43.9882 20.9565 42.9228 20.3397C41.8574 19.7042 41.0164 18.8351 40.3996 17.7324C39.8015 16.6109 39.5024 15.3213 39.5024 13.8634C39.5024 12.3682 39.8015 11.0412 40.3996 9.88235C41.0164 8.72357 41.8481 7.81711 42.8948 7.16289C43.9414 6.50875 45.1189 6.18164 46.4273 6.18164C46.9693 6.18164 47.4926 6.2471 47.9973 6.37789C48.5206 6.49003 48.9972 6.65825 49.4271 6.88253C49.8757 7.10682 50.2682 7.35914 50.6046 7.6395C50.9597 7.91986 51.2494 8.22825 51.4737 8.56468C51.698 8.90111 51.8382 9.23753 51.8942 9.57396L50.969 9.85432L51.1373 6.49003H55.4267V20.1434C55.4267 21.3584 55.2396 22.4424 54.866 23.3956C54.5107 24.3488 53.978 25.1525 53.268 25.8066C52.5764 26.4609 51.7353 26.9561 50.7448 27.2925C49.7542 27.6477 48.6234 27.8252 47.3524 27.8252ZM47.4646 17.7604C48.1935 17.7604 48.8196 17.6016 49.343 17.2838C49.885 16.9661 50.2962 16.5175 50.5766 15.9381C50.8756 15.3587 51.0251 14.6859 51.0251 13.9195C51.0251 13.1159 50.8756 12.4243 50.5766 11.8449C50.2962 11.2655 49.885 10.8169 49.343 10.4991C48.8196 10.1627 48.1935 9.9945 47.4646 9.9945C46.773 9.9945 46.1656 10.1627 45.6423 10.4991C45.1189 10.8169 44.7078 11.2655 44.4087 11.8449C44.1283 12.4243 43.9882 13.1065 43.9882 13.8915C43.9882 14.6765 44.1283 15.3587 44.4087 15.9381C44.7078 16.5175 45.1189 16.9661 45.6423 17.2838C46.1656 17.6016 46.773 17.7604 47.4646 17.7604Z"/>
        <path d="M65.8535 21.6574C64.2085 21.6574 62.7696 21.3303 61.536 20.6761C60.3214 20.022 59.3773 19.1248 58.7044 17.9847C58.0505 16.8259 57.7231 15.5082 57.7231 14.0316C57.7231 12.8729 57.9103 11.8168 58.2839 10.8636C58.6574 9.89175 59.181 9.06 59.8539 8.36843C60.5456 7.67692 61.3489 7.14425 62.2649 6.77039C63.1992 6.37789 64.2183 6.18164 65.3208 6.18164C66.3673 6.18164 67.3205 6.36857 68.1805 6.74235C69.0405 7.11621 69.7876 7.6395 70.4233 8.31236C71.059 8.98521 71.5447 9.7796 71.8812 10.6954C72.2176 11.6112 72.3767 12.6112 72.3578 13.6952L72.3297 14.9288H60.4987L59.8258 12.3775H68.6571L68.1805 12.8822V12.3215C68.1433 11.8542 67.9933 11.4524 67.7319 11.1159C67.4887 10.7609 67.1621 10.4805 66.7506 10.2749C66.3581 10.0693 65.9096 9.96646 65.4049 9.96646C64.6571 9.96646 64.0221 10.116 63.4985 10.415C62.9939 10.6954 62.6105 11.1066 62.349 11.6486C62.0876 12.1907 61.9565 12.8635 61.9565 13.6672C61.9565 14.4709 62.1247 15.1811 62.4612 15.7979C62.8165 16.4147 63.3212 16.8913 63.9751 17.2277C64.648 17.5641 65.4421 17.7324 66.3581 17.7324C66.9749 17.7324 67.5356 17.6389 68.0403 17.452C68.5449 17.2651 69.0867 16.9474 69.6664 16.4988L71.769 19.4706C71.1894 19.9566 70.5726 20.3677 69.9187 20.7041C69.2647 21.0219 68.5919 21.2555 67.9001 21.405C67.2272 21.5732 66.5453 21.6574 65.8535 21.6574Z"/>
        <path d="M75.8879 21.3771V2.7334H80.4016V21.3771H75.8879ZM73.2525 10.4432V6.49018H83.2613V10.4432H73.2525Z"/>
        <path d="M91.9677 27.8257C90.7712 27.8257 89.5657 27.6482 88.3511 27.293C87.1546 26.9566 86.1825 26.508 85.4354 25.9473L87.0054 22.7512C87.6032 23.1624 88.2761 23.4802 89.0239 23.7045C89.79 23.9475 90.5841 24.0689 91.407 24.0689C92.3602 24.0689 93.1354 23.9287 93.7339 23.6484C94.3318 23.368 94.7713 22.9475 95.0516 22.3868C95.3502 21.8261 95.5002 21.1252 95.5002 20.2841V17.8169L96.3412 17.9852C96.2291 18.5646 95.9109 19.1066 95.388 19.6112C94.8834 20.1159 94.2568 20.5178 93.5096 20.8168C92.7618 21.1158 91.9768 21.2653 91.1546 21.2653C89.8089 21.2653 88.6034 20.957 87.538 20.3402C86.4727 19.7047 85.6316 18.8356 85.0148 17.7328C84.4163 16.6114 84.1177 15.3218 84.1177 13.8639C84.1177 12.3687 84.4163 11.0417 85.0148 9.88284C85.6316 8.72406 86.4629 7.81759 87.51 7.16338C88.5564 6.50924 89.7339 6.18213 91.0425 6.18213C91.5843 6.18213 92.1079 6.24759 92.6125 6.37838C93.1354 6.49052 93.612 6.65874 94.0423 6.88302C94.4909 7.10731 94.8834 7.35963 95.2198 7.63999C95.5745 7.92034 95.8646 8.22874 96.0889 8.56517C96.3132 8.90159 96.4534 9.23802 96.5095 9.57445L95.5843 9.85481L95.7525 6.49052H100.042V20.1439C100.042 21.3588 99.8548 22.4428 99.4812 23.3961C99.1259 24.3493 98.5932 25.153 97.8832 25.8071C97.1914 26.4613 96.3504 26.9566 95.36 27.293C94.3689 27.6482 93.2384 27.8257 91.9677 27.8257ZM92.0798 17.7609C92.8087 17.7609 93.4346 17.6021 93.9582 17.2843C94.5 16.9666 94.9114 16.518 95.1918 15.9386C95.4904 15.3592 95.6404 14.6863 95.6404 13.92C95.6404 13.1163 95.4904 12.4248 95.1918 11.8453C94.9114 11.266 94.5 10.8174 93.9582 10.4996C93.4346 10.1632 92.8087 9.99499 92.0798 9.99499C91.388 9.99499 90.7804 10.1632 90.2575 10.4996C89.7339 10.8174 89.3225 11.266 89.0239 11.8453C88.7436 12.4248 88.6034 13.107 88.6034 13.892C88.6034 14.677 88.7436 15.3592 89.0239 15.9386C89.3225 16.518 89.7339 16.9666 90.2575 17.2843C90.7804 17.6021 91.388 17.7609 92.0798 17.7609Z"/>
        <path d="M110.469 21.6578C108.824 21.6578 107.385 21.3308 106.152 20.6766C104.936 20.0225 103.993 19.1253 103.32 17.9852C102.665 16.8264 102.339 15.5087 102.339 14.0321C102.339 12.8733 102.525 11.8173 102.9 10.8641C103.273 9.89224 103.797 9.06048 104.47 8.36891C105.161 7.67741 105.965 7.14474 106.881 6.77088C107.815 6.37838 108.833 6.18213 109.937 6.18213C110.983 6.18213 111.936 6.36906 112.796 6.74284C113.655 7.1167 114.403 7.63999 115.039 8.31284C115.674 8.9857 116.16 9.78009 116.497 10.6959C116.833 11.6117 116.992 12.6117 116.974 13.6957L116.945 14.9293H105.114L104.442 12.378H113.273L112.796 12.8827V12.322C112.758 11.8547 112.609 11.4528 112.348 11.1164C112.104 10.7613 111.777 10.481 111.366 10.2753C110.974 10.0698 110.525 9.96695 110.021 9.96695C109.273 9.96695 108.637 10.1165 108.114 10.4155C107.61 10.6959 107.226 11.1071 106.965 11.6491C106.703 12.1912 106.572 12.864 106.572 13.6677C106.572 14.4714 106.74 15.1816 107.077 15.7984C107.432 16.4152 107.936 16.8918 108.591 17.2282C109.264 17.5646 110.058 17.7328 110.974 17.7328C111.591 17.7328 112.151 17.6394 112.656 17.4525C113.161 17.2656 113.702 16.9478 114.282 16.4993L116.385 19.4711C115.805 19.9571 115.188 20.3682 114.534 20.7046C113.88 21.0224 113.207 21.256 112.516 21.4055C111.843 21.5737 111.16 21.6578 110.469 21.6578Z"/>
        <path d="M119.241 21.3773V6.49032H123.531L123.671 9.18175L123.054 9.23782C123.259 8.75189 123.54 8.32203 123.895 7.94817C124.25 7.57439 124.643 7.266 125.073 7.023C125.521 6.76135 125.989 6.5651 126.474 6.43425C126.96 6.28475 127.447 6.20996 127.932 6.20996C128.68 6.20996 129.343 6.3221 129.923 6.54639C130.521 6.77067 131.035 7.13514 131.465 7.63978C131.913 8.14443 132.269 8.81728 132.53 9.65835L131.857 9.54621L132.054 9.15371C132.315 8.70514 132.633 8.30332 133.007 7.94817C133.399 7.57439 133.829 7.25667 134.296 6.99496C134.764 6.73332 135.24 6.53707 135.726 6.40621C136.231 6.27542 136.717 6.20996 137.184 6.20996C138.362 6.20996 139.343 6.44364 140.128 6.91085C140.913 7.37814 141.502 8.06971 141.894 8.9855C142.287 9.88264 142.483 10.9947 142.483 12.3217V21.3773H137.969V12.6582C137.969 11.7797 137.782 11.1256 137.408 10.6957C137.053 10.2471 136.511 10.0228 135.782 10.0228C135.39 10.0228 135.025 10.0883 134.689 10.2191C134.371 10.3312 134.091 10.5088 133.848 10.7517C133.624 10.976 133.446 11.2377 133.315 11.5367C133.184 11.8358 133.119 12.1722 133.119 12.546V21.3773H128.605V12.6301C128.605 11.7891 128.409 11.1442 128.016 10.6957C127.643 10.2471 127.11 10.0228 126.418 10.0228C126.045 10.0228 125.689 10.0883 125.353 10.2191C125.035 10.3312 124.755 10.5088 124.512 10.7517C124.288 10.976 124.11 11.2377 123.979 11.5367C123.848 11.8358 123.783 12.1722 123.783 12.546V21.3773H119.241Z"/>
        <path d="M150.696 21.6574C149.275 21.6574 148.004 21.4331 146.883 20.9845C145.761 20.5173 144.864 19.8818 144.191 19.0781L146.939 16.7231C147.518 17.3025 148.172 17.7324 148.901 18.0127C149.63 18.2744 150.321 18.4052 150.976 18.4052C151.219 18.4052 151.434 18.3772 151.621 18.3211C151.807 18.265 151.966 18.1903 152.097 18.0968C152.247 17.9847 152.359 17.8632 152.434 17.7324C152.508 17.5829 152.546 17.4146 152.546 17.2277C152.546 16.8539 152.387 16.5736 152.069 16.3866C151.919 16.2932 151.649 16.1811 151.256 16.0502C150.864 15.9007 150.359 15.7512 149.742 15.6016C148.864 15.3774 148.097 15.1064 147.444 14.7886C146.808 14.4709 146.284 14.1064 145.874 13.6952C145.499 13.3214 145.21 12.8916 145.004 12.4056C144.817 11.9196 144.724 11.3776 144.724 10.7795C144.724 9.86371 144.995 9.06 145.537 8.36843C146.098 7.67692 146.827 7.14425 147.724 6.77039C148.621 6.37789 149.592 6.18164 150.64 6.18164C151.462 6.18164 152.238 6.27514 152.967 6.462C153.714 6.64893 154.406 6.91057 155.041 7.247C155.695 7.58343 156.275 7.98532 156.779 8.45253L154.396 11.1159C154.078 10.7982 153.705 10.5179 153.275 10.2749C152.845 10.0132 152.415 9.80764 151.985 9.65807C151.555 9.48985 151.153 9.40575 150.78 9.40575C150.499 9.40575 150.247 9.43378 150.023 9.48986C149.817 9.52728 149.639 9.602 149.49 9.71414C149.359 9.80764 149.256 9.92911 149.182 10.0786C149.107 10.2095 149.07 10.359 149.07 10.5272C149.07 10.7328 149.116 10.9197 149.21 11.0879C149.322 11.2375 149.471 11.3776 149.658 11.5084C149.827 11.6019 150.116 11.7234 150.527 11.8729C150.957 12.0225 151.518 12.1907 152.21 12.3775C153.088 12.6205 153.836 12.9009 154.452 13.2186C155.087 13.5177 155.592 13.8728 155.966 14.284C156.284 14.6017 156.508 14.9755 156.639 15.4054C156.789 15.8166 156.864 16.2652 156.864 16.7511C156.864 17.7043 156.592 18.5548 156.051 19.3024C155.527 20.0313 154.798 20.6107 153.864 21.0406C152.948 21.4518 151.891 21.6574 150.696 21.6574Z"/>
    </g>
    <defs>
        <clipPath id="dfull_logo_svg__clip0_5161_199826">
            <rect width="157" height="28"/>
        </clipPath>
    </defs>
</symbol><symbol viewBox="0 0 28 28" id="logo-mobile" xmlns="http://www.w3.org/2000/svg">
    <path fill-rule="evenodd" clip-rule="evenodd" d="M14 2c0 6.627-5.373 12-12 12C2 7.373 7.373 2 14 2zm0 24C7.373 26 2 20.627 2 14c6.627 0 12 5.373 12 12zm12-12c0 6.627-5.373 12-12 12 0-6.627 5.373-12 12-12zm-11-1c5.523 0 10-4.477 10-10-5.523 0-10 4.477-10 10z"/>
</symbol><symbol class="ego656503599" viewBox="0 0 16 16" id="modal-arrow" xmlns="http://www.w3.org/2000/svg">
    <path fill-rule="evenodd" clip-rule="evenodd" d="M10.2122 14.3407C10.5384 14.0854 10.5959 13.614 10.3406 13.2878L6.20237 8.00003L10.3406 2.71227C10.5959 2.38607 10.5384 1.91469 10.2122 1.6594C9.88604 1.40412 9.41465 1.46161 9.15937 1.7878L4.65937 7.5378C4.44688 7.80932 4.44688 8.19074 4.65937 8.46226L9.15937 14.2123C9.41465 14.5385 9.88604 14.5959 10.2122 14.3407Z"/>
</symbol><symbol viewBox="0 0 16 16" id="modal-close" xmlns="http://www.w3.org/2000/svg">
    <path fill-rule="evenodd" clip-rule="evenodd" d="M2.71966 2.71968C3.01255 2.42678 3.48743 2.42677 3.78032 2.71966L8.00002 6.93925L12.2197 2.71967C12.5126 2.42677 12.9874 2.42678 13.2803 2.71967C13.5732 3.01257 13.5732 3.48744 13.2803 3.78033L9.06068 7.99991L13.2803 12.2197C13.5732 12.5126 13.5732 12.9874 13.2803 13.2803C12.9874 13.5732 12.5126 13.5732 12.2197 13.2803L8.00002 9.06057L3.78033 13.2803C3.48744 13.5732 3.01257 13.5732 2.71967 13.2803C2.42678 12.9874 2.42677 12.5126 2.71967 12.2197L6.93936 7.99991L2.71968 3.78034C2.42678 3.48745 2.42677 3.01257 2.71966 2.71968Z"/>
</symbol><symbol viewBox="0 0 16 16" id="modal-deksp" xmlns="http://www.w3.org/2000/svg">
    <path fill-rule="evenodd" clip-rule="evenodd" d="M1.5 6.8C1.5 5.11984 1.5 4.27976 1.82698 3.63803C2.1146 3.07354 2.57354 2.6146 3.13803 2.32698C3.77976 2 4.61984 2 6.3 2H9.7C11.3802 2 12.2202 2 12.862 2.32698C13.4265 2.6146 13.8854 3.07354 14.173 3.63803C14.5 4.27976 14.5 5.11984 14.5 6.8V11.5H15.25C15.6642 11.5 16 11.8358 16 12.25C16 12.6642 15.6642 13 15.25 13H0.75C0.335786 13 0 12.6642 0 12.25C0 11.8358 0.335786 11.5 0.75 11.5H1.5V6.8ZM3 11.5H13V5.9C13 5.05992 13 4.63988 12.8365 4.31901C12.6927 4.03677 12.4632 3.8073 12.181 3.66349C11.8601 3.5 11.4401 3.5 10.6 3.5H5.4C4.55992 3.5 4.13988 3.5 3.81901 3.66349C3.53677 3.8073 3.3073 4.03677 3.16349 4.31901C3 4.63988 3 5.05992 3 5.9V11.5Z"/>
</symbol><symbol viewBox="0 0 244 244" preserveAspectRatio="xMinYMin meet" id="modal-qr" xmlns="http://www.w3.org/2000/svg">
    <rect width="100%" height="100%" cx="0" cy="0" fill-opacity="0"/>
    <path d="M0,0l4,0 0,4 -4,0 0,-4z M4,0l4,0 0,4 -4,0 0,-4z M8,0l4,0 0,4 -4,0 0,-4z M12,0l4,0 0,4 -4,0 0,-4z M16,0l4,0 0,4 -4,0 0,-4z M20,0l4,0 0,4 -4,0 0,-4z M24,0l4,0 0,4 -4,0 0,-4z M36,0l4,0 0,4 -4,0 0,-4z M40,0l4,0 0,4 -4,0 0,-4z M44,0l4,0 0,4 -4,0 0,-4z M48,0l4,0 0,4 -4,0 0,-4z M52,0l4,0 0,4 -4,0 0,-4z M56,0l4,0 0,4 -4,0 0,-4z M64,0l4,0 0,4 -4,0 0,-4z M68,0l4,0 0,4 -4,0 0,-4z M76,0l4,0 0,4 -4,0 0,-4z M80,0l4,0 0,4 -4,0 0,-4z M88,0l4,0 0,4 -4,0 0,-4z M92,0l4,0 0,4 -4,0 0,-4z M112,0l4,0 0,4 -4,0 0,-4z M116,0l4,0 0,4 -4,0 0,-4z M124,0l4,0 0,4 -4,0 0,-4z M136,0l4,0 0,4 -4,0 0,-4z M140,0l4,0 0,4 -4,0 0,-4z M144,0l4,0 0,4 -4,0 0,-4z M152,0l4,0 0,4 -4,0 0,-4z M160,0l4,0 0,4 -4,0 0,-4z M164,0l4,0 0,4 -4,0 0,-4z M168,0l4,0 0,4 -4,0 0,-4z M176,0l4,0 0,4 -4,0 0,-4z M180,0l4,0 0,4 -4,0 0,-4z M184,0l4,0 0,4 -4,0 0,-4z M188,0l4,0 0,4 -4,0 0,-4z M192,0l4,0 0,4 -4,0 0,-4z M204,0l4,0 0,4 -4,0 0,-4z M208,0l4,0 0,4 -4,0 0,-4z M216,0l4,0 0,4 -4,0 0,-4z M220,0l4,0 0,4 -4,0 0,-4z M224,0l4,0 0,4 -4,0 0,-4z M228,0l4,0 0,4 -4,0 0,-4z M232,0l4,0 0,4 -4,0 0,-4z M236,0l4,0 0,4 -4,0 0,-4z M240,0l4,0 0,4 -4,0 0,-4z M0,4l4,0 0,4 -4,0 0,-4z M24,4l4,0 0,4 -4,0 0,-4z M32,4l4,0 0,4 -4,0 0,-4z M40,4l4,0 0,4 -4,0 0,-4z M44,4l4,0 0,4 -4,0 0,-4z M48,4l4,0 0,4 -4,0 0,-4z M52,4l4,0 0,4 -4,0 0,-4z M64,4l4,0 0,4 -4,0 0,-4z M76,4l4,0 0,4 -4,0 0,-4z M84,4l4,0 0,4 -4,0 0,-4z M92,4l4,0 0,4 -4,0 0,-4z M96,4l4,0 0,4 -4,0 0,-4z M100,4l4,0 0,4 -4,0 0,-4z M112,4l4,0 0,4 -4,0 0,-4z M120,4l4,0 0,4 -4,0 0,-4z M148,4l4,0 0,4 -4,0 0,-4z M152,4l4,0 0,4 -4,0 0,-4z M156,4l4,0 0,4 -4,0 0,-4z M164,4l4,0 0,4 -4,0 0,-4z M168,4l4,0 0,4 -4,0 0,-4z M172,4l4,0 0,4 -4,0 0,-4z M180,4l4,0 0,4 -4,0 0,-4z M188,4l4,0 0,4 -4,0 0,-4z M196,4l4,0 0,4 -4,0 0,-4z M204,4l4,0 0,4 -4,0 0,-4z M208,4l4,0 0,4 -4,0 0,-4z M216,4l4,0 0,4 -4,0 0,-4z M240,4l4,0 0,4 -4,0 0,-4z M0,8l4,0 0,4 -4,0 0,-4z M8,8l4,0 0,4 -4,0 0,-4z M12,8l4,0 0,4 -4,0 0,-4z M16,8l4,0 0,4 -4,0 0,-4z M24,8l4,0 0,4 -4,0 0,-4z M32,8l4,0 0,4 -4,0 0,-4z M36,8l4,0 0,4 -4,0 0,-4z M44,8l4,0 0,4 -4,0 0,-4z M48,8l4,0 0,4 -4,0 0,-4z M56,8l4,0 0,4 -4,0 0,-4z M64,8l4,0 0,4 -4,0 0,-4z M72,8l4,0 0,4 -4,0 0,-4z M80,8l4,0 0,4 -4,0 0,-4z M84,8l4,0 0,4 -4,0 0,-4z M88,8l4,0 0,4 -4,0 0,-4z M100,8l4,0 0,4 -4,0 0,-4z M108,8l4,0 0,4 -4,0 0,-4z M116,8l4,0 0,4 -4,0 0,-4z M120,8l4,0 0,4 -4,0 0,-4z M124,8l4,0 0,4 -4,0 0,-4z M132,8l4,0 0,4 -4,0 0,-4z M140,8l4,0 0,4 -4,0 0,-4z M168,8l4,0 0,4 -4,0 0,-4z M172,8l4,0 0,4 -4,0 0,-4z M176,8l4,0 0,4 -4,0 0,-4z M180,8l4,0 0,4 -4,0 0,-4z M184,8l4,0 0,4 -4,0 0,-4z M188,8l4,0 0,4 -4,0 0,-4z M192,8l4,0 0,4 -4,0 0,-4z M200,8l4,0 0,4 -4,0 0,-4z M204,8l4,0 0,4 -4,0 0,-4z M208,8l4,0 0,4 -4,0 0,-4z M216,8l4,0 0,4 -4,0 0,-4z M224,8l4,0 0,4 -4,0 0,-4z M228,8l4,0 0,4 -4,0 0,-4z M232,8l4,0 0,4 -4,0 0,-4z M240,8l4,0 0,4 -4,0 0,-4z M0,12l4,0 0,4 -4,0 0,-4z M8,12l4,0 0,4 -4,0 0,-4z M12,12l4,0 0,4 -4,0 0,-4z M16,12l4,0 0,4 -4,0 0,-4z M24,12l4,0 0,4 -4,0 0,-4z M40,12l4,0 0,4 -4,0 0,-4z M48,12l4,0 0,4 -4,0 0,-4z M64,12l4,0 0,4 -4,0 0,-4z M68,12l4,0 0,4 -4,0 0,-4z M80,12l4,0 0,4 -4,0 0,-4z M84,12l4,0 0,4 -4,0 0,-4z M96,12l4,0 0,4 -4,0 0,-4z M100,12l4,0 0,4 -4,0 0,-4z M108,12l4,0 0,4 -4,0 0,-4z M112,12l4,0 0,4 -4,0 0,-4z M116,12l4,0 0,4 -4,0 0,-4z M120,12l4,0 0,4 -4,0 0,-4z M124,12l4,0 0,4 -4,0 0,-4z M132,12l4,0 0,4 -4,0 0,-4z M136,12l4,0 0,4 -4,0 0,-4z M148,12l4,0 0,4 -4,0 0,-4z M152,12l4,0 0,4 -4,0 0,-4z M164,12l4,0 0,4 -4,0 0,-4z M168,12l4,0 0,4 -4,0 0,-4z M200,12l4,0 0,4 -4,0 0,-4z M208,12l4,0 0,4 -4,0 0,-4z M216,12l4,0 0,4 -4,0 0,-4z M224,12l4,0 0,4 -4,0 0,-4z M228,12l4,0 0,4 -4,0 0,-4z M232,12l4,0 0,4 -4,0 0,-4z M240,12l4,0 0,4 -4,0 0,-4z M0,16l4,0 0,4 -4,0 0,-4z M8,16l4,0 0,4 -4,0 0,-4z M12,16l4,0 0,4 -4,0 0,-4z M16,16l4,0 0,4 -4,0 0,-4z M24,16l4,0 0,4 -4,0 0,-4z M32,16l4,0 0,4 -4,0 0,-4z M36,16l4,0 0,4 -4,0 0,-4z M40,16l4,0 0,4 -4,0 0,-4z M44,16l4,0 0,4 -4,0 0,-4z M60,16l4,0 0,4 -4,0 0,-4z M68,16l4,0 0,4 -4,0 0,-4z M76,16l4,0 0,4 -4,0 0,-4z M80,16l4,0 0,4 -4,0 0,-4z M84,16l4,0 0,4 -4,0 0,-4z M88,16l4,0 0,4 -4,0 0,-4z M92,16l4,0 0,4 -4,0 0,-4z M96,16l4,0 0,4 -4,0 0,-4z M108,16l4,0 0,4 -4,0 0,-4z M112,16l4,0 0,4 -4,0 0,-4z M116,16l4,0 0,4 -4,0 0,-4z M120,16l4,0 0,4 -4,0 0,-4z M124,16l4,0 0,4 -4,0 0,-4z M128,16l4,0 0,4 -4,0 0,-4z M132,16l4,0 0,4 -4,0 0,-4z M136,16l4,0 0,4 -4,0 0,-4z M144,16l4,0 0,4 -4,0 0,-4z M152,16l4,0 0,4 -4,0 0,-4z M160,16l4,0 0,4 -4,0 0,-4z M164,16l4,0 0,4 -4,0 0,-4z M168,16l4,0 0,4 -4,0 0,-4z M172,16l4,0 0,4 -4,0 0,-4z M176,16l4,0 0,4 -4,0 0,-4z M188,16l4,0 0,4 -4,0 0,-4z M200,16l4,0 0,4 -4,0 0,-4z M204,16l4,0 0,4 -4,0 0,-4z M216,16l4,0 0,4 -4,0 0,-4z M224,16l4,0 0,4 -4,0 0,-4z M228,16l4,0 0,4 -4,0 0,-4z M232,16l4,0 0,4 -4,0 0,-4z M240,16l4,0 0,4 -4,0 0,-4z M0,20l4,0 0,4 -4,0 0,-4z M24,20l4,0 0,4 -4,0 0,-4z M32,20l4,0 0,4 -4,0 0,-4z M36,20l4,0 0,4 -4,0 0,-4z M40,20l4,0 0,4 -4,0 0,-4z M56,20l4,0 0,4 -4,0 0,-4z M68,20l4,0 0,4 -4,0 0,-4z M72,20l4,0 0,4 -4,0 0,-4z M80,20l4,0 0,4 -4,0 0,-4z M84,20l4,0 0,4 -4,0 0,-4z M100,20l4,0 0,4 -4,0 0,-4z M104,20l4,0 0,4 -4,0 0,-4z M108,20l4,0 0,4 -4,0 0,-4z M112,20l4,0 0,4 -4,0 0,-4z M128,20l4,0 0,4 -4,0 0,-4z M132,20l4,0 0,4 -4,0 0,-4z M140,20l4,0 0,4 -4,0 0,-4z M148,20l4,0 0,4 -4,0 0,-4z M152,20l4,0 0,4 -4,0 0,-4z M160,20l4,0 0,4 -4,0 0,-4z M164,20l4,0 0,4 -4,0 0,-4z M168,20l4,0 0,4 -4,0 0,-4z M176,20l4,0 0,4 -4,0 0,-4z M184,20l4,0 0,4 -4,0 0,-4z M188,20l4,0 0,4 -4,0 0,-4z M196,20l4,0 0,4 -4,0 0,-4z M200,20l4,0 0,4 -4,0 0,-4z M216,20l4,0 0,4 -4,0 0,-4z M240,20l4,0 0,4 -4,0 0,-4z M0,24l4,0 0,4 -4,0 0,-4z M4,24l4,0 0,4 -4,0 0,-4z M8,24l4,0 0,4 -4,0 0,-4z M12,24l4,0 0,4 -4,0 0,-4z M16,24l4,0 0,4 -4,0 0,-4z M20,24l4,0 0,4 -4,0 0,-4z M24,24l4,0 0,4 -4,0 0,-4z M32,24l4,0 0,4 -4,0 0,-4z M40,24l4,0 0,4 -4,0 0,-4z M48,24l4,0 0,4 -4,0 0,-4z M56,24l4,0 0,4 -4,0 0,-4z M64,24l4,0 0,4 -4,0 0,-4z M72,24l4,0 0,4 -4,0 0,-4z M80,24l4,0 0,4 -4,0 0,-4z M88,24l4,0 0,4 -4,0 0,-4z M96,24l4,0 0,4 -4,0 0,-4z M104,24l4,0 0,4 -4,0 0,-4z M112,24l4,0 0,4 -4,0 0,-4z M120,24l4,0 0,4 -4,0 0,-4z M128,24l4,0 0,4 -4,0 0,-4z M136,24l4,0 0,4 -4,0 0,-4z M144,24l4,0 0,4 -4,0 0,-4z M152,24l4,0 0,4 -4,0 0,-4z M160,24l4,0 0,4 -4,0 0,-4z M168,24l4,0 0,4 -4,0 0,-4z M176,24l4,0 0,4 -4,0 0,-4z M184,24l4,0 0,4 -4,0 0,-4z M192,24l4,0 0,4 -4,0 0,-4z M200,24l4,0 0,4 -4,0 0,-4z M208,24l4,0 0,4 -4,0 0,-4z M216,24l4,0 0,4 -4,0 0,-4z M220,24l4,0 0,4 -4,0 0,-4z M224,24l4,0 0,4 -4,0 0,-4z M228,24l4,0 0,4 -4,0 0,-4z M232,24l4,0 0,4 -4,0 0,-4z M236,24l4,0 0,4 -4,0 0,-4z M240,24l4,0 0,4 -4,0 0,-4z M32,28l4,0 0,4 -4,0 0,-4z M36,28l4,0 0,4 -4,0 0,-4z M40,28l4,0 0,4 -4,0 0,-4z M52,28l4,0 0,4 -4,0 0,-4z M60,28l4,0 0,4 -4,0 0,-4z M64,28l4,0 0,4 -4,0 0,-4z M68,28l4,0 0,4 -4,0 0,-4z M72,28l4,0 0,4 -4,0 0,-4z M84,28l4,0 0,4 -4,0 0,-4z M92,28l4,0 0,4 -4,0 0,-4z M100,28l4,0 0,4 -4,0 0,-4z M108,28l4,0 0,4 -4,0 0,-4z M112,28l4,0 0,4 -4,0 0,-4z M128,28l4,0 0,4 -4,0 0,-4z M136,28l4,0 0,4 -4,0 0,-4z M144,28l4,0 0,4 -4,0 0,-4z M148,28l4,0 0,4 -4,0 0,-4z M156,28l4,0 0,4 -4,0 0,-4z M160,28l4,0 0,4 -4,0 0,-4z M164,28l4,0 0,4 -4,0 0,-4z M176,28l4,0 0,4 -4,0 0,-4z M180,28l4,0 0,4 -4,0 0,-4z M184,28l4,0 0,4 -4,0 0,-4z M192,28l4,0 0,4 -4,0 0,-4z M196,28l4,0 0,4 -4,0 0,-4z M200,28l4,0 0,4 -4,0 0,-4z M208,28l4,0 0,4 -4,0 0,-4z M0,32l4,0 0,4 -4,0 0,-4z M4,32l4,0 0,4 -4,0 0,-4z M12,32l4,0 0,4 -4,0 0,-4z M24,32l4,0 0,4 -4,0 0,-4z M28,32l4,0 0,4 -4,0 0,-4z M36,32l4,0 0,4 -4,0 0,-4z M44,32l4,0 0,4 -4,0 0,-4z M48,32l4,0 0,4 -4,0 0,-4z M76,32l4,0 0,4 -4,0 0,-4z M88,32l4,0 0,4 -4,0 0,-4z M108,32l4,0 0,4 -4,0 0,-4z M112,32l4,0 0,4 -4,0 0,-4z M116,32l4,0 0,4 -4,0 0,-4z M120,32l4,0 0,4 -4,0 0,-4z M124,32l4,0 0,4 -4,0 0,-4z M128,32l4,0 0,4 -4,0 0,-4z M140,32l4,0 0,4 -4,0 0,-4z M144,32l4,0 0,4 -4,0 0,-4z M156,32l4,0 0,4 -4,0 0,-4z M160,32l4,0 0,4 -4,0 0,-4z M168,32l4,0 0,4 -4,0 0,-4z M172,32l4,0 0,4 -4,0 0,-4z M188,32l4,0 0,4 -4,0 0,-4z M192,32l4,0 0,4 -4,0 0,-4z M196,32l4,0 0,4 -4,0 0,-4z M216,32l4,0 0,4 -4,0 0,-4z M220,32l4,0 0,4 -4,0 0,-4z M224,32l4,0 0,4 -4,0 0,-4z M232,32l4,0 0,4 -4,0 0,-4z M236,32l4,0 0,4 -4,0 0,-4z M0,36l4,0 0,4 -4,0 0,-4z M4,36l4,0 0,4 -4,0 0,-4z M20,36l4,0 0,4 -4,0 0,-4z M28,36l4,0 0,4 -4,0 0,-4z M32,36l4,0 0,4 -4,0 0,-4z M36,36l4,0 0,4 -4,0 0,-4z M40,36l4,0 0,4 -4,0 0,-4z M48,36l4,0 0,4 -4,0 0,-4z M56,36l4,0 0,4 -4,0 0,-4z M60,36l4,0 0,4 -4,0 0,-4z M68,36l4,0 0,4 -4,0 0,-4z M76,36l4,0 0,4 -4,0 0,-4z M84,36l4,0 0,4 -4,0 0,-4z M88,36l4,0 0,4 -4,0 0,-4z M92,36l4,0 0,4 -4,0 0,-4z M124,36l4,0 0,4 -4,0 0,-4z M140,36l4,0 0,4 -4,0 0,-4z M148,36l4,0 0,4 -4,0 0,-4z M160,36l4,0 0,4 -4,0 0,-4z M164,36l4,0 0,4 -4,0 0,-4z M176,36l4,0 0,4 -4,0 0,-4z M180,36l4,0 0,4 -4,0 0,-4z M204,36l4,0 0,4 -4,0 0,-4z M212,36l4,0 0,4 -4,0 0,-4z M220,36l4,0 0,4 -4,0 0,-4z M224,36l4,0 0,4 -4,0 0,-4z M236,36l4,0 0,4 -4,0 0,-4z M240,36l4,0 0,4 -4,0 0,-4z M4,40l4,0 0,4 -4,0 0,-4z M12,40l4,0 0,4 -4,0 0,-4z M24,40l4,0 0,4 -4,0 0,-4z M28,40l4,0 0,4 -4,0 0,-4z M32,40l4,0 0,4 -4,0 0,-4z M36,40l4,0 0,4 -4,0 0,-4z M44,40l4,0 0,4 -4,0 0,-4z M52,40l4,0 0,4 -4,0 0,-4z M64,40l4,0 0,4 -4,0 0,-4z M80,40l4,0 0,4 -4,0 0,-4z M100,40l4,0 0,4 -4,0 0,-4z M104,40l4,0 0,4 -4,0 0,-4z M116,40l4,0 0,4 -4,0 0,-4z M120,40l4,0 0,4 -4,0 0,-4z M136,40l4,0 0,4 -4,0 0,-4z M144,40l4,0 0,4 -4,0 0,-4z M148,40l4,0 0,4 -4,0 0,-4z M156,40l4,0 0,4 -4,0 0,-4z M164,40l4,0 0,4 -4,0 0,-4z M176,40l4,0 0,4 -4,0 0,-4z M180,40l4,0 0,4 -4,0 0,-4z M184,40l4,0 0,4 -4,0 0,-4z M188,40l4,0 0,4 -4,0 0,-4z M192,40l4,0 0,4 -4,0 0,-4z M196,40l4,0 0,4 -4,0 0,-4z M204,40l4,0 0,4 -4,0 0,-4z M212,40l4,0 0,4 -4,0 0,-4z M224,40l4,0 0,4 -4,0 0,-4z M228,40l4,0 0,4 -4,0 0,-4z M232,40l4,0 0,4 -4,0 0,-4z M236,40l4,0 0,4 -4,0 0,-4z M240,40l4,0 0,4 -4,0 0,-4z M0,44l4,0 0,4 -4,0 0,-4z M12,44l4,0 0,4 -4,0 0,-4z M20,44l4,0 0,4 -4,0 0,-4z M28,44l4,0 0,4 -4,0 0,-4z M32,44l4,0 0,4 -4,0 0,-4z M36,44l4,0 0,4 -4,0 0,-4z M40,44l4,0 0,4 -4,0 0,-4z M44,44l4,0 0,4 -4,0 0,-4z M56,44l4,0 0,4 -4,0 0,-4z M60,44l4,0 0,4 -4,0 0,-4z M76,44l4,0 0,4 -4,0 0,-4z M80,44l4,0 0,4 -4,0 0,-4z M84,44l4,0 0,4 -4,0 0,-4z M88,44l4,0 0,4 -4,0 0,-4z M100,44l4,0 0,4 -4,0 0,-4z M112,44l4,0 0,4 -4,0 0,-4z M124,44l4,0 0,4 -4,0 0,-4z M140,44l4,0 0,4 -4,0 0,-4z M152,44l4,0 0,4 -4,0 0,-4z M160,44l4,0 0,4 -4,0 0,-4z M164,44l4,0 0,4 -4,0 0,-4z M172,44l4,0 0,4 -4,0 0,-4z M192,44l4,0 0,4 -4,0 0,-4z M200,44l4,0 0,4 -4,0 0,-4z M220,44l4,0 0,4 -4,0 0,-4z M224,44l4,0 0,4 -4,0 0,-4z M0,48l4,0 0,4 -4,0 0,-4z M8,48l4,0 0,4 -4,0 0,-4z M12,48l4,0 0,4 -4,0 0,-4z M24,48l4,0 0,4 -4,0 0,-4z M32,48l4,0 0,4 -4,0 0,-4z M36,48l4,0 0,4 -4,0 0,-4z M40,48l4,0 0,4 -4,0 0,-4z M48,48l4,0 0,4 -4,0 0,-4z M52,48l4,0 0,4 -4,0 0,-4z M56,48l4,0 0,4 -4,0 0,-4z M72,48l4,0 0,4 -4,0 0,-4z M84,48l4,0 0,4 -4,0 0,-4z M88,48l4,0 0,4 -4,0 0,-4z M92,48l4,0 0,4 -4,0 0,-4z M100,48l4,0 0,4 -4,0 0,-4z M104,48l4,0 0,4 -4,0 0,-4z M116,48l4,0 0,4 -4,0 0,-4z M124,48l4,0 0,4 -4,0 0,-4z M132,48l4,0 0,4 -4,0 0,-4z M144,48l4,0 0,4 -4,0 0,-4z M148,48l4,0 0,4 -4,0 0,-4z M152,48l4,0 0,4 -4,0 0,-4z M160,48l4,0 0,4 -4,0 0,-4z M168,48l4,0 0,4 -4,0 0,-4z M176,48l4,0 0,4 -4,0 0,-4z M184,48l4,0 0,4 -4,0 0,-4z M192,48l4,0 0,4 -4,0 0,-4z M200,48l4,0 0,4 -4,0 0,-4z M204,48l4,0 0,4 -4,0 0,-4z M212,48l4,0 0,4 -4,0 0,-4z M216,48l4,0 0,4 -4,0 0,-4z M220,48l4,0 0,4 -4,0 0,-4z M224,48l4,0 0,4 -4,0 0,-4z M232,48l4,0 0,4 -4,0 0,-4z M236,48l4,0 0,4 -4,0 0,-4z M240,48l4,0 0,4 -4,0 0,-4z M8,52l4,0 0,4 -4,0 0,-4z M12,52l4,0 0,4 -4,0 0,-4z M20,52l4,0 0,4 -4,0 0,-4z M28,52l4,0 0,4 -4,0 0,-4z M32,52l4,0 0,4 -4,0 0,-4z M36,52l4,0 0,4 -4,0 0,-4z M40,52l4,0 0,4 -4,0 0,-4z M56,52l4,0 0,4 -4,0 0,-4z M60,52l4,0 0,4 -4,0 0,-4z M64,52l4,0 0,4 -4,0 0,-4z M72,52l4,0 0,4 -4,0 0,-4z M84,52l4,0 0,4 -4,0 0,-4z M92,52l4,0 0,4 -4,0 0,-4z M104,52l4,0 0,4 -4,0 0,-4z M116,52l4,0 0,4 -4,0 0,-4z M128,52l4,0 0,4 -4,0 0,-4z M136,52l4,0 0,4 -4,0 0,-4z M160,52l4,0 0,4 -4,0 0,-4z M180,52l4,0 0,4 -4,0 0,-4z M184,52l4,0 0,4 -4,0 0,-4z M188,52l4,0 0,4 -4,0 0,-4z M192,52l4,0 0,4 -4,0 0,-4z M196,52l4,0 0,4 -4,0 0,-4z M208,52l4,0 0,4 -4,0 0,-4z M220,52l4,0 0,4 -4,0 0,-4z M224,52l4,0 0,4 -4,0 0,-4z M232,52l4,0 0,4 -4,0 0,-4z M236,52l4,0 0,4 -4,0 0,-4z M240,52l4,0 0,4 -4,0 0,-4z M0,56l4,0 0,4 -4,0 0,-4z M12,56l4,0 0,4 -4,0 0,-4z M20,56l4,0 0,4 -4,0 0,-4z M24,56l4,0 0,4 -4,0 0,-4z M40,56l4,0 0,4 -4,0 0,-4z M44,56l4,0 0,4 -4,0 0,-4z M48,56l4,0 0,4 -4,0 0,-4z M52,56l4,0 0,4 -4,0 0,-4z M56,56l4,0 0,4 -4,0 0,-4z M60,56l4,0 0,4 -4,0 0,-4z M72,56l4,0 0,4 -4,0 0,-4z M80,56l4,0 0,4 -4,0 0,-4z M88,56l4,0 0,4 -4,0 0,-4z M96,56l4,0 0,4 -4,0 0,-4z M100,56l4,0 0,4 -4,0 0,-4z M104,56l4,0 0,4 -4,0 0,-4z M120,56l4,0 0,4 -4,0 0,-4z M140,56l4,0 0,4 -4,0 0,-4z M144,56l4,0 0,4 -4,0 0,-4z M156,56l4,0 0,4 -4,0 0,-4z M160,56l4,0 0,4 -4,0 0,-4z M172,56l4,0 0,4 -4,0 0,-4z M188,56l4,0 0,4 -4,0 0,-4z M192,56l4,0 0,4 -4,0 0,-4z M196,56l4,0 0,4 -4,0 0,-4z M204,56l4,0 0,4 -4,0 0,-4z M212,56l4,0 0,4 -4,0 0,-4z M228,56l4,0 0,4 -4,0 0,-4z M232,56l4,0 0,4 -4,0 0,-4z M240,56l4,0 0,4 -4,0 0,-4z M8,60l4,0 0,4 -4,0 0,-4z M20,60l4,0 0,4 -4,0 0,-4z M28,60l4,0 0,4 -4,0 0,-4z M32,60l4,0 0,4 -4,0 0,-4z M40,60l4,0 0,4 -4,0 0,-4z M44,60l4,0 0,4 -4,0 0,-4z M52,60l4,0 0,4 -4,0 0,-4z M56,60l4,0 0,4 -4,0 0,-4z M68,60l4,0 0,4 -4,0 0,-4z M76,60l4,0 0,4 -4,0 0,-4z M92,60l4,0 0,4 -4,0 0,-4z M96,60l4,0 0,4 -4,0 0,-4z M100,60l4,0 0,4 -4,0 0,-4z M104,60l4,0 0,4 -4,0 0,-4z M108,60l4,0 0,4 -4,0 0,-4z M116,60l4,0 0,4 -4,0 0,-4z M132,60l4,0 0,4 -4,0 0,-4z M140,60l4,0 0,4 -4,0 0,-4z M144,60l4,0 0,4 -4,0 0,-4z M148,60l4,0 0,4 -4,0 0,-4z M152,60l4,0 0,4 -4,0 0,-4z M160,60l4,0 0,4 -4,0 0,-4z M172,60l4,0 0,4 -4,0 0,-4z M176,60l4,0 0,4 -4,0 0,-4z M192,60l4,0 0,4 -4,0 0,-4z M204,60l4,0 0,4 -4,0 0,-4z M212,60l4,0 0,4 -4,0 0,-4z M224,60l4,0 0,4 -4,0 0,-4z M0,64l4,0 0,4 -4,0 0,-4z M24,64l4,0 0,4 -4,0 0,-4z M32,64l4,0 0,4 -4,0 0,-4z M40,64l4,0 0,4 -4,0 0,-4z M44,64l4,0 0,4 -4,0 0,-4z M68,64l4,0 0,4 -4,0 0,-4z M72,64l4,0 0,4 -4,0 0,-4z M76,64l4,0 0,4 -4,0 0,-4z M92,64l4,0 0,4 -4,0 0,-4z M96,64l4,0 0,4 -4,0 0,-4z M104,64l4,0 0,4 -4,0 0,-4z M108,64l4,0 0,4 -4,0 0,-4z M116,64l4,0 0,4 -4,0 0,-4z M120,64l4,0 0,4 -4,0 0,-4z M128,64l4,0 0,4 -4,0 0,-4z M136,64l4,0 0,4 -4,0 0,-4z M144,64l4,0 0,4 -4,0 0,-4z M148,64l4,0 0,4 -4,0 0,-4z M152,64l4,0 0,4 -4,0 0,-4z M168,64l4,0 0,4 -4,0 0,-4z M176,64l4,0 0,4 -4,0 0,-4z M184,64l4,0 0,4 -4,0 0,-4z M192,64l4,0 0,4 -4,0 0,-4z M200,64l4,0 0,4 -4,0 0,-4z M204,64l4,0 0,4 -4,0 0,-4z M208,64l4,0 0,4 -4,0 0,-4z M220,64l4,0 0,4 -4,0 0,-4z M224,64l4,0 0,4 -4,0 0,-4z M240,64l4,0 0,4 -4,0 0,-4z M0,68l4,0 0,4 -4,0 0,-4z M20,68l4,0 0,4 -4,0 0,-4z M28,68l4,0 0,4 -4,0 0,-4z M32,68l4,0 0,4 -4,0 0,-4z M48,68l4,0 0,4 -4,0 0,-4z M52,68l4,0 0,4 -4,0 0,-4z M56,68l4,0 0,4 -4,0 0,-4z M64,68l4,0 0,4 -4,0 0,-4z M72,68l4,0 0,4 -4,0 0,-4z M80,68l4,0 0,4 -4,0 0,-4z M100,68l4,0 0,4 -4,0 0,-4z M108,68l4,0 0,4 -4,0 0,-4z M124,68l4,0 0,4 -4,0 0,-4z M132,68l4,0 0,4 -4,0 0,-4z M144,68l4,0 0,4 -4,0 0,-4z M148,68l4,0 0,4 -4,0 0,-4z M152,68l4,0 0,4 -4,0 0,-4z M156,68l4,0 0,4 -4,0 0,-4z M160,68l4,0 0,4 -4,0 0,-4z M164,68l4,0 0,4 -4,0 0,-4z M176,68l4,0 0,4 -4,0 0,-4z M180,68l4,0 0,4 -4,0 0,-4z M196,68l4,0 0,4 -4,0 0,-4z M200,68l4,0 0,4 -4,0 0,-4z M204,68l4,0 0,4 -4,0 0,-4z M224,68l4,0 0,4 -4,0 0,-4z M236,68l4,0 0,4 -4,0 0,-4z M240,68l4,0 0,4 -4,0 0,-4z M0,72l4,0 0,4 -4,0 0,-4z M8,72l4,0 0,4 -4,0 0,-4z M16,72l4,0 0,4 -4,0 0,-4z M20,72l4,0 0,4 -4,0 0,-4z M24,72l4,0 0,4 -4,0 0,-4z M32,72l4,0 0,4 -4,0 0,-4z M40,72l4,0 0,4 -4,0 0,-4z M48,72l4,0 0,4 -4,0 0,-4z M72,72l4,0 0,4 -4,0 0,-4z M88,72l4,0 0,4 -4,0 0,-4z M92,72l4,0 0,4 -4,0 0,-4z M96,72l4,0 0,4 -4,0 0,-4z M104,72l4,0 0,4 -4,0 0,-4z M120,72l4,0 0,4 -4,0 0,-4z M124,72l4,0 0,4 -4,0 0,-4z M128,72l4,0 0,4 -4,0 0,-4z M132,72l4,0 0,4 -4,0 0,-4z M144,72l4,0 0,4 -4,0 0,-4z M148,72l4,0 0,4 -4,0 0,-4z M160,72l4,0 0,4 -4,0 0,-4z M164,72l4,0 0,4 -4,0 0,-4z M176,72l4,0 0,4 -4,0 0,-4z M180,72l4,0 0,4 -4,0 0,-4z M192,72l4,0 0,4 -4,0 0,-4z M196,72l4,0 0,4 -4,0 0,-4z M208,72l4,0 0,4 -4,0 0,-4z M212,72l4,0 0,4 -4,0 0,-4z M220,72l4,0 0,4 -4,0 0,-4z M224,72l4,0 0,4 -4,0 0,-4z M232,72l4,0 0,4 -4,0 0,-4z M240,72l4,0 0,4 -4,0 0,-4z M8,76l4,0 0,4 -4,0 0,-4z M16,76l4,0 0,4 -4,0 0,-4z M32,76l4,0 0,4 -4,0 0,-4z M36,76l4,0 0,4 -4,0 0,-4z M40,76l4,0 0,4 -4,0 0,-4z M44,76l4,0 0,4 -4,0 0,-4z M52,76l4,0 0,4 -4,0 0,-4z M68,76l4,0 0,4 -4,0 0,-4z M72,76l4,0 0,4 -4,0 0,-4z M88,76l4,0 0,4 -4,0 0,-4z M92,76l4,0 0,4 -4,0 0,-4z M104,76l4,0 0,4 -4,0 0,-4z M112,76l4,0 0,4 -4,0 0,-4z M116,76l4,0 0,4 -4,0 0,-4z M124,76l4,0 0,4 -4,0 0,-4z M132,76l4,0 0,4 -4,0 0,-4z M136,76l4,0 0,4 -4,0 0,-4z M144,76l4,0 0,4 -4,0 0,-4z M148,76l4,0 0,4 -4,0 0,-4z M156,76l4,0 0,4 -4,0 0,-4z M164,76l4,0 0,4 -4,0 0,-4z M172,76l4,0 0,4 -4,0 0,-4z M176,76l4,0 0,4 -4,0 0,-4z M180,76l4,0 0,4 -4,0 0,-4z M184,76l4,0 0,4 -4,0 0,-4z M192,76l4,0 0,4 -4,0 0,-4z M196,76l4,0 0,4 -4,0 0,-4z M200,76l4,0 0,4 -4,0 0,-4z M208,76l4,0 0,4 -4,0 0,-4z M212,76l4,0 0,4 -4,0 0,-4z M224,76l4,0 0,4 -4,0 0,-4z M228,76l4,0 0,4 -4,0 0,-4z M232,76l4,0 0,4 -4,0 0,-4z M0,80l4,0 0,4 -4,0 0,-4z M8,80l4,0 0,4 -4,0 0,-4z M16,80l4,0 0,4 -4,0 0,-4z M20,80l4,0 0,4 -4,0 0,-4z M24,80l4,0 0,4 -4,0 0,-4z M32,80l4,0 0,4 -4,0 0,-4z M36,80l4,0 0,4 -4,0 0,-4z M40,80l4,0 0,4 -4,0 0,-4z M48,80l4,0 0,4 -4,0 0,-4z M72,80l4,0 0,4 -4,0 0,-4z M80,80l4,0 0,4 -4,0 0,-4z M88,80l4,0 0,4 -4,0 0,-4z M108,80l4,0 0,4 -4,0 0,-4z M128,80l4,0 0,4 -4,0 0,-4z M132,80l4,0 0,4 -4,0 0,-4z M136,80l4,0 0,4 -4,0 0,-4z M144,80l4,0 0,4 -4,0 0,-4z M152,80l4,0 0,4 -4,0 0,-4z M156,80l4,0 0,4 -4,0 0,-4z M160,80l4,0 0,4 -4,0 0,-4z M164,80l4,0 0,4 -4,0 0,-4z M172,80l4,0 0,4 -4,0 0,-4z M180,80l4,0 0,4 -4,0 0,-4z M188,80l4,0 0,4 -4,0 0,-4z M192,80l4,0 0,4 -4,0 0,-4z M196,80l4,0 0,4 -4,0 0,-4z M216,80l4,0 0,4 -4,0 0,-4z M220,80l4,0 0,4 -4,0 0,-4z M240,80l4,0 0,4 -4,0 0,-4z M4,84l4,0 0,4 -4,0 0,-4z M12,84l4,0 0,4 -4,0 0,-4z M20,84l4,0 0,4 -4,0 0,-4z M32,84l4,0 0,4 -4,0 0,-4z M36,84l4,0 0,4 -4,0 0,-4z M40,84l4,0 0,4 -4,0 0,-4z M48,84l4,0 0,4 -4,0 0,-4z M52,84l4,0 0,4 -4,0 0,-4z M56,84l4,0 0,4 -4,0 0,-4z M68,84l4,0 0,4 -4,0 0,-4z M88,84l4,0 0,4 -4,0 0,-4z M104,84l4,0 0,4 -4,0 0,-4z M108,84l4,0 0,4 -4,0 0,-4z M124,84l4,0 0,4 -4,0 0,-4z M128,84l4,0 0,4 -4,0 0,-4z M132,84l4,0 0,4 -4,0 0,-4z M148,84l4,0 0,4 -4,0 0,-4z M160,84l4,0 0,4 -4,0 0,-4z M172,84l4,0 0,4 -4,0 0,-4z M212,84l4,0 0,4 -4,0 0,-4z M228,84l4,0 0,4 -4,0 0,-4z M240,84l4,0 0,4 -4,0 0,-4z M0,88l4,0 0,4 -4,0 0,-4z M4,88l4,0 0,4 -4,0 0,-4z M12,88l4,0 0,4 -4,0 0,-4z M16,88l4,0 0,4 -4,0 0,-4z M20,88l4,0 0,4 -4,0 0,-4z M24,88l4,0 0,4 -4,0 0,-4z M36,88l4,0 0,4 -4,0 0,-4z M40,88l4,0 0,4 -4,0 0,-4z M48,88l4,0 0,4 -4,0 0,-4z M72,88l4,0 0,4 -4,0 0,-4z M76,88l4,0 0,4 -4,0 0,-4z M84,88l4,0 0,4 -4,0 0,-4z M92,88l4,0 0,4 -4,0 0,-4z M108,88l4,0 0,4 -4,0 0,-4z M112,88l4,0 0,4 -4,0 0,-4z M116,88l4,0 0,4 -4,0 0,-4z M120,88l4,0 0,4 -4,0 0,-4z M128,88l4,0 0,4 -4,0 0,-4z M132,88l4,0 0,4 -4,0 0,-4z M140,88l4,0 0,4 -4,0 0,-4z M144,88l4,0 0,4 -4,0 0,-4z M148,88l4,0 0,4 -4,0 0,-4z M156,88l4,0 0,4 -4,0 0,-4z M160,88l4,0 0,4 -4,0 0,-4z M172,88l4,0 0,4 -4,0 0,-4z M188,88l4,0 0,4 -4,0 0,-4z M192,88l4,0 0,4 -4,0 0,-4z M204,88l4,0 0,4 -4,0 0,-4z M208,88l4,0 0,4 -4,0 0,-4z M228,88l4,0 0,4 -4,0 0,-4z M232,88l4,0 0,4 -4,0 0,-4z M240,88l4,0 0,4 -4,0 0,-4z M0,92l4,0 0,4 -4,0 0,-4z M12,92l4,0 0,4 -4,0 0,-4z M16,92l4,0 0,4 -4,0 0,-4z M20,92l4,0 0,4 -4,0 0,-4z M28,92l4,0 0,4 -4,0 0,-4z M32,92l4,0 0,4 -4,0 0,-4z M36,92l4,0 0,4 -4,0 0,-4z M40,92l4,0 0,4 -4,0 0,-4z M48,92l4,0 0,4 -4,0 0,-4z M56,92l4,0 0,4 -4,0 0,-4z M60,92l4,0 0,4 -4,0 0,-4z M68,92l4,0 0,4 -4,0 0,-4z M76,92l4,0 0,4 -4,0 0,-4z M80,92l4,0 0,4 -4,0 0,-4z M92,92l4,0 0,4 -4,0 0,-4z M96,92l4,0 0,4 -4,0 0,-4z M100,92l4,0 0,4 -4,0 0,-4z M108,92l4,0 0,4 -4,0 0,-4z M128,92l4,0 0,4 -4,0 0,-4z M132,92l4,0 0,4 -4,0 0,-4z M140,92l4,0 0,4 -4,0 0,-4z M144,92l4,0 0,4 -4,0 0,-4z M152,92l4,0 0,4 -4,0 0,-4z M160,92l4,0 0,4 -4,0 0,-4z M164,92l4,0 0,4 -4,0 0,-4z M180,92l4,0 0,4 -4,0 0,-4z M192,92l4,0 0,4 -4,0 0,-4z M200,92l4,0 0,4 -4,0 0,-4z M212,92l4,0 0,4 -4,0 0,-4z M216,92l4,0 0,4 -4,0 0,-4z M228,92l4,0 0,4 -4,0 0,-4z M236,92l4,0 0,4 -4,0 0,-4z M0,96l4,0 0,4 -4,0 0,-4z M8,96l4,0 0,4 -4,0 0,-4z M16,96l4,0 0,4 -4,0 0,-4z M24,96l4,0 0,4 -4,0 0,-4z M28,96l4,0 0,4 -4,0 0,-4z M36,96l4,0 0,4 -4,0 0,-4z M40,96l4,0 0,4 -4,0 0,-4z M44,96l4,0 0,4 -4,0 0,-4z M48,96l4,0 0,4 -4,0 0,-4z M56,96l4,0 0,4 -4,0 0,-4z M60,96l4,0 0,4 -4,0 0,-4z M72,96l4,0 0,4 -4,0 0,-4z M80,96l4,0 0,4 -4,0 0,-4z M88,96l4,0 0,4 -4,0 0,-4z M92,96l4,0 0,4 -4,0 0,-4z M100,96l4,0 0,4 -4,0 0,-4z M108,96l4,0 0,4 -4,0 0,-4z M112,96l4,0 0,4 -4,0 0,-4z M116,96l4,0 0,4 -4,0 0,-4z M128,96l4,0 0,4 -4,0 0,-4z M132,96l4,0 0,4 -4,0 0,-4z M144,96l4,0 0,4 -4,0 0,-4z M148,96l4,0 0,4 -4,0 0,-4z M152,96l4,0 0,4 -4,0 0,-4z M160,96l4,0 0,4 -4,0 0,-4z M176,96l4,0 0,4 -4,0 0,-4z M192,96l4,0 0,4 -4,0 0,-4z M212,96l4,0 0,4 -4,0 0,-4z M216,96l4,0 0,4 -4,0 0,-4z M220,96l4,0 0,4 -4,0 0,-4z M224,96l4,0 0,4 -4,0 0,-4z M228,96l4,0 0,4 -4,0 0,-4z M236,96l4,0 0,4 -4,0 0,-4z M240,96l4,0 0,4 -4,0 0,-4z M4,100l4,0 0,4 -4,0 0,-4z M8,100l4,0 0,4 -4,0 0,-4z M12,100l4,0 0,4 -4,0 0,-4z M16,100l4,0 0,4 -4,0 0,-4z M32,100l4,0 0,4 -4,0 0,-4z M48,100l4,0 0,4 -4,0 0,-4z M56,100l4,0 0,4 -4,0 0,-4z M60,100l4,0 0,4 -4,0 0,-4z M64,100l4,0 0,4 -4,0 0,-4z M76,100l4,0 0,4 -4,0 0,-4z M80,100l4,0 0,4 -4,0 0,-4z M92,100l4,0 0,4 -4,0 0,-4z M108,100l4,0 0,4 -4,0 0,-4z M116,100l4,0 0,4 -4,0 0,-4z M124,100l4,0 0,4 -4,0 0,-4z M132,100l4,0 0,4 -4,0 0,-4z M136,100l4,0 0,4 -4,0 0,-4z M160,100l4,0 0,4 -4,0 0,-4z M172,100l4,0 0,4 -4,0 0,-4z M184,100l4,0 0,4 -4,0 0,-4z M196,100l4,0 0,4 -4,0 0,-4z M208,100l4,0 0,4 -4,0 0,-4z M212,100l4,0 0,4 -4,0 0,-4z M220,100l4,0 0,4 -4,0 0,-4z M224,100l4,0 0,4 -4,0 0,-4z M228,100l4,0 0,4 -4,0 0,-4z M232,100l4,0 0,4 -4,0 0,-4z M240,100l4,0 0,4 -4,0 0,-4z M0,104l4,0 0,4 -4,0 0,-4z M12,104l4,0 0,4 -4,0 0,-4z M24,104l4,0 0,4 -4,0 0,-4z M28,104l4,0 0,4 -4,0 0,-4z M36,104l4,0 0,4 -4,0 0,-4z M40,104l4,0 0,4 -4,0 0,-4z M48,104l4,0 0,4 -4,0 0,-4z M52,104l4,0 0,4 -4,0 0,-4z M68,104l4,0 0,4 -4,0 0,-4z M72,104l4,0 0,4 -4,0 0,-4z M80,104l4,0 0,4 -4,0 0,-4z M84,104l4,0 0,4 -4,0 0,-4z M96,104l4,0 0,4 -4,0 0,-4z M108,104l4,0 0,4 -4,0 0,-4z M112,104l4,0 0,4 -4,0 0,-4z M116,104l4,0 0,4 -4,0 0,-4z M132,104l4,0 0,4 -4,0 0,-4z M140,104l4,0 0,4 -4,0 0,-4z M144,104l4,0 0,4 -4,0 0,-4z M148,104l4,0 0,4 -4,0 0,-4z M152,104l4,0 0,4 -4,0 0,-4z M156,104l4,0 0,4 -4,0 0,-4z M160,104l4,0 0,4 -4,0 0,-4z M164,104l4,0 0,4 -4,0 0,-4z M176,104l4,0 0,4 -4,0 0,-4z M180,104l4,0 0,4 -4,0 0,-4z M188,104l4,0 0,4 -4,0 0,-4z M192,104l4,0 0,4 -4,0 0,-4z M200,104l4,0 0,4 -4,0 0,-4z M204,104l4,0 0,4 -4,0 0,-4z M208,104l4,0 0,4 -4,0 0,-4z M220,104l4,0 0,4 -4,0 0,-4z M224,104l4,0 0,4 -4,0 0,-4z M240,104l4,0 0,4 -4,0 0,-4z M4,108l4,0 0,4 -4,0 0,-4z M8,108l4,0 0,4 -4,0 0,-4z M16,108l4,0 0,4 -4,0 0,-4z M28,108l4,0 0,4 -4,0 0,-4z M36,108l4,0 0,4 -4,0 0,-4z M48,108l4,0 0,4 -4,0 0,-4z M60,108l4,0 0,4 -4,0 0,-4z M68,108l4,0 0,4 -4,0 0,-4z M72,108l4,0 0,4 -4,0 0,-4z M80,108l4,0 0,4 -4,0 0,-4z M88,108l4,0 0,4 -4,0 0,-4z M108,108l4,0 0,4 -4,0 0,-4z M116,108l4,0 0,4 -4,0 0,-4z M140,108l4,0 0,4 -4,0 0,-4z M152,108l4,0 0,4 -4,0 0,-4z M156,108l4,0 0,4 -4,0 0,-4z M160,108l4,0 0,4 -4,0 0,-4z M164,108l4,0 0,4 -4,0 0,-4z M172,108l4,0 0,4 -4,0 0,-4z M192,108l4,0 0,4 -4,0 0,-4z M208,108l4,0 0,4 -4,0 0,-4z M216,108l4,0 0,4 -4,0 0,-4z M224,108l4,0 0,4 -4,0 0,-4z M228,108l4,0 0,4 -4,0 0,-4z M236,108l4,0 0,4 -4,0 0,-4z M240,108l4,0 0,4 -4,0 0,-4z M8,112l4,0 0,4 -4,0 0,-4z M16,112l4,0 0,4 -4,0 0,-4z M20,112l4,0 0,4 -4,0 0,-4z M24,112l4,0 0,4 -4,0 0,-4z M28,112l4,0 0,4 -4,0 0,-4z M32,112l4,0 0,4 -4,0 0,-4z M36,112l4,0 0,4 -4,0 0,-4z M40,112l4,0 0,4 -4,0 0,-4z M52,112l4,0 0,4 -4,0 0,-4z M60,112l4,0 0,4 -4,0 0,-4z M64,112l4,0 0,4 -4,0 0,-4z M68,112l4,0 0,4 -4,0 0,-4z M72,112l4,0 0,4 -4,0 0,-4z M84,112l4,0 0,4 -4,0 0,-4z M92,112l4,0 0,4 -4,0 0,-4z M104,112l4,0 0,4 -4,0 0,-4z M108,112l4,0 0,4 -4,0 0,-4z M112,112l4,0 0,4 -4,0 0,-4z M116,112l4,0 0,4 -4,0 0,-4z M120,112l4,0 0,4 -4,0 0,-4z M124,112l4,0 0,4 -4,0 0,-4z M128,112l4,0 0,4 -4,0 0,-4z M132,112l4,0 0,4 -4,0 0,-4z M140,112l4,0 0,4 -4,0 0,-4z M148,112l4,0 0,4 -4,0 0,-4z M168,112l4,0 0,4 -4,0 0,-4z M176,112l4,0 0,4 -4,0 0,-4z M180,112l4,0 0,4 -4,0 0,-4z M192,112l4,0 0,4 -4,0 0,-4z M200,112l4,0 0,4 -4,0 0,-4z M204,112l4,0 0,4 -4,0 0,-4z M208,112l4,0 0,4 -4,0 0,-4z M212,112l4,0 0,4 -4,0 0,-4z M216,112l4,0 0,4 -4,0 0,-4z M220,112l4,0 0,4 -4,0 0,-4z M224,112l4,0 0,4 -4,0 0,-4z M232,112l4,0 0,4 -4,0 0,-4z M236,112l4,0 0,4 -4,0 0,-4z M240,112l4,0 0,4 -4,0 0,-4z M8,116l4,0 0,4 -4,0 0,-4z M12,116l4,0 0,4 -4,0 0,-4z M16,116l4,0 0,4 -4,0 0,-4z M32,116l4,0 0,4 -4,0 0,-4z M36,116l4,0 0,4 -4,0 0,-4z M52,116l4,0 0,4 -4,0 0,-4z M56,116l4,0 0,4 -4,0 0,-4z M60,116l4,0 0,4 -4,0 0,-4z M72,116l4,0 0,4 -4,0 0,-4z M76,116l4,0 0,4 -4,0 0,-4z M80,116l4,0 0,4 -4,0 0,-4z M84,116l4,0 0,4 -4,0 0,-4z M88,116l4,0 0,4 -4,0 0,-4z M100,116l4,0 0,4 -4,0 0,-4z M108,116l4,0 0,4 -4,0 0,-4z M112,116l4,0 0,4 -4,0 0,-4z M128,116l4,0 0,4 -4,0 0,-4z M144,116l4,0 0,4 -4,0 0,-4z M164,116l4,0 0,4 -4,0 0,-4z M180,116l4,0 0,4 -4,0 0,-4z M192,116l4,0 0,4 -4,0 0,-4z M200,116l4,0 0,4 -4,0 0,-4z M208,116l4,0 0,4 -4,0 0,-4z M224,116l4,0 0,4 -4,0 0,-4z M228,116l4,0 0,4 -4,0 0,-4z M240,116l4,0 0,4 -4,0 0,-4z M8,120l4,0 0,4 -4,0 0,-4z M16,120l4,0 0,4 -4,0 0,-4z M24,120l4,0 0,4 -4,0 0,-4z M32,120l4,0 0,4 -4,0 0,-4z M36,120l4,0 0,4 -4,0 0,-4z M40,120l4,0 0,4 -4,0 0,-4z M52,120l4,0 0,4 -4,0 0,-4z M56,120l4,0 0,4 -4,0 0,-4z M68,120l4,0 0,4 -4,0 0,-4z M72,120l4,0 0,4 -4,0 0,-4z M84,120l4,0 0,4 -4,0 0,-4z M112,120l4,0 0,4 -4,0 0,-4z M120,120l4,0 0,4 -4,0 0,-4z M128,120l4,0 0,4 -4,0 0,-4z M140,120l4,0 0,4 -4,0 0,-4z M152,120l4,0 0,4 -4,0 0,-4z M160,120l4,0 0,4 -4,0 0,-4z M164,120l4,0 0,4 -4,0 0,-4z M172,120l4,0 0,4 -4,0 0,-4z M176,120l4,0 0,4 -4,0 0,-4z M180,120l4,0 0,4 -4,0 0,-4z M192,120l4,0 0,4 -4,0 0,-4z M196,120l4,0 0,4 -4,0 0,-4z M204,120l4,0 0,4 -4,0 0,-4z M208,120l4,0 0,4 -4,0 0,-4z M216,120l4,0 0,4 -4,0 0,-4z M224,120l4,0 0,4 -4,0 0,-4z M236,120l4,0 0,4 -4,0 0,-4z M240,120l4,0 0,4 -4,0 0,-4z M0,124l4,0 0,4 -4,0 0,-4z M8,124l4,0 0,4 -4,0 0,-4z M12,124l4,0 0,4 -4,0 0,-4z M16,124l4,0 0,4 -4,0 0,-4z M32,124l4,0 0,4 -4,0 0,-4z M52,124l4,0 0,4 -4,0 0,-4z M56,124l4,0 0,4 -4,0 0,-4z M60,124l4,0 0,4 -4,0 0,-4z M64,124l4,0 0,4 -4,0 0,-4z M84,124l4,0 0,4 -4,0 0,-4z M104,124l4,0 0,4 -4,0 0,-4z M108,124l4,0 0,4 -4,0 0,-4z M112,124l4,0 0,4 -4,0 0,-4z M128,124l4,0 0,4 -4,0 0,-4z M132,124l4,0 0,4 -4,0 0,-4z M136,124l4,0 0,4 -4,0 0,-4z M140,124l4,0 0,4 -4,0 0,-4z M148,124l4,0 0,4 -4,0 0,-4z M156,124l4,0 0,4 -4,0 0,-4z M164,124l4,0 0,4 -4,0 0,-4z M176,124l4,0 0,4 -4,0 0,-4z M180,124l4,0 0,4 -4,0 0,-4z M192,124l4,0 0,4 -4,0 0,-4z M204,124l4,0 0,4 -4,0 0,-4z M208,124l4,0 0,4 -4,0 0,-4z M224,124l4,0 0,4 -4,0 0,-4z M228,124l4,0 0,4 -4,0 0,-4z M232,124l4,0 0,4 -4,0 0,-4z M240,124l4,0 0,4 -4,0 0,-4z M4,128l4,0 0,4 -4,0 0,-4z M16,128l4,0 0,4 -4,0 0,-4z M20,128l4,0 0,4 -4,0 0,-4z M24,128l4,0 0,4 -4,0 0,-4z M28,128l4,0 0,4 -4,0 0,-4z M32,128l4,0 0,4 -4,0 0,-4z M36,128l4,0 0,4 -4,0 0,-4z M40,128l4,0 0,4 -4,0 0,-4z M44,128l4,0 0,4 -4,0 0,-4z M56,128l4,0 0,4 -4,0 0,-4z M60,128l4,0 0,4 -4,0 0,-4z M64,128l4,0 0,4 -4,0 0,-4z M72,128l4,0 0,4 -4,0 0,-4z M76,128l4,0 0,4 -4,0 0,-4z M80,128l4,0 0,4 -4,0 0,-4z M84,128l4,0 0,4 -4,0 0,-4z M92,128l4,0 0,4 -4,0 0,-4z M96,128l4,0 0,4 -4,0 0,-4z M100,128l4,0 0,4 -4,0 0,-4z M112,128l4,0 0,4 -4,0 0,-4z M116,128l4,0 0,4 -4,0 0,-4z M120,128l4,0 0,4 -4,0 0,-4z M124,128l4,0 0,4 -4,0 0,-4z M128,128l4,0 0,4 -4,0 0,-4z M144,128l4,0 0,4 -4,0 0,-4z M148,128l4,0 0,4 -4,0 0,-4z M152,128l4,0 0,4 -4,0 0,-4z M156,128l4,0 0,4 -4,0 0,-4z M160,128l4,0 0,4 -4,0 0,-4z M164,128l4,0 0,4 -4,0 0,-4z M172,128l4,0 0,4 -4,0 0,-4z M180,128l4,0 0,4 -4,0 0,-4z M184,128l4,0 0,4 -4,0 0,-4z M188,128l4,0 0,4 -4,0 0,-4z M192,128l4,0 0,4 -4,0 0,-4z M200,128l4,0 0,4 -4,0 0,-4z M204,128l4,0 0,4 -4,0 0,-4z M208,128l4,0 0,4 -4,0 0,-4z M212,128l4,0 0,4 -4,0 0,-4z M216,128l4,0 0,4 -4,0 0,-4z M220,128l4,0 0,4 -4,0 0,-4z M224,128l4,0 0,4 -4,0 0,-4z M0,132l4,0 0,4 -4,0 0,-4z M4,132l4,0 0,4 -4,0 0,-4z M8,132l4,0 0,4 -4,0 0,-4z M12,132l4,0 0,4 -4,0 0,-4z M16,132l4,0 0,4 -4,0 0,-4z M20,132l4,0 0,4 -4,0 0,-4z M28,132l4,0 0,4 -4,0 0,-4z M36,132l4,0 0,4 -4,0 0,-4z M40,132l4,0 0,4 -4,0 0,-4z M52,132l4,0 0,4 -4,0 0,-4z M60,132l4,0 0,4 -4,0 0,-4z M68,132l4,0 0,4 -4,0 0,-4z M72,132l4,0 0,4 -4,0 0,-4z M76,132l4,0 0,4 -4,0 0,-4z M84,132l4,0 0,4 -4,0 0,-4z M96,132l4,0 0,4 -4,0 0,-4z M104,132l4,0 0,4 -4,0 0,-4z M108,132l4,0 0,4 -4,0 0,-4z M112,132l4,0 0,4 -4,0 0,-4z M120,132l4,0 0,4 -4,0 0,-4z M124,132l4,0 0,4 -4,0 0,-4z M144,132l4,0 0,4 -4,0 0,-4z M148,132l4,0 0,4 -4,0 0,-4z M156,132l4,0 0,4 -4,0 0,-4z M164,132l4,0 0,4 -4,0 0,-4z M176,132l4,0 0,4 -4,0 0,-4z M188,132l4,0 0,4 -4,0 0,-4z M196,132l4,0 0,4 -4,0 0,-4z M204,132l4,0 0,4 -4,0 0,-4z M208,132l4,0 0,4 -4,0 0,-4z M212,132l4,0 0,4 -4,0 0,-4z M216,132l4,0 0,4 -4,0 0,-4z M220,132l4,0 0,4 -4,0 0,-4z M236,132l4,0 0,4 -4,0 0,-4z M240,132l4,0 0,4 -4,0 0,-4z M0,136l4,0 0,4 -4,0 0,-4z M8,136l4,0 0,4 -4,0 0,-4z M12,136l4,0 0,4 -4,0 0,-4z M24,136l4,0 0,4 -4,0 0,-4z M28,136l4,0 0,4 -4,0 0,-4z M36,136l4,0 0,4 -4,0 0,-4z M40,136l4,0 0,4 -4,0 0,-4z M48,136l4,0 0,4 -4,0 0,-4z M52,136l4,0 0,4 -4,0 0,-4z M56,136l4,0 0,4 -4,0 0,-4z M60,136l4,0 0,4 -4,0 0,-4z M72,136l4,0 0,4 -4,0 0,-4z M76,136l4,0 0,4 -4,0 0,-4z M100,136l4,0 0,4 -4,0 0,-4z M104,136l4,0 0,4 -4,0 0,-4z M112,136l4,0 0,4 -4,0 0,-4z M116,136l4,0 0,4 -4,0 0,-4z M124,136l4,0 0,4 -4,0 0,-4z M136,136l4,0 0,4 -4,0 0,-4z M140,136l4,0 0,4 -4,0 0,-4z M144,136l4,0 0,4 -4,0 0,-4z M160,136l4,0 0,4 -4,0 0,-4z M184,136l4,0 0,4 -4,0 0,-4z M192,136l4,0 0,4 -4,0 0,-4z M212,136l4,0 0,4 -4,0 0,-4z M216,136l4,0 0,4 -4,0 0,-4z M224,136l4,0 0,4 -4,0 0,-4z M228,136l4,0 0,4 -4,0 0,-4z M240,136l4,0 0,4 -4,0 0,-4z M8,140l4,0 0,4 -4,0 0,-4z M12,140l4,0 0,4 -4,0 0,-4z M16,140l4,0 0,4 -4,0 0,-4z M36,140l4,0 0,4 -4,0 0,-4z M44,140l4,0 0,4 -4,0 0,-4z M48,140l4,0 0,4 -4,0 0,-4z M52,140l4,0 0,4 -4,0 0,-4z M56,140l4,0 0,4 -4,0 0,-4z M60,140l4,0 0,4 -4,0 0,-4z M68,140l4,0 0,4 -4,0 0,-4z M72,140l4,0 0,4 -4,0 0,-4z M76,140l4,0 0,4 -4,0 0,-4z M80,140l4,0 0,4 -4,0 0,-4z M92,140l4,0 0,4 -4,0 0,-4z M96,140l4,0 0,4 -4,0 0,-4z M100,140l4,0 0,4 -4,0 0,-4z M120,140l4,0 0,4 -4,0 0,-4z M128,140l4,0 0,4 -4,0 0,-4z M136,140l4,0 0,4 -4,0 0,-4z M144,140l4,0 0,4 -4,0 0,-4z M152,140l4,0 0,4 -4,0 0,-4z M156,140l4,0 0,4 -4,0 0,-4z M160,140l4,0 0,4 -4,0 0,-4z M164,140l4,0 0,4 -4,0 0,-4z M172,140l4,0 0,4 -4,0 0,-4z M180,140l4,0 0,4 -4,0 0,-4z M192,140l4,0 0,4 -4,0 0,-4z M196,140l4,0 0,4 -4,0 0,-4z M200,140l4,0 0,4 -4,0 0,-4z M208,140l4,0 0,4 -4,0 0,-4z M216,140l4,0 0,4 -4,0 0,-4z M224,140l4,0 0,4 -4,0 0,-4z M228,140l4,0 0,4 -4,0 0,-4z M236,140l4,0 0,4 -4,0 0,-4z M8,144l4,0 0,4 -4,0 0,-4z M12,144l4,0 0,4 -4,0 0,-4z M16,144l4,0 0,4 -4,0 0,-4z M20,144l4,0 0,4 -4,0 0,-4z M24,144l4,0 0,4 -4,0 0,-4z M28,144l4,0 0,4 -4,0 0,-4z M36,144l4,0 0,4 -4,0 0,-4z M40,144l4,0 0,4 -4,0 0,-4z M44,144l4,0 0,4 -4,0 0,-4z M56,144l4,0 0,4 -4,0 0,-4z M60,144l4,0 0,4 -4,0 0,-4z M72,144l4,0 0,4 -4,0 0,-4z M88,144l4,0 0,4 -4,0 0,-4z M92,144l4,0 0,4 -4,0 0,-4z M96,144l4,0 0,4 -4,0 0,-4z M100,144l4,0 0,4 -4,0 0,-4z M104,144l4,0 0,4 -4,0 0,-4z M112,144l4,0 0,4 -4,0 0,-4z M116,144l4,0 0,4 -4,0 0,-4z M124,144l4,0 0,4 -4,0 0,-4z M128,144l4,0 0,4 -4,0 0,-4z M140,144l4,0 0,4 -4,0 0,-4z M144,144l4,0 0,4 -4,0 0,-4z M148,144l4,0 0,4 -4,0 0,-4z M152,144l4,0 0,4 -4,0 0,-4z M156,144l4,0 0,4 -4,0 0,-4z M160,144l4,0 0,4 -4,0 0,-4z M164,144l4,0 0,4 -4,0 0,-4z M168,144l4,0 0,4 -4,0 0,-4z M172,144l4,0 0,4 -4,0 0,-4z M176,144l4,0 0,4 -4,0 0,-4z M180,144l4,0 0,4 -4,0 0,-4z M184,144l4,0 0,4 -4,0 0,-4z M192,144l4,0 0,4 -4,0 0,-4z M196,144l4,0 0,4 -4,0 0,-4z M216,144l4,0 0,4 -4,0 0,-4z M228,144l4,0 0,4 -4,0 0,-4z M240,144l4,0 0,4 -4,0 0,-4z M0,148l4,0 0,4 -4,0 0,-4z M4,148l4,0 0,4 -4,0 0,-4z M8,148l4,0 0,4 -4,0 0,-4z M12,148l4,0 0,4 -4,0 0,-4z M36,148l4,0 0,4 -4,0 0,-4z M44,148l4,0 0,4 -4,0 0,-4z M52,148l4,0 0,4 -4,0 0,-4z M64,148l4,0 0,4 -4,0 0,-4z M68,148l4,0 0,4 -4,0 0,-4z M72,148l4,0 0,4 -4,0 0,-4z M76,148l4,0 0,4 -4,0 0,-4z M100,148l4,0 0,4 -4,0 0,-4z M104,148l4,0 0,4 -4,0 0,-4z M116,148l4,0 0,4 -4,0 0,-4z M124,148l4,0 0,4 -4,0 0,-4z M128,148l4,0 0,4 -4,0 0,-4z M144,148l4,0 0,4 -4,0 0,-4z M156,148l4,0 0,4 -4,0 0,-4z M176,148l4,0 0,4 -4,0 0,-4z M180,148l4,0 0,4 -4,0 0,-4z M184,148l4,0 0,4 -4,0 0,-4z M188,148l4,0 0,4 -4,0 0,-4z M192,148l4,0 0,4 -4,0 0,-4z M204,148l4,0 0,4 -4,0 0,-4z M208,148l4,0 0,4 -4,0 0,-4z M212,148l4,0 0,4 -4,0 0,-4z M216,148l4,0 0,4 -4,0 0,-4z M228,148l4,0 0,4 -4,0 0,-4z M236,148l4,0 0,4 -4,0 0,-4z M240,148l4,0 0,4 -4,0 0,-4z M8,152l4,0 0,4 -4,0 0,-4z M16,152l4,0 0,4 -4,0 0,-4z M24,152l4,0 0,4 -4,0 0,-4z M28,152l4,0 0,4 -4,0 0,-4z M36,152l4,0 0,4 -4,0 0,-4z M52,152l4,0 0,4 -4,0 0,-4z M76,152l4,0 0,4 -4,0 0,-4z M80,152l4,0 0,4 -4,0 0,-4z M88,152l4,0 0,4 -4,0 0,-4z M92,152l4,0 0,4 -4,0 0,-4z M112,152l4,0 0,4 -4,0 0,-4z M116,152l4,0 0,4 -4,0 0,-4z M128,152l4,0 0,4 -4,0 0,-4z M136,152l4,0 0,4 -4,0 0,-4z M144,152l4,0 0,4 -4,0 0,-4z M148,152l4,0 0,4 -4,0 0,-4z M152,152l4,0 0,4 -4,0 0,-4z M156,152l4,0 0,4 -4,0 0,-4z M188,152l4,0 0,4 -4,0 0,-4z M192,152l4,0 0,4 -4,0 0,-4z M200,152l4,0 0,4 -4,0 0,-4z M204,152l4,0 0,4 -4,0 0,-4z M208,152l4,0 0,4 -4,0 0,-4z M216,152l4,0 0,4 -4,0 0,-4z M224,152l4,0 0,4 -4,0 0,-4z M236,152l4,0 0,4 -4,0 0,-4z M240,152l4,0 0,4 -4,0 0,-4z M4,156l4,0 0,4 -4,0 0,-4z M8,156l4,0 0,4 -4,0 0,-4z M28,156l4,0 0,4 -4,0 0,-4z M40,156l4,0 0,4 -4,0 0,-4z M48,156l4,0 0,4 -4,0 0,-4z M60,156l4,0 0,4 -4,0 0,-4z M68,156l4,0 0,4 -4,0 0,-4z M72,156l4,0 0,4 -4,0 0,-4z M84,156l4,0 0,4 -4,0 0,-4z M88,156l4,0 0,4 -4,0 0,-4z M96,156l4,0 0,4 -4,0 0,-4z M108,156l4,0 0,4 -4,0 0,-4z M112,156l4,0 0,4 -4,0 0,-4z M144,156l4,0 0,4 -4,0 0,-4z M148,156l4,0 0,4 -4,0 0,-4z M156,156l4,0 0,4 -4,0 0,-4z M160,156l4,0 0,4 -4,0 0,-4z M164,156l4,0 0,4 -4,0 0,-4z M176,156l4,0 0,4 -4,0 0,-4z M188,156l4,0 0,4 -4,0 0,-4z M208,156l4,0 0,4 -4,0 0,-4z M212,156l4,0 0,4 -4,0 0,-4z M216,156l4,0 0,4 -4,0 0,-4z M220,156l4,0 0,4 -4,0 0,-4z M228,156l4,0 0,4 -4,0 0,-4z M0,160l4,0 0,4 -4,0 0,-4z M8,160l4,0 0,4 -4,0 0,-4z M20,160l4,0 0,4 -4,0 0,-4z M24,160l4,0 0,4 -4,0 0,-4z M28,160l4,0 0,4 -4,0 0,-4z M44,160l4,0 0,4 -4,0 0,-4z M52,160l4,0 0,4 -4,0 0,-4z M60,160l4,0 0,4 -4,0 0,-4z M64,160l4,0 0,4 -4,0 0,-4z M68,160l4,0 0,4 -4,0 0,-4z M80,160l4,0 0,4 -4,0 0,-4z M84,160l4,0 0,4 -4,0 0,-4z M100,160l4,0 0,4 -4,0 0,-4z M104,160l4,0 0,4 -4,0 0,-4z M112,160l4,0 0,4 -4,0 0,-4z M116,160l4,0 0,4 -4,0 0,-4z M120,160l4,0 0,4 -4,0 0,-4z M124,160l4,0 0,4 -4,0 0,-4z M132,160l4,0 0,4 -4,0 0,-4z M136,160l4,0 0,4 -4,0 0,-4z M144,160l4,0 0,4 -4,0 0,-4z M148,160l4,0 0,4 -4,0 0,-4z M172,160l4,0 0,4 -4,0 0,-4z M176,160l4,0 0,4 -4,0 0,-4z M188,160l4,0 0,4 -4,0 0,-4z M192,160l4,0 0,4 -4,0 0,-4z M196,160l4,0 0,4 -4,0 0,-4z M200,160l4,0 0,4 -4,0 0,-4z M212,160l4,0 0,4 -4,0 0,-4z M216,160l4,0 0,4 -4,0 0,-4z M220,160l4,0 0,4 -4,0 0,-4z M232,160l4,0 0,4 -4,0 0,-4z M236,160l4,0 0,4 -4,0 0,-4z M0,164l4,0 0,4 -4,0 0,-4z M4,164l4,0 0,4 -4,0 0,-4z M8,164l4,0 0,4 -4,0 0,-4z M28,164l4,0 0,4 -4,0 0,-4z M32,164l4,0 0,4 -4,0 0,-4z M44,164l4,0 0,4 -4,0 0,-4z M48,164l4,0 0,4 -4,0 0,-4z M52,164l4,0 0,4 -4,0 0,-4z M56,164l4,0 0,4 -4,0 0,-4z M60,164l4,0 0,4 -4,0 0,-4z M76,164l4,0 0,4 -4,0 0,-4z M80,164l4,0 0,4 -4,0 0,-4z M84,164l4,0 0,4 -4,0 0,-4z M104,164l4,0 0,4 -4,0 0,-4z M120,164l4,0 0,4 -4,0 0,-4z M132,164l4,0 0,4 -4,0 0,-4z M144,164l4,0 0,4 -4,0 0,-4z M152,164l4,0 0,4 -4,0 0,-4z M156,164l4,0 0,4 -4,0 0,-4z M160,164l4,0 0,4 -4,0 0,-4z M176,164l4,0 0,4 -4,0 0,-4z M188,164l4,0 0,4 -4,0 0,-4z M192,164l4,0 0,4 -4,0 0,-4z M196,164l4,0 0,4 -4,0 0,-4z M200,164l4,0 0,4 -4,0 0,-4z M212,164l4,0 0,4 -4,0 0,-4z M224,164l4,0 0,4 -4,0 0,-4z M236,164l4,0 0,4 -4,0 0,-4z M4,168l4,0 0,4 -4,0 0,-4z M12,168l4,0 0,4 -4,0 0,-4z M24,168l4,0 0,4 -4,0 0,-4z M48,168l4,0 0,4 -4,0 0,-4z M56,168l4,0 0,4 -4,0 0,-4z M60,168l4,0 0,4 -4,0 0,-4z M64,168l4,0 0,4 -4,0 0,-4z M68,168l4,0 0,4 -4,0 0,-4z M72,168l4,0 0,4 -4,0 0,-4z M76,168l4,0 0,4 -4,0 0,-4z M80,168l4,0 0,4 -4,0 0,-4z M84,168l4,0 0,4 -4,0 0,-4z M104,168l4,0 0,4 -4,0 0,-4z M112,168l4,0 0,4 -4,0 0,-4z M120,168l4,0 0,4 -4,0 0,-4z M124,168l4,0 0,4 -4,0 0,-4z M132,168l4,0 0,4 -4,0 0,-4z M140,168l4,0 0,4 -4,0 0,-4z M144,168l4,0 0,4 -4,0 0,-4z M152,168l4,0 0,4 -4,0 0,-4z M160,168l4,0 0,4 -4,0 0,-4z M164,168l4,0 0,4 -4,0 0,-4z M172,168l4,0 0,4 -4,0 0,-4z M176,168l4,0 0,4 -4,0 0,-4z M192,168l4,0 0,4 -4,0 0,-4z M196,168l4,0 0,4 -4,0 0,-4z M208,168l4,0 0,4 -4,0 0,-4z M216,168l4,0 0,4 -4,0 0,-4z M228,168l4,0 0,4 -4,0 0,-4z M232,168l4,0 0,4 -4,0 0,-4z M240,168l4,0 0,4 -4,0 0,-4z M8,172l4,0 0,4 -4,0 0,-4z M20,172l4,0 0,4 -4,0 0,-4z M28,172l4,0 0,4 -4,0 0,-4z M32,172l4,0 0,4 -4,0 0,-4z M36,172l4,0 0,4 -4,0 0,-4z M48,172l4,0 0,4 -4,0 0,-4z M56,172l4,0 0,4 -4,0 0,-4z M64,172l4,0 0,4 -4,0 0,-4z M68,172l4,0 0,4 -4,0 0,-4z M96,172l4,0 0,4 -4,0 0,-4z M100,172l4,0 0,4 -4,0 0,-4z M104,172l4,0 0,4 -4,0 0,-4z M112,172l4,0 0,4 -4,0 0,-4z M116,172l4,0 0,4 -4,0 0,-4z M120,172l4,0 0,4 -4,0 0,-4z M156,172l4,0 0,4 -4,0 0,-4z M160,172l4,0 0,4 -4,0 0,-4z M164,172l4,0 0,4 -4,0 0,-4z M172,172l4,0 0,4 -4,0 0,-4z M176,172l4,0 0,4 -4,0 0,-4z M184,172l4,0 0,4 -4,0 0,-4z M192,172l4,0 0,4 -4,0 0,-4z M216,172l4,0 0,4 -4,0 0,-4z M228,172l4,0 0,4 -4,0 0,-4z M232,172l4,0 0,4 -4,0 0,-4z M0,176l4,0 0,4 -4,0 0,-4z M8,176l4,0 0,4 -4,0 0,-4z M12,176l4,0 0,4 -4,0 0,-4z M16,176l4,0 0,4 -4,0 0,-4z M20,176l4,0 0,4 -4,0 0,-4z M24,176l4,0 0,4 -4,0 0,-4z M44,176l4,0 0,4 -4,0 0,-4z M52,176l4,0 0,4 -4,0 0,-4z M60,176l4,0 0,4 -4,0 0,-4z M68,176l4,0 0,4 -4,0 0,-4z M72,176l4,0 0,4 -4,0 0,-4z M76,176l4,0 0,4 -4,0 0,-4z M80,176l4,0 0,4 -4,0 0,-4z M84,176l4,0 0,4 -4,0 0,-4z M88,176l4,0 0,4 -4,0 0,-4z M92,176l4,0 0,4 -4,0 0,-4z M100,176l4,0 0,4 -4,0 0,-4z M112,176l4,0 0,4 -4,0 0,-4z M120,176l4,0 0,4 -4,0 0,-4z M128,176l4,0 0,4 -4,0 0,-4z M132,176l4,0 0,4 -4,0 0,-4z M136,176l4,0 0,4 -4,0 0,-4z M140,176l4,0 0,4 -4,0 0,-4z M144,176l4,0 0,4 -4,0 0,-4z M148,176l4,0 0,4 -4,0 0,-4z M156,176l4,0 0,4 -4,0 0,-4z M160,176l4,0 0,4 -4,0 0,-4z M180,176l4,0 0,4 -4,0 0,-4z M184,176l4,0 0,4 -4,0 0,-4z M188,176l4,0 0,4 -4,0 0,-4z M192,176l4,0 0,4 -4,0 0,-4z M200,176l4,0 0,4 -4,0 0,-4z M212,176l4,0 0,4 -4,0 0,-4z M216,176l4,0 0,4 -4,0 0,-4z M220,176l4,0 0,4 -4,0 0,-4z M224,176l4,0 0,4 -4,0 0,-4z M228,176l4,0 0,4 -4,0 0,-4z M236,176l4,0 0,4 -4,0 0,-4z M240,176l4,0 0,4 -4,0 0,-4z M8,180l4,0 0,4 -4,0 0,-4z M28,180l4,0 0,4 -4,0 0,-4z M36,180l4,0 0,4 -4,0 0,-4z M40,180l4,0 0,4 -4,0 0,-4z M44,180l4,0 0,4 -4,0 0,-4z M52,180l4,0 0,4 -4,0 0,-4z M60,180l4,0 0,4 -4,0 0,-4z M72,180l4,0 0,4 -4,0 0,-4z M76,180l4,0 0,4 -4,0 0,-4z M84,180l4,0 0,4 -4,0 0,-4z M88,180l4,0 0,4 -4,0 0,-4z M100,180l4,0 0,4 -4,0 0,-4z M104,180l4,0 0,4 -4,0 0,-4z M108,180l4,0 0,4 -4,0 0,-4z M112,180l4,0 0,4 -4,0 0,-4z M116,180l4,0 0,4 -4,0 0,-4z M148,180l4,0 0,4 -4,0 0,-4z M160,180l4,0 0,4 -4,0 0,-4z M164,180l4,0 0,4 -4,0 0,-4z M204,180l4,0 0,4 -4,0 0,-4z M212,180l4,0 0,4 -4,0 0,-4z M216,180l4,0 0,4 -4,0 0,-4z M220,180l4,0 0,4 -4,0 0,-4z M236,180l4,0 0,4 -4,0 0,-4z M240,180l4,0 0,4 -4,0 0,-4z M0,184l4,0 0,4 -4,0 0,-4z M4,184l4,0 0,4 -4,0 0,-4z M8,184l4,0 0,4 -4,0 0,-4z M16,184l4,0 0,4 -4,0 0,-4z M24,184l4,0 0,4 -4,0 0,-4z M28,184l4,0 0,4 -4,0 0,-4z M36,184l4,0 0,4 -4,0 0,-4z M40,184l4,0 0,4 -4,0 0,-4z M44,184l4,0 0,4 -4,0 0,-4z M48,184l4,0 0,4 -4,0 0,-4z M56,184l4,0 0,4 -4,0 0,-4z M68,184l4,0 0,4 -4,0 0,-4z M80,184l4,0 0,4 -4,0 0,-4z M92,184l4,0 0,4 -4,0 0,-4z M100,184l4,0 0,4 -4,0 0,-4z M104,184l4,0 0,4 -4,0 0,-4z M108,184l4,0 0,4 -4,0 0,-4z M120,184l4,0 0,4 -4,0 0,-4z M124,184l4,0 0,4 -4,0 0,-4z M128,184l4,0 0,4 -4,0 0,-4z M132,184l4,0 0,4 -4,0 0,-4z M136,184l4,0 0,4 -4,0 0,-4z M144,184l4,0 0,4 -4,0 0,-4z M152,184l4,0 0,4 -4,0 0,-4z M176,184l4,0 0,4 -4,0 0,-4z M188,184l4,0 0,4 -4,0 0,-4z M192,184l4,0 0,4 -4,0 0,-4z M196,184l4,0 0,4 -4,0 0,-4z M216,184l4,0 0,4 -4,0 0,-4z M228,184l4,0 0,4 -4,0 0,-4z M236,184l4,0 0,4 -4,0 0,-4z M240,184l4,0 0,4 -4,0 0,-4z M4,188l4,0 0,4 -4,0 0,-4z M8,188l4,0 0,4 -4,0 0,-4z M16,188l4,0 0,4 -4,0 0,-4z M20,188l4,0 0,4 -4,0 0,-4z M36,188l4,0 0,4 -4,0 0,-4z M52,188l4,0 0,4 -4,0 0,-4z M60,188l4,0 0,4 -4,0 0,-4z M64,188l4,0 0,4 -4,0 0,-4z M68,188l4,0 0,4 -4,0 0,-4z M80,188l4,0 0,4 -4,0 0,-4z M112,188l4,0 0,4 -4,0 0,-4z M120,188l4,0 0,4 -4,0 0,-4z M136,188l4,0 0,4 -4,0 0,-4z M140,188l4,0 0,4 -4,0 0,-4z M144,188l4,0 0,4 -4,0 0,-4z M152,188l4,0 0,4 -4,0 0,-4z M160,188l4,0 0,4 -4,0 0,-4z M164,188l4,0 0,4 -4,0 0,-4z M176,188l4,0 0,4 -4,0 0,-4z M180,188l4,0 0,4 -4,0 0,-4z M188,188l4,0 0,4 -4,0 0,-4z M192,188l4,0 0,4 -4,0 0,-4z M196,188l4,0 0,4 -4,0 0,-4z M200,188l4,0 0,4 -4,0 0,-4z M208,188l4,0 0,4 -4,0 0,-4z M216,188l4,0 0,4 -4,0 0,-4z M228,188l4,0 0,4 -4,0 0,-4z M0,192l4,0 0,4 -4,0 0,-4z M4,192l4,0 0,4 -4,0 0,-4z M8,192l4,0 0,4 -4,0 0,-4z M12,192l4,0 0,4 -4,0 0,-4z M16,192l4,0 0,4 -4,0 0,-4z M20,192l4,0 0,4 -4,0 0,-4z M24,192l4,0 0,4 -4,0 0,-4z M32,192l4,0 0,4 -4,0 0,-4z M36,192l4,0 0,4 -4,0 0,-4z M40,192l4,0 0,4 -4,0 0,-4z M48,192l4,0 0,4 -4,0 0,-4z M52,192l4,0 0,4 -4,0 0,-4z M56,192l4,0 0,4 -4,0 0,-4z M64,192l4,0 0,4 -4,0 0,-4z M68,192l4,0 0,4 -4,0 0,-4z M72,192l4,0 0,4 -4,0 0,-4z M76,192l4,0 0,4 -4,0 0,-4z M88,192l4,0 0,4 -4,0 0,-4z M92,192l4,0 0,4 -4,0 0,-4z M96,192l4,0 0,4 -4,0 0,-4z M100,192l4,0 0,4 -4,0 0,-4z M104,192l4,0 0,4 -4,0 0,-4z M108,192l4,0 0,4 -4,0 0,-4z M120,192l4,0 0,4 -4,0 0,-4z M144,192l4,0 0,4 -4,0 0,-4z M160,192l4,0 0,4 -4,0 0,-4z M164,192l4,0 0,4 -4,0 0,-4z M168,192l4,0 0,4 -4,0 0,-4z M172,192l4,0 0,4 -4,0 0,-4z M176,192l4,0 0,4 -4,0 0,-4z M180,192l4,0 0,4 -4,0 0,-4z M184,192l4,0 0,4 -4,0 0,-4z M192,192l4,0 0,4 -4,0 0,-4z M208,192l4,0 0,4 -4,0 0,-4z M228,192l4,0 0,4 -4,0 0,-4z M236,192l4,0 0,4 -4,0 0,-4z M0,196l4,0 0,4 -4,0 0,-4z M4,196l4,0 0,4 -4,0 0,-4z M8,196l4,0 0,4 -4,0 0,-4z M12,196l4,0 0,4 -4,0 0,-4z M16,196l4,0 0,4 -4,0 0,-4z M20,196l4,0 0,4 -4,0 0,-4z M40,196l4,0 0,4 -4,0 0,-4z M44,196l4,0 0,4 -4,0 0,-4z M72,196l4,0 0,4 -4,0 0,-4z M88,196l4,0 0,4 -4,0 0,-4z M92,196l4,0 0,4 -4,0 0,-4z M104,196l4,0 0,4 -4,0 0,-4z M112,196l4,0 0,4 -4,0 0,-4z M116,196l4,0 0,4 -4,0 0,-4z M120,196l4,0 0,4 -4,0 0,-4z M124,196l4,0 0,4 -4,0 0,-4z M128,196l4,0 0,4 -4,0 0,-4z M136,196l4,0 0,4 -4,0 0,-4z M160,196l4,0 0,4 -4,0 0,-4z M164,196l4,0 0,4 -4,0 0,-4z M176,196l4,0 0,4 -4,0 0,-4z M180,196l4,0 0,4 -4,0 0,-4z M184,196l4,0 0,4 -4,0 0,-4z M192,196l4,0 0,4 -4,0 0,-4z M228,196l4,0 0,4 -4,0 0,-4z M232,196l4,0 0,4 -4,0 0,-4z M236,196l4,0 0,4 -4,0 0,-4z M8,200l4,0 0,4 -4,0 0,-4z M12,200l4,0 0,4 -4,0 0,-4z M16,200l4,0 0,4 -4,0 0,-4z M20,200l4,0 0,4 -4,0 0,-4z M24,200l4,0 0,4 -4,0 0,-4z M28,200l4,0 0,4 -4,0 0,-4z M72,200l4,0 0,4 -4,0 0,-4z M76,200l4,0 0,4 -4,0 0,-4z M88,200l4,0 0,4 -4,0 0,-4z M96,200l4,0 0,4 -4,0 0,-4z M100,200l4,0 0,4 -4,0 0,-4z M116,200l4,0 0,4 -4,0 0,-4z M120,200l4,0 0,4 -4,0 0,-4z M128,200l4,0 0,4 -4,0 0,-4z M144,200l4,0 0,4 -4,0 0,-4z M148,200l4,0 0,4 -4,0 0,-4z M152,200l4,0 0,4 -4,0 0,-4z M160,200l4,0 0,4 -4,0 0,-4z M172,200l4,0 0,4 -4,0 0,-4z M176,200l4,0 0,4 -4,0 0,-4z M180,200l4,0 0,4 -4,0 0,-4z M188,200l4,0 0,4 -4,0 0,-4z M192,200l4,0 0,4 -4,0 0,-4z M200,200l4,0 0,4 -4,0 0,-4z M208,200l4,0 0,4 -4,0 0,-4z M216,200l4,0 0,4 -4,0 0,-4z M224,200l4,0 0,4 -4,0 0,-4z M240,200l4,0 0,4 -4,0 0,-4z M0,204l4,0 0,4 -4,0 0,-4z M4,204l4,0 0,4 -4,0 0,-4z M8,204l4,0 0,4 -4,0 0,-4z M16,204l4,0 0,4 -4,0 0,-4z M28,204l4,0 0,4 -4,0 0,-4z M44,204l4,0 0,4 -4,0 0,-4z M52,204l4,0 0,4 -4,0 0,-4z M56,204l4,0 0,4 -4,0 0,-4z M64,204l4,0 0,4 -4,0 0,-4z M84,204l4,0 0,4 -4,0 0,-4z M92,204l4,0 0,4 -4,0 0,-4z M100,204l4,0 0,4 -4,0 0,-4z M108,204l4,0 0,4 -4,0 0,-4z M112,204l4,0 0,4 -4,0 0,-4z M132,204l4,0 0,4 -4,0 0,-4z M140,204l4,0 0,4 -4,0 0,-4z M144,204l4,0 0,4 -4,0 0,-4z M148,204l4,0 0,4 -4,0 0,-4z M156,204l4,0 0,4 -4,0 0,-4z M160,204l4,0 0,4 -4,0 0,-4z M176,204l4,0 0,4 -4,0 0,-4z M192,204l4,0 0,4 -4,0 0,-4z M208,204l4,0 0,4 -4,0 0,-4z M212,204l4,0 0,4 -4,0 0,-4z M216,204l4,0 0,4 -4,0 0,-4z M220,204l4,0 0,4 -4,0 0,-4z M228,204l4,0 0,4 -4,0 0,-4z M240,204l4,0 0,4 -4,0 0,-4z M0,208l4,0 0,4 -4,0 0,-4z M4,208l4,0 0,4 -4,0 0,-4z M8,208l4,0 0,4 -4,0 0,-4z M12,208l4,0 0,4 -4,0 0,-4z M24,208l4,0 0,4 -4,0 0,-4z M28,208l4,0 0,4 -4,0 0,-4z M32,208l4,0 0,4 -4,0 0,-4z M36,208l4,0 0,4 -4,0 0,-4z M40,208l4,0 0,4 -4,0 0,-4z M44,208l4,0 0,4 -4,0 0,-4z M48,208l4,0 0,4 -4,0 0,-4z M52,208l4,0 0,4 -4,0 0,-4z M56,208l4,0 0,4 -4,0 0,-4z M60,208l4,0 0,4 -4,0 0,-4z M64,208l4,0 0,4 -4,0 0,-4z M72,208l4,0 0,4 -4,0 0,-4z M84,208l4,0 0,4 -4,0 0,-4z M104,208l4,0 0,4 -4,0 0,-4z M112,208l4,0 0,4 -4,0 0,-4z M116,208l4,0 0,4 -4,0 0,-4z M120,208l4,0 0,4 -4,0 0,-4z M124,208l4,0 0,4 -4,0 0,-4z M128,208l4,0 0,4 -4,0 0,-4z M132,208l4,0 0,4 -4,0 0,-4z M140,208l4,0 0,4 -4,0 0,-4z M144,208l4,0 0,4 -4,0 0,-4z M148,208l4,0 0,4 -4,0 0,-4z M156,208l4,0 0,4 -4,0 0,-4z M168,208l4,0 0,4 -4,0 0,-4z M172,208l4,0 0,4 -4,0 0,-4z M176,208l4,0 0,4 -4,0 0,-4z M180,208l4,0 0,4 -4,0 0,-4z M192,208l4,0 0,4 -4,0 0,-4z M200,208l4,0 0,4 -4,0 0,-4z M208,208l4,0 0,4 -4,0 0,-4z M212,208l4,0 0,4 -4,0 0,-4z M216,208l4,0 0,4 -4,0 0,-4z M220,208l4,0 0,4 -4,0 0,-4z M224,208l4,0 0,4 -4,0 0,-4z M228,208l4,0 0,4 -4,0 0,-4z M232,208l4,0 0,4 -4,0 0,-4z M240,208l4,0 0,4 -4,0 0,-4z M32,212l4,0 0,4 -4,0 0,-4z M36,212l4,0 0,4 -4,0 0,-4z M44,212l4,0 0,4 -4,0 0,-4z M56,212l4,0 0,4 -4,0 0,-4z M60,212l4,0 0,4 -4,0 0,-4z M68,212l4,0 0,4 -4,0 0,-4z M72,212l4,0 0,4 -4,0 0,-4z M76,212l4,0 0,4 -4,0 0,-4z M80,212l4,0 0,4 -4,0 0,-4z M84,212l4,0 0,4 -4,0 0,-4z M88,212l4,0 0,4 -4,0 0,-4z M92,212l4,0 0,4 -4,0 0,-4z M100,212l4,0 0,4 -4,0 0,-4z M112,212l4,0 0,4 -4,0 0,-4z M128,212l4,0 0,4 -4,0 0,-4z M132,212l4,0 0,4 -4,0 0,-4z M144,212l4,0 0,4 -4,0 0,-4z M152,212l4,0 0,4 -4,0 0,-4z M172,212l4,0 0,4 -4,0 0,-4z M180,212l4,0 0,4 -4,0 0,-4z M192,212l4,0 0,4 -4,0 0,-4z M196,212l4,0 0,4 -4,0 0,-4z M200,212l4,0 0,4 -4,0 0,-4z M204,212l4,0 0,4 -4,0 0,-4z M208,212l4,0 0,4 -4,0 0,-4z M224,212l4,0 0,4 -4,0 0,-4z M232,212l4,0 0,4 -4,0 0,-4z M236,212l4,0 0,4 -4,0 0,-4z M240,212l4,0 0,4 -4,0 0,-4z M0,216l4,0 0,4 -4,0 0,-4z M4,216l4,0 0,4 -4,0 0,-4z M8,216l4,0 0,4 -4,0 0,-4z M12,216l4,0 0,4 -4,0 0,-4z M16,216l4,0 0,4 -4,0 0,-4z M20,216l4,0 0,4 -4,0 0,-4z M24,216l4,0 0,4 -4,0 0,-4z M32,216l4,0 0,4 -4,0 0,-4z M40,216l4,0 0,4 -4,0 0,-4z M44,216l4,0 0,4 -4,0 0,-4z M48,216l4,0 0,4 -4,0 0,-4z M72,216l4,0 0,4 -4,0 0,-4z M76,216l4,0 0,4 -4,0 0,-4z M88,216l4,0 0,4 -4,0 0,-4z M92,216l4,0 0,4 -4,0 0,-4z M100,216l4,0 0,4 -4,0 0,-4z M108,216l4,0 0,4 -4,0 0,-4z M112,216l4,0 0,4 -4,0 0,-4z M120,216l4,0 0,4 -4,0 0,-4z M128,216l4,0 0,4 -4,0 0,-4z M132,216l4,0 0,4 -4,0 0,-4z M136,216l4,0 0,4 -4,0 0,-4z M140,216l4,0 0,4 -4,0 0,-4z M144,216l4,0 0,4 -4,0 0,-4z M152,216l4,0 0,4 -4,0 0,-4z M156,216l4,0 0,4 -4,0 0,-4z M164,216l4,0 0,4 -4,0 0,-4z M176,216l4,0 0,4 -4,0 0,-4z M180,216l4,0 0,4 -4,0 0,-4z M192,216l4,0 0,4 -4,0 0,-4z M196,216l4,0 0,4 -4,0 0,-4z M204,216l4,0 0,4 -4,0 0,-4z M208,216l4,0 0,4 -4,0 0,-4z M216,216l4,0 0,4 -4,0 0,-4z M224,216l4,0 0,4 -4,0 0,-4z M228,216l4,0 0,4 -4,0 0,-4z M240,216l4,0 0,4 -4,0 0,-4z M0,220l4,0 0,4 -4,0 0,-4z M24,220l4,0 0,4 -4,0 0,-4z M36,220l4,0 0,4 -4,0 0,-4z M40,220l4,0 0,4 -4,0 0,-4z M48,220l4,0 0,4 -4,0 0,-4z M60,220l4,0 0,4 -4,0 0,-4z M64,220l4,0 0,4 -4,0 0,-4z M96,220l4,0 0,4 -4,0 0,-4z M104,220l4,0 0,4 -4,0 0,-4z M112,220l4,0 0,4 -4,0 0,-4z M128,220l4,0 0,4 -4,0 0,-4z M136,220l4,0 0,4 -4,0 0,-4z M140,220l4,0 0,4 -4,0 0,-4z M144,220l4,0 0,4 -4,0 0,-4z M164,220l4,0 0,4 -4,0 0,-4z M168,220l4,0 0,4 -4,0 0,-4z M176,220l4,0 0,4 -4,0 0,-4z M192,220l4,0 0,4 -4,0 0,-4z M208,220l4,0 0,4 -4,0 0,-4z M224,220l4,0 0,4 -4,0 0,-4z M228,220l4,0 0,4 -4,0 0,-4z M232,220l4,0 0,4 -4,0 0,-4z M236,220l4,0 0,4 -4,0 0,-4z M240,220l4,0 0,4 -4,0 0,-4z M0,224l4,0 0,4 -4,0 0,-4z M8,224l4,0 0,4 -4,0 0,-4z M12,224l4,0 0,4 -4,0 0,-4z M16,224l4,0 0,4 -4,0 0,-4z M24,224l4,0 0,4 -4,0 0,-4z M48,224l4,0 0,4 -4,0 0,-4z M68,224l4,0 0,4 -4,0 0,-4z M72,224l4,0 0,4 -4,0 0,-4z M88,224l4,0 0,4 -4,0 0,-4z M92,224l4,0 0,4 -4,0 0,-4z M100,224l4,0 0,4 -4,0 0,-4z M104,224l4,0 0,4 -4,0 0,-4z M112,224l4,0 0,4 -4,0 0,-4z M116,224l4,0 0,4 -4,0 0,-4z M120,224l4,0 0,4 -4,0 0,-4z M124,224l4,0 0,4 -4,0 0,-4z M128,224l4,0 0,4 -4,0 0,-4z M136,224l4,0 0,4 -4,0 0,-4z M144,224l4,0 0,4 -4,0 0,-4z M148,224l4,0 0,4 -4,0 0,-4z M152,224l4,0 0,4 -4,0 0,-4z M160,224l4,0 0,4 -4,0 0,-4z M164,224l4,0 0,4 -4,0 0,-4z M168,224l4,0 0,4 -4,0 0,-4z M172,224l4,0 0,4 -4,0 0,-4z M180,224l4,0 0,4 -4,0 0,-4z M188,224l4,0 0,4 -4,0 0,-4z M192,224l4,0 0,4 -4,0 0,-4z M208,224l4,0 0,4 -4,0 0,-4z M212,224l4,0 0,4 -4,0 0,-4z M216,224l4,0 0,4 -4,0 0,-4z M220,224l4,0 0,4 -4,0 0,-4z M224,224l4,0 0,4 -4,0 0,-4z M236,224l4,0 0,4 -4,0 0,-4z M240,224l4,0 0,4 -4,0 0,-4z M0,228l4,0 0,4 -4,0 0,-4z M8,228l4,0 0,4 -4,0 0,-4z M12,228l4,0 0,4 -4,0 0,-4z M16,228l4,0 0,4 -4,0 0,-4z M24,228l4,0 0,4 -4,0 0,-4z M32,228l4,0 0,4 -4,0 0,-4z M36,228l4,0 0,4 -4,0 0,-4z M40,228l4,0 0,4 -4,0 0,-4z M48,228l4,0 0,4 -4,0 0,-4z M56,228l4,0 0,4 -4,0 0,-4z M60,228l4,0 0,4 -4,0 0,-4z M80,228l4,0 0,4 -4,0 0,-4z M84,228l4,0 0,4 -4,0 0,-4z M88,228l4,0 0,4 -4,0 0,-4z M100,228l4,0 0,4 -4,0 0,-4z M108,228l4,0 0,4 -4,0 0,-4z M112,228l4,0 0,4 -4,0 0,-4z M116,228l4,0 0,4 -4,0 0,-4z M132,228l4,0 0,4 -4,0 0,-4z M148,228l4,0 0,4 -4,0 0,-4z M156,228l4,0 0,4 -4,0 0,-4z M160,228l4,0 0,4 -4,0 0,-4z M172,228l4,0 0,4 -4,0 0,-4z M196,228l4,0 0,4 -4,0 0,-4z M208,228l4,0 0,4 -4,0 0,-4z M216,228l4,0 0,4 -4,0 0,-4z M220,228l4,0 0,4 -4,0 0,-4z M228,228l4,0 0,4 -4,0 0,-4z M236,228l4,0 0,4 -4,0 0,-4z M0,232l4,0 0,4 -4,0 0,-4z M8,232l4,0 0,4 -4,0 0,-4z M12,232l4,0 0,4 -4,0 0,-4z M16,232l4,0 0,4 -4,0 0,-4z M24,232l4,0 0,4 -4,0 0,-4z M44,232l4,0 0,4 -4,0 0,-4z M48,232l4,0 0,4 -4,0 0,-4z M52,232l4,0 0,4 -4,0 0,-4z M60,232l4,0 0,4 -4,0 0,-4z M64,232l4,0 0,4 -4,0 0,-4z M68,232l4,0 0,4 -4,0 0,-4z M72,232l4,0 0,4 -4,0 0,-4z M76,232l4,0 0,4 -4,0 0,-4z M84,232l4,0 0,4 -4,0 0,-4z M92,232l4,0 0,4 -4,0 0,-4z M100,232l4,0 0,4 -4,0 0,-4z M104,232l4,0 0,4 -4,0 0,-4z M108,232l4,0 0,4 -4,0 0,-4z M116,232l4,0 0,4 -4,0 0,-4z M120,232l4,0 0,4 -4,0 0,-4z M124,232l4,0 0,4 -4,0 0,-4z M128,232l4,0 0,4 -4,0 0,-4z M132,232l4,0 0,4 -4,0 0,-4z M136,232l4,0 0,4 -4,0 0,-4z M144,232l4,0 0,4 -4,0 0,-4z M148,232l4,0 0,4 -4,0 0,-4z M176,232l4,0 0,4 -4,0 0,-4z M184,232l4,0 0,4 -4,0 0,-4z M188,232l4,0 0,4 -4,0 0,-4z M192,232l4,0 0,4 -4,0 0,-4z M224,232l4,0 0,4 -4,0 0,-4z M232,232l4,0 0,4 -4,0 0,-4z M240,232l4,0 0,4 -4,0 0,-4z M0,236l4,0 0,4 -4,0 0,-4z M24,236l4,0 0,4 -4,0 0,-4z M32,236l4,0 0,4 -4,0 0,-4z M40,236l4,0 0,4 -4,0 0,-4z M44,236l4,0 0,4 -4,0 0,-4z M60,236l4,0 0,4 -4,0 0,-4z M68,236l4,0 0,4 -4,0 0,-4z M84,236l4,0 0,4 -4,0 0,-4z M88,236l4,0 0,4 -4,0 0,-4z M92,236l4,0 0,4 -4,0 0,-4z M96,236l4,0 0,4 -4,0 0,-4z M100,236l4,0 0,4 -4,0 0,-4z M108,236l4,0 0,4 -4,0 0,-4z M112,236l4,0 0,4 -4,0 0,-4z M116,236l4,0 0,4 -4,0 0,-4z M124,236l4,0 0,4 -4,0 0,-4z M132,236l4,0 0,4 -4,0 0,-4z M160,236l4,0 0,4 -4,0 0,-4z M164,236l4,0 0,4 -4,0 0,-4z M172,236l4,0 0,4 -4,0 0,-4z M192,236l4,0 0,4 -4,0 0,-4z M204,236l4,0 0,4 -4,0 0,-4z M208,236l4,0 0,4 -4,0 0,-4z M212,236l4,0 0,4 -4,0 0,-4z M228,236l4,0 0,4 -4,0 0,-4z M0,240l4,0 0,4 -4,0 0,-4z M4,240l4,0 0,4 -4,0 0,-4z M8,240l4,0 0,4 -4,0 0,-4z M12,240l4,0 0,4 -4,0 0,-4z M16,240l4,0 0,4 -4,0 0,-4z M20,240l4,0 0,4 -4,0 0,-4z M24,240l4,0 0,4 -4,0 0,-4z M32,240l4,0 0,4 -4,0 0,-4z M36,240l4,0 0,4 -4,0 0,-4z M44,240l4,0 0,4 -4,0 0,-4z M48,240l4,0 0,4 -4,0 0,-4z M56,240l4,0 0,4 -4,0 0,-4z M60,240l4,0 0,4 -4,0 0,-4z M72,240l4,0 0,4 -4,0 0,-4z M88,240l4,0 0,4 -4,0 0,-4z M100,240l4,0 0,4 -4,0 0,-4z M104,240l4,0 0,4 -4,0 0,-4z M108,240l4,0 0,4 -4,0 0,-4z M112,240l4,0 0,4 -4,0 0,-4z M128,240l4,0 0,4 -4,0 0,-4z M132,240l4,0 0,4 -4,0 0,-4z M140,240l4,0 0,4 -4,0 0,-4z M160,240l4,0 0,4 -4,0 0,-4z M164,240l4,0 0,4 -4,0 0,-4z M168,240l4,0 0,4 -4,0 0,-4z M176,240l4,0 0,4 -4,0 0,-4z M184,240l4,0 0,4 -4,0 0,-4z M192,240l4,0 0,4 -4,0 0,-4z M200,240l4,0 0,4 -4,0 0,-4z M208,240l4,0 0,4 -4,0 0,-4z M220,240l4,0 0,4 -4,0 0,-4z M224,240l4,0 0,4 -4,0 0,-4z M228,240l4,0 0,4 -4,0 0,-4z M236,240l4,0 0,4 -4,0 0,-4z M240,240l4,0 0,4 -4,0 0,-4z " stroke-opacity="0"/>
</symbol><symbol viewBox="0 0 16 16" id="modal-question" xmlns="http://www.w3.org/2000/svg">
    <path fill-rule="evenodd" clip-rule="evenodd" d="M5.56608 4.42584C5.82527 3.32158 6.8176 2.5 8.00001 2.5C9.38072 2.5 10.5 3.61929 10.5 5C10.5 5.63026 10.3391 6.0386 10.1264 6.34455C9.90018 6.66993 9.58561 6.92478 9.18864 7.20877C9.12579 7.25372 9.05873 7.30025 8.9887 7.34883C8.27392 7.84472 7.25001 8.55507 7.25001 10V10.25C7.25001 10.6642 7.5858 11 8.00001 11C8.41422 11 8.75001 10.6642 8.75001 10.25V10C8.75001 9.36502 9.10777 9.1096 9.94554 8.51149L10.0614 8.42873C10.4769 8.13147 10.9748 7.75194 11.358 7.20076C11.7547 6.63015 12 5.91973 12 5C12 2.79086 10.2091 1 8.00001 1C6.10564 1 4.5205 2.31615 4.10577 4.08308C4.01112 4.48634 4.26129 4.88997 4.66454 4.98462C5.0678 5.07927 5.47143 4.8291 5.56608 4.42584ZM8.00001 15C8.60752 15 9.10001 14.5075 9.10001 13.9C9.10001 13.2925 8.60752 12.8 8.00001 12.8C7.39249 12.8 6.90001 13.2925 6.90001 13.9C6.90001 14.5075 7.39249 15 8.00001 15Z"/>
</symbol><symbol viewBox="0 0 158 28" id="modal-ton-connect" xmlns="http://www.w3.org/2000/svg">
    <path fill-rule="evenodd" clip-rule="evenodd" d="M28 14.001C28 21.733 21.732 28.001 14 28.001C6.26801 28.001 0 21.733 0 14.001C0 6.26899 6.26801 0.000976562 14 0.000976562C21.732 0.000976562 28 6.26899 28 14.001ZM9.21931 8.00098H18.7801H18.7813C20.538 8.00098 21.6522 9.89966 20.7691 11.4302L14.8672 21.6576C14.4822 22.3254 13.5172 22.3254 13.1322 21.6576L7.23158 11.4302C6.34721 9.89726 7.4614 8.00098 9.21931 8.00098ZM13.1262 18.5882V9.74806H9.21811C8.78976 9.74806 8.53708 10.2029 8.74163 10.5578L11.8423 16.1035L13.1262 18.5882ZM16.1559 16.1047L19.2554 10.5566C19.4599 10.2017 19.2073 9.74685 18.7789 9.74685H14.8709V18.5906L16.1559 16.1047Z"/>
    <path d="M18.7802 8.00098H9.21936C7.46145 8.00098 6.34727 9.89726 7.23164 11.4302L13.1322 21.6576C13.5173 22.3254 14.4823 22.3254 14.8673 21.6576L20.7691 11.4302C21.6523 9.89966 20.5381 8.00098 18.7814 8.00098H18.7802ZM13.1274 18.5906L11.8424 16.1035L8.74168 10.5578C8.53714 10.2029 8.78981 9.74806 9.21816 9.74806H13.1262V18.5918L13.1274 18.5906ZM19.2555 10.5566L16.156 16.1047L14.8709 18.5906V9.74685H18.779C19.2073 9.74685 19.46 10.2017 19.2555 10.5566Z"/>
    <path fill-rule="evenodd" clip-rule="evenodd" d="M51.7483 22.1967C55.7182 22.1967 58.9609 18.954 58.9609 14.9841C58.9609 11.0142 55.7182 7.77148 51.7483 7.77148C47.7588 7.77148 44.5357 11.0142 44.5357 14.9841C44.5357 18.954 47.7588 22.1967 51.7483 22.1967ZM51.7483 19.1702C49.4686 19.1702 47.6802 17.2442 47.6802 14.9841C47.6802 12.724 49.4686 10.798 51.7483 10.798C54.0084 10.798 55.7968 12.724 55.7968 14.9841C55.7968 17.2442 54.0084 19.1702 51.7483 19.1702ZM37.0698 21.9609H40.2142V10.9946H44.2843V8.00732H33V10.9946H37.0698V21.9609ZM69.9379 8.00732H73.0823V21.9609H70.3899L63.59 13.3333V21.9609H60.4652V8.00732H63.1576L69.9379 16.6153V8.00732ZM79.2259 14.9887C79.2259 10.9202 82.351 7.77539 86.4982 7.77539C89.8592 7.77539 92.5519 9.95709 93.2202 12.6891H90.7437C90.154 11.0971 88.4637 9.9964 86.4982 9.9964C83.5893 9.9964 81.5452 12.1781 81.5452 14.9887C81.5452 17.7994 83.5893 19.9811 86.4982 19.9811C88.4637 19.9811 90.154 18.8804 90.7437 17.2884H93.2202C92.5519 20.0204 89.8592 22.2021 86.4982 22.2021C82.351 22.2021 79.2259 19.0573 79.2259 14.9887ZM104.584 17.0525C104.584 19.9025 102.343 22.1628 99.4342 22.1628C96.5253 22.1628 94.2846 19.9025 94.2846 17.0525C94.2846 14.2025 96.5253 11.9422 99.4342 11.9422C102.343 11.9422 104.584 14.2025 104.584 17.0525ZM96.4663 17.0525C96.4663 18.8018 97.6849 20.158 99.4342 20.158C101.164 20.158 102.382 18.8018 102.382 17.0525C102.382 15.3032 101.164 13.947 99.4342 13.947C97.6849 13.947 96.4663 15.3032 96.4663 17.0525ZM108.626 12.1388H106.463V21.9662H108.626V17.1311C108.626 15.0281 109.726 13.9077 111.161 13.9077C112.419 13.9077 113.205 14.8512 113.205 16.4039V21.9662H115.367V16.0501C115.367 13.5539 113.893 11.9422 111.613 11.9422C110.335 11.9422 109.215 12.4926 108.626 13.4753V12.1388ZM117.839 12.1388H120.001V13.4753C120.59 12.4926 121.711 11.9422 122.988 11.9422C125.268 11.9422 126.742 13.5539 126.742 16.0501V21.9662H124.58V16.4039C124.58 14.8512 123.794 13.9077 122.536 13.9077C121.101 13.9077 120.001 15.0281 120.001 17.1311V21.9662H117.839V12.1388ZM133.558 22.1628C136.054 22.1628 137.823 20.728 138.373 18.8804H136.113C135.661 19.8238 134.717 20.2563 133.636 20.2563C131.887 20.2563 130.747 19.077 130.668 17.5832H138.491C138.688 14.2419 136.585 11.9422 133.577 11.9422C130.551 11.9422 128.526 14.1436 128.526 17.0525C128.526 20.0007 130.629 22.1628 133.558 22.1628ZM130.747 16.0501C131.042 14.5367 132.162 13.7505 133.518 13.7505C134.717 13.7505 135.838 14.4581 136.172 16.0501H130.747ZM149.851 18.3694C149.32 20.5511 147.453 22.1628 144.859 22.1628C141.871 22.1628 139.709 19.8828 139.709 17.0525C139.709 14.2222 141.871 11.9422 144.859 11.9422C147.453 11.9422 149.32 13.5539 149.851 15.7356H147.571C147.178 14.6743 146.215 13.9077 144.859 13.9077C143.109 13.9077 141.91 15.2246 141.91 17.0525C141.91 18.8804 143.109 20.1973 144.859 20.1973C146.215 20.1973 147.178 19.4307 147.571 18.3694H149.851ZM155.75 22.0645C156.418 22.0645 156.929 21.9859 157.362 21.8483V19.9221C157.047 20.0401 156.615 20.1187 156.202 20.1187C155.082 20.1187 154.551 19.6666 154.551 18.448V14.065H157.362V12.1388H154.551V9.40675H152.389V12.1388H150.345V14.065H152.389V18.8018C152.389 21.0228 153.863 22.0645 155.75 22.0645Z"/>
</symbol><symbol viewBox="0 0 16 16" id="modal-web" xmlns="http://www.w3.org/2000/svg">
    <path fill-rule="evenodd" clip-rule="evenodd" d="M9.98156 8.75C9.84854 11.4328 9.01206 13.5 8 13.5C6.98794 13.5 6.15146 11.4328 6.01844 8.75H9.98156ZM11.4832 8.75C11.4217 10.1155 11.1929 11.3869 10.8239 12.4017C10.7734 12.5405 10.7188 12.6789 10.6595 12.8154C12.1454 11.993 13.2103 10.5029 13.4493 8.75H11.4832ZM13.4493 7.25H11.4832C11.4217 5.88453 11.1929 4.61314 10.8239 3.5983C10.7734 3.4595 10.7188 3.32111 10.6595 3.18459C12.1454 4.00697 13.2103 5.49709 13.4493 7.25ZM9.98156 7.25H6.01844C6.15144 4.56764 6.98769 2.50062 7.99955 2.5H8C9.01206 2.5 9.84854 4.56724 9.98156 7.25ZM4.51678 7.25C4.57826 5.88453 4.80706 4.61314 5.1761 3.5983C5.22657 3.4595 5.28124 3.32111 5.3405 3.18459C3.85463 4.00697 2.78972 5.49709 2.55071 7.25H4.51678ZM2.55071 8.75C2.78972 10.5029 3.85463 11.993 5.3405 12.8154C5.28124 12.6789 5.22657 12.5405 5.1761 12.4017C4.80706 11.3869 4.57826 10.1155 4.51678 8.75H2.55071ZM15 8C15 11.866 11.866 15 8 15C4.13401 15 1 11.866 1 8C1 4.13401 4.13401 1 8 1C11.866 1 15 4.13401 15 8Z"/>
</symbol><symbol viewBox="0 0 24 24" id="navbar" xmlns="http://www.w3.org/2000/svg">
    <path d="M5.5 7.7a.9.9 0 0 0 0 1.8h13a.9.9 0 0 0 0-1.8h-13zm-.9 7.7a.9.9 0 0 1 .9-.9h13a.9.9 0 0 1 0 1.8h-13a.9.9 0 0 1-.9-.9z"/>
</symbol><symbol viewBox="0 0 24 24" style="color:var(--foreground_secondary)" id="search-black" xmlns="http://www.w3.org/2000/svg">
    <path d="M10.75 3.5a7.25 7.25 0 0 1 5.785 11.62l4.172 4.173a1 1 0 0 1-1.414 1.414l-4.173-4.172A7.25 7.25 0 1 1 10.75 3.5zm0 2a5.25 5.25 0 1 0 0 10.5 5.25 5.25 0 0 0 0-10.5z"/>
</symbol><symbol viewBox="0 0 24 24" id="search-white" xmlns="http://www.w3.org/2000/svg">
    <path d="M10.75 3.5a7.25 7.25 0 0 1 5.785 11.62l4.172 4.173a1 1 0 0 1-1.414 1.414l-4.173-4.172A7.25 7.25 0 1 1 10.75 3.5zm0 2a5.25 5.25 0 1 0 0 10.5 5.25 5.25 0 0 0 0-10.5z"/>
</symbol><symbol viewBox="0 0 28 28" id="sidebar-arrow" xmlns="http://www.w3.org/2000/svg">
    <path d="M14 15.336l5.793-4.793a1 1 0 0 1 1.414 1.414l-6.5 5.5a1 1 0 0 1-1.414 0l-6.5-5.5a1 1 0 1 1 1.414-1.414L14 15.336z"/>
</symbol><symbol viewBox="0 0 24 24" id="sidebar-close" xmlns="http://www.w3.org/2000/svg">
    <path fill-rule="evenodd" clip-rule="evenodd" d="M4.363 4.364a.9.9 0 0 1 1.273 0L12 10.727l6.363-6.363a.9.9 0 0 1 1.273 1.272L13.272 12l6.364 6.364a.9.9 0 1 1-1.273 1.273L12 13.273l-6.364 6.364a.9.9 0 1 1-1.273-1.273L10.727 12 4.363 5.636a.9.9 0 0 1 0-1.272z"/>
</symbol><symbol viewBox="0 0 28 28" id="sidebar-faq" xmlns="http://www.w3.org/2000/svg">
    <path fill-rule="evenodd" clip-rule="evenodd" d="M14 4.5A9.5 9.5 0 0 0 4.5 14a9.5 9.5 0 0 0 9.5 9.5 9.5 9.5 0 0 0 9.5-9.5A9.5 9.5 0 0 0 14 4.5zM2.5 14C2.5 7.648 7.648 2.5 14 2.5S25.5 7.648 25.5 14 20.352 25.5 14 25.5 2.5 20.352 2.5 14z"/>
    <path fill-rule="evenodd" clip-rule="evenodd" d="M10.666 11.472a3.333 3.333 0 1 1 6.667 0c0 1.459-.955 2.226-1.595 2.657v.001c-.267.179-.448.331-.567.49a.855.855 0 0 0-.171.547v.292a1 1 0 1 1-2 0v-.292c0-1.479.966-2.256 1.62-2.696.26-.175.435-.323.55-.476a.817.817 0 0 0 .163-.523 1.333 1.333 0 1 0-2.667 0 1 1 0 1 1-2 0z"/>
    <path d="M15.15 19.15a1.15 1.15 0 1 1-2.3 0 1.15 1.15 0 0 1 2.3 0z"/>
</symbol><symbol viewBox="0 0 28 28" id="sidebar-lg" xmlns="http://www.w3.org/2000/svg">
    <path fill-rule="evenodd" clip-rule="evenodd" d="M13 3.5a1 1 0 0 1 1-1c6.365 0 11.5 5.135 11.5 11.5S20.365 25.5 14 25.5a1 1 0 1 1 0-2c5.26 0 9.5-4.24 9.5-9.5S19.26 4.5 14 4.5a1 1 0 0 1-1-1z"/>
    <path fill-rule="evenodd" clip-rule="evenodd" d="M14 4.5c-5.26 0-9.5 4.24-9.5 9.5s4.24 9.5 9.5 9.5a1 1 0 1 1 0 2C7.635 25.5 2.5 20.365 2.5 14S7.635 2.5 14 2.5a1 1 0 1 1 0 2z"/>
    <path fill-rule="evenodd" clip-rule="evenodd" d="M11.005 4.223a3.466 3.466 0 0 1 5.991 0c3.561 5.945 3.562 13.61 0 19.555a3.466 3.466 0 0 1-5.991 0c-3.561-5.945-3.561-13.61 0-19.555zM15.28 5.25c-.6-1-1.962-1-2.56 0-3.183 5.313-3.183 12.188 0 17.5.598 1 1.96 1 2.56 0 3.182-5.312 3.182-12.187 0-17.5z"/>
    <path fill-rule="evenodd" clip-rule="evenodd" d="M3.723 8.873a1 1 0 0 1 1.25-.66c5.516 1.703 12.539 1.703 18.052 0a1 1 0 1 1 .59 1.91c-5.898 1.822-13.332 1.822-19.232 0a1 1 0 0 1-.66-1.25zm.661 9.004c5.899-1.822 13.333-1.822 19.233 0a1 1 0 1 1-.59 1.91c-5.516-1.703-12.539-1.703-18.052 0a1 1 0 0 1-.59-1.91z"/>
</symbol><symbol viewBox="0 0 28 28" id="sidebar-theme" xmlns="http://www.w3.org/2000/svg">
    <g clip-path="url(#sclip0_27505_33924)">
        <g clip-path="url(#sclip1_27505_33924)">
            <path d="M22.22 15.32c.425-.2.878.219.76.672a9.273 9.273 0 0 1-2.419 4.238c-3.626 3.626-9.428 3.702-12.96.17-3.533-3.533-3.456-9.336.17-12.963A9.266 9.266 0 0 1 12.01 5.02c.453-.118.87.334.672.759-1.288 2.75-.865 6.043 1.316 8.224 2.18 2.183 5.474 2.606 8.224 1.318z" stroke-width="2px" stroke-linecap="round" stroke-linejoin="round"/>
        </g>
    </g>
    <defs>
        <clipPath id="sclip0_27505_33924">
            <path d="M0 0H28V28H0z"/>
        </clipPath>
        <clipPath id="sclip1_27505_33924">
            <path transform="translate(2 2)" d="M0 0H24V24H0z"/>
        </clipPath>
    </defs>
</symbol><symbol viewBox="0 0 28 28" id="slider-arrow" xmlns="http://www.w3.org/2000/svg">
    <path d="M17.086 14l-5.793 5.793a1 1 0 0 0 1.414 1.414l6.5-6.5a1 1 0 0 0 0-1.414l-6.5-6.5a1 1 0 1 0-1.414 1.414L17.086 14z"/>
</symbol><symbol viewBox="0 0 24 24" id="soc-github" xmlns="http://www.w3.org/2000/svg">
    <path fill-rule="evenodd" clip-rule="evenodd" d="M4.737 5.292C6.73 3.08 9.584 2.1 12 2.1c2.42 0 5.255.982 7.336 3.064a.822.822 0 0 1 .022.022C20.905 6.844 22 9.16 22 12.1c0 2.19-.76 4.386-1.989 5.952-1.437 1.876-3.5 2.953-4.577 3.384A.9.9 0 0 1 14.2 20.6v-.702a2.04 2.04 0 0 0-.011-.197 5.506 5.506 0 0 0-.085-.603c-.099-.506-.292-1.137-.661-1.711a.9.9 0 0 1 .667-1.383c1.506-.15 2.79-1.531 2.79-3.304 0-.47-.213-1.07-.591-1.524a.9.9 0 0 1-.208-.529l-.09-1.697-1.508.755a.9.9 0 0 1-.551.083c-.605-.101-1.136-.188-1.752-.188-.616 0-1.147.087-1.752.188a.9.9 0 0 1-.468-.047l-1.89-.72-.091 1.726a.9.9 0 0 1-.208.53c-.388.465-.591.967-.591 1.523 0 1.813 1.311 3.23 2.745 3.301a.9.9 0 0 1 .712 1.386c-.369.574-.562 1.205-.661 1.71a5.527 5.527 0 0 0-.096.801v.702a.9.9 0 0 1-1.234.836c-1.078-.431-3.144-1.51-4.58-3.39l-.012-.014C2.871 16.492 2.1 14.408 2.1 12.2c0-2.936 1.092-5.25 2.637-6.908zM12 3.9c-1.982 0-4.325.818-5.931 2.602l-.011.012C4.805 7.856 3.9 9.74 3.9 12.2c0 1.789.626 3.502 1.62 4.86.764.997 1.773 1.735 2.637 2.23a7.566 7.566 0 0 1 .42-1.654C6.686 16.93 5.4 14.935 5.4 12.8c0-.93.315-1.744.816-2.43L6.3 8.772c.01-.568.308-1.026.713-1.296a1.82 1.82 0 0 1 1.364-.259.9.9 0 0 1 .143.042l1.873.713A10.88 10.88 0 0 1 12.2 7.8c.66 0 1.237.08 1.759.164l1.539-.769a.909.909 0 0 1 .068-.03c1.154-.462 2.215.463 2.234 1.506l.084 1.603c.508.711.816 1.597.816 2.426 0 2.179-1.318 4.076-3.19 4.803a7.281 7.281 0 0 1 .433 1.686c.866-.495 1.877-1.236 2.642-2.236l.007-.01v.001c.97-1.234 1.608-3.036 1.608-4.844 0-2.453-.9-4.333-2.147-5.675C16.335 4.715 13.976 3.9 12 3.9z"/>
</symbol><symbol viewBox="0 0 24 24" id="soc-telegram" xmlns="http://www.w3.org/2000/svg">
    <path fill-rule="evenodd" clip-rule="evenodd" d="M18.334 4.03c1.24-.478 2.518.608 2.241 1.91l-2.64 12.447a1.805 1.805 0 0 1-2.838 1.077l-3.221-2.38-1.518 1.476c-.84.817-2.25.457-2.59-.667L6.53 13.818l-3.623-1.13c-1.278-.4-1.343-2.191-.088-2.675L18.334 4.03zM7.89 12.464c.101.101.18.228.224.374l1.264 4.163L10.408 16l-.688-.509a1.743 1.743 0 0 1-.135-2.697l2.456-2.217 1.46-1.318.604.668.603.668-1.46 1.318-2.405 2.17 1.47 1.086a.947.947 0 0 1 .034.025l3.82 2.822.001.001h.002l.003-.001v-.003l2.594-12.221-14.274 5.505 3.027.944c.145.045.27.123.37.224zm6.215-2.538l.603.668A.9.9 0 1 0 13.5 9.26l.604.668z"/>
</symbol><symbol viewBox="0 0 24 24" id="soc-vk" xmlns="http://www.w3.org/2000/svg">
    <path fill-rule="evenodd" clip-rule="evenodd" d="M8 3.9A4.1 4.1 0 0 0 3.9 8v8A4.1 4.1 0 0 0 8 20.1h8a4.1 4.1 0 0 0 4.1-4.1V8A4.1 4.1 0 0 0 16 3.9H8zM2.1 8A5.9 5.9 0 0 1 8 2.1h8A5.9 5.9 0 0 1 21.9 8v8a5.9 5.9 0 0 1-5.9 5.9H8A5.9 5.9 0 0 1 2.1 16V8zm15.254.673a.9.9 0 0 1 .473 1.182l-.121.282a6.208 6.208 0 0 1-2.23 2.699 6.05 6.05 0 0 1 2.296 2.201.9.9 0 0 1-1.544.926 4.25 4.25 0 0 0-3.328-2.051V15.5a.9.9 0 0 1-.9.9 5.9 5.9 0 0 1-5.9-5.9v-1a.9.9 0 1 1 1.8 0v1a4.1 4.1 0 0 0 3.2 4v-5a.9.9 0 1 1 1.8 0v2.507a4.409 4.409 0 0 0 3.151-2.579l.122-.283a.9.9 0 0 1 1.181-.472z"/>
</symbol><symbol viewBox="0 0 24 24" id="soc-x-twitter" xmlns="http://www.w3.org/2000/svg">
    <path d="M2.431 3l7.425 9.928L2.384 21h1.682l6.542-7.068L15.893 21h5.723l-7.843-10.487L20.728 3h-1.682l-6.024 6.508L8.154 3H2.43zm2.473 1.238h2.63l11.608 15.523h-2.629L4.904 4.238z"/>
</symbol><symbol viewBox="0 0 16 16" id="ton-black" xmlns="http://www.w3.org/2000/svg">
    <path fill-rule="evenodd" clip-rule="evenodd" d="M4.702 2.15h6.596c.42 0 .787 0 1.08.027.296.027.639.09.936.304.4.288.66.732.715 1.222.041.365-.073.694-.194.966-.12.268-.3.587-.506.954l-4.675 8.311a.75.75 0 0 1-1.308 0L2.687 5.652l-.016-.03c-.206-.366-.386-.685-.506-.953-.122-.272-.235-.601-.194-.966a1.75 1.75 0 0 1 .715-1.222c.297-.215.64-.277.937-.304.292-.027.658-.027 1.079-.027zM3.553 3.705a.25.25 0 0 0-.09.154.956.956 0 0 0 .071.197c.089.197.233.456.46.86l3.256 5.788V3.65H4.736c-.465 0-.761 0-.976.02a.955.955 0 0 0-.207.035zM8.75 3.65v7.054l3.255-5.787c.228-.405.372-.664.46-.86a.96.96 0 0 0 .072-.198.25.25 0 0 0-.09-.154.956.956 0 0 0-.207-.034c-.215-.02-.511-.021-.976-.021H8.75z"/>
</symbol><symbol viewBox="0 0 20 20" id="ton-white" xmlns="http://www.w3.org/2000/svg">
    <path fill-rule="evenodd" clip-rule="evenodd" d="M5.922 3h8.156c.533 0 .994 0 1.361.034.371.034.796.111 1.16.376.493.359.811.909.875 1.515.047.448-.097.854-.253 1.193-.154.335-.385.734-.651 1.196L10.78 17.35a.9.9 0 0 1-1.56 0L3.43 7.314c-.266-.462-.496-.861-.65-1.196-.156-.339-.301-.745-.254-1.193a2.15 2.15 0 0 1 .875-1.515c.365-.265.789-.342 1.16-.376C4.928 3 5.39 3 5.921 3zM4.449 4.874a.35.35 0 0 0-.131.228c.003.017.018.092.096.263.116.25.303.577.596 1.085l4.09 7.089V4.8H5.963c-.586 0-.963 0-1.237.026-.188.017-.26.042-.277.048zM10.9 4.8v8.739l4.09-7.09c.293-.507.48-.834.596-1.084.079-.17.094-.246.096-.263a.35.35 0 0 0-.131-.228 1.142 1.142 0 0 0-.276-.048C15 4.801 14.623 4.8 14.037 4.8H10.9z"/>
</symbol></svg>