<?xml version="1.0" encoding="utf-8"?><svg viewBox="0 0 244 244" xmlns="http://www.w3.org/2000/svg" xmlns:xlink="http://www.w3.org/1999/xlink"><style>:root>svg{display:none}:root>svg:target{display:block}</style><svg fill="none" viewBox="0 0 28 28" id="card-calendar" xmlns="http://www.w3.org/2000/svg">
    <path fill-rule="evenodd" clip-rule="evenodd" d="M8.75 2.5a1 1 0 0 1 1 1V7a1 1 0 0 1-2 0V3.5a1 1 0 0 1 1-1zm10.5 0a1 1 0 0 1 1 1V7a1 1 0 1 1-2 0V3.5a1 1 0 0 1 1-1z" fill="#8C8C93"/>
    <path fill-rule="evenodd" clip-rule="evenodd" d="M7 6.25a2.5 2.5 0 0 0-2.5 2.5V21A2.5 2.5 0 0 0 7 23.5h11.384a2.5 2.5 0 0 0 1.767-.732l2.617-2.617a2.5 2.5 0 0 0 .732-1.767V8.75a2.5 2.5 0 0 0-2.5-2.5H7zm-3.182-.682A4.5 4.5 0 0 1 7 4.25h14a4.5 4.5 0 0 1 4.5 4.5v9.634a4.5 4.5 0 0 1-1.318 3.182l-2.616 2.616a4.5 4.5 0 0 1-3.182 1.318H7A4.5 4.5 0 0 1 2.5 21V8.75a4.5 4.5 0 0 1 1.318-3.182z" fill="#8C8C93"/>
    <path fill-rule="evenodd" clip-rule="evenodd" d="M18.06 18.06a3.334 3.334 0 0 1 2.357-.977H24.5a1 1 0 1 1 0 2h-4.083a1.334 1.334 0 0 0-1.334 1.334V24.5a1 1 0 0 1-2 0v-4.083c0-.884.352-1.732.977-2.357z" fill="#8C8C93"/>
</svg><svg fill="none" viewBox="0 0 28 28" id="card-users" xmlns="http://www.w3.org/2000/svg">
    <g clip-path="url(#aba)">
        <g clip-path="url(#abb)">
            <path d="M16.053 12.818a2.903 2.903 0 1 1-4.107 4.106 2.903 2.903 0 0 1 4.107-4.106zm6.37-6.968a2.903 2.903 0 1 1-4.105 4.105 2.903 2.903 0 0 1 4.106-4.105m-1.456 8.44c1.78 0 3.484.619 4.645 1.548M9.682 5.85a2.903 2.903 0 1 1-4.106 4.105A2.903 2.903 0 0 1 9.682 5.85m-7.296 9.988c1.162-.929 2.865-1.548 4.646-1.548m12.3 8.71c-1.353-1.046-3.297-1.742-5.332-1.742-2.035 0-3.979.696-5.332 1.742" stroke="#E5E5EA" stroke-width="2" stroke-linecap="round" stroke-linejoin="round" fill="#8C8C93"/>
        </g>
    </g>
    <defs>
        <clipPath id="aba">
            <path fill="#fff" d="M0 0h28v28H0z"/>
        </clipPath>
        <clipPath id="abb">
            <path fill="#fff" d="M0 0h28v28H0z"/>
        </clipPath>
    </defs>
</svg><svg fill="none" class="acgo3535743411" viewBox="0 0 48 48" id="faq-1" xmlns="http://www.w3.org/2000/svg">
    <path fill-rule="evenodd" clip-rule="evenodd" d="M39.632 16.872c-1.31-.668-2.932-.824-5.632-.86V11c0-5.523-4.477-10-10-10S14 5.477 14 11v5.011c-2.7.037-4.321.193-5.632.86a8 8 0 0 0-3.496 3.497C4 22.08 4 24.32 4 28.8v3.4c0 4.48 0 6.72.872 8.432a8 8 0 0 0 3.496 3.496C10.08 45 12.32 45 16.8 45h14.4c4.48 0 6.72 0 8.432-.872a8 8 0 0 0 3.496-3.496C44 38.92 44 36.68 44 32.2v-3.4c0-4.48 0-6.72-.872-8.432a8 8 0 0 0-3.496-3.496ZM31 11v5H17v-5a7 7 0 1 1 14 0ZM7.545 21.73C7 22.8 7 24.2 7 27v7c0 2.8 0 4.2.545 5.27a5 5 0 0 0 2.185 2.185C10.8 42 12.2 42 15 42h18c2.8 0 4.2 0 5.27-.545a5 5 0 0 0 2.185-2.185C41 38.2 41 36.8 41 34v-7c0-2.8 0-4.2-.545-5.27a5 5 0 0 0-2.185-2.185C37.2 19 35.8 19 33 19H15c-2.8 0-4.2 0-5.27.545a5 5 0 0 0-2.185 2.185ZM24 24a1.5 1.5 0 0 0-1.5 1.5v4a1.5 1.5 0 0 0 3 0v-4A1.5 1.5 0 0 0 24 24Z" fill="#909099"/>
</svg><svg fill="none" class="adgo3535743411" viewBox="0 0 48 48" id="faq-2" xmlns="http://www.w3.org/2000/svg">
    <path fill-rule="evenodd" clip-rule="evenodd" d="M37.485 37.385A18.94 18.94 0 0 0 43 24c0-10.493-8.507-19-19-19S5 13.507 5 24a18.94 18.94 0 0 0 5.515 13.385C13.358 32.944 18.335 30 24 30c5.665 0 10.642 2.944 13.485 7.385Zm-2.304 1.979A12.994 12.994 0 0 0 24 33a12.994 12.994 0 0 0-11.182 6.364A18.914 18.914 0 0 0 24 43c4.18 0 8.044-1.35 11.18-3.636ZM24 46c12.15 0 22-9.85 22-22S36.15 2 24 2 2 11.85 2 24s9.85 22 22 22Zm0-22a5 5 0 1 0 0-10 5 5 0 0 0 0 10Zm0 3a8 8 0 1 0 0-16 8 8 0 0 0 0 16Z" fill="#909099"/>
</svg><svg fill="none" class="aego3535743411" viewBox="0 0 48 48" id="faq-3" xmlns="http://www.w3.org/2000/svg">
    <path fill-rule="evenodd" clip-rule="evenodd" d="M34.56 4.44a1.5 1.5 0 0 0-2.12 2.12L37.878 12H10.5a1.5 1.5 0 0 0 0 3h27.379l-5.44 5.44a1.5 1.5 0 0 0 2.122 2.12l8-8a1.5 1.5 0 0 0 0-2.12l-8-8Zm-21.12 21a1.5 1.5 0 0 1 2.12 2.12L10.122 33H37.5a1.5 1.5 0 0 1 0 3H10.121l5.44 5.44a1.5 1.5 0 0 1-2.122 2.12l-8-8a1.5 1.5 0 0 1 0-2.12l8-8Z" fill="#909099"/>
</svg><svg fill="none" viewBox="0 0 17 16" id="faq-dowload" xmlns="http://www.w3.org/2000/svg">
    <g clip-path="url(#afa)">
        <path fill-rule="evenodd" clip-rule="evenodd" d="M1.827 2.639C1.5 3.281 1.5 4.121 1.5 5.801v4.4c0 1.68 0 2.52.327 3.162a3 3 0 0 0 1.311 1.311c.642.327 1.482.327 3.162.327h5.4c1.68 0 2.52 0 3.162-.327a3 3 0 0 0 1.311-1.311c.327-.642.327-1.482.327-3.162v-1.4c0-1.68 0-2.52-.327-3.162a3 3 0 0 0-1.311-1.311 2.205 2.205 0 0 0-.382-.15c-.03-.684-.108-1.148-.307-1.539a3 3 0 0 0-1.311-1.311c-.642-.327-1.482-.327-3.162-.327H6.3c-1.68 0-2.52 0-3.162.327a3 3 0 0 0-1.311 1.311Zm11.16 1.37c-.019-.298-.059-.51-.15-.689a1.5 1.5 0 0 0-.656-.656c-.32-.163-.74-.163-1.581-.163H5.4c-.84 0-1.26 0-1.581.163a1.5 1.5 0 0 0-.656.656c-.127.25-.155.56-.161 1.082.044-.026.09-.05.136-.074.642-.327 1.482-.327 3.162-.327h5.4c.497 0 .92 0 1.286.008ZM3 7.901v.2c0 .374 0 .664.014.9H3v2.1c0 .84 0 1.26.163 1.581a1.5 1.5 0 0 0 .656.655c.32.164.74.164 1.581.164h7.2c.84 0 1.26 0 1.581-.163a1.5 1.5 0 0 0 .655-.656c.164-.32.164-.74.164-1.581v-3.2c0-.84 0-1.26-.164-1.581a1.5 1.5 0 0 0-.655-.656c-.32-.163-.74-.163-1.581-.163H5.4c-.84 0-1.26 0-1.581.163a1.5 1.5 0 0 0-.656.656C3 6.64 3 7.06 3 7.901Zm7.5 1.85a.75.75 0 0 1 .75-.75h1.5a.75.75 0 0 1 0 1.5h-1.5a.75.75 0 0 1-.75-.75Z" fill="#E5E5EA"/>
    </g>
    <defs>
        <clipPath id="afa">
            <path fill="#fff" transform="translate(.5 .001)" d="M0 0h16v16H0z"/>
        </clipPath>
    </defs>
</svg><svg fill="none" viewBox="0 0 157 28" id="logo" xmlns="http://www.w3.org/2000/svg">
    <g clip-path="url(#aha)" fill="#E5E5EA">
        <path fill-rule="evenodd" clip-rule="evenodd" d="M14.018 0c0 7.742-6.276 14.018-14.018 14.018C0 6.276 6.276 0 14.018 0Zm0 28.036C6.276 28.036 0 21.76 0 14.018c7.742 0 14.018 6.276 14.018 14.018Zm14.018-14.018c0 7.742-6.276 14.018-14.018 14.018 0-7.742 6.276-14.018 14.018-14.018Zm-1.169-12.85c0 6.452-5.23 11.682-11.681 11.682 0-6.452 5.23-11.682 11.681-11.682Z"/>
        <path d="M47.352 27.825c-1.196 0-2.401-.177-3.616-.532-1.196-.337-2.168-.785-2.916-1.346l1.57-3.196c.598.411 1.271.729 2.019.953.766.243 1.56.364 2.383.364.953 0 1.729-.14 2.327-.42.598-.28 1.037-.701 1.317-1.262.3-.56.449-1.261.449-2.102v-2.467l.841.168c-.112.58-.43 1.121-.953 1.626-.505.504-1.131.906-1.879 1.205-.747.3-1.532.449-2.355.449-1.345 0-2.55-.309-3.616-.925a6.9 6.9 0 0 1-2.523-2.608c-.599-1.121-.898-2.41-.898-3.869 0-1.495.3-2.822.898-3.98.616-1.16 1.448-2.066 2.495-2.72 1.046-.654 2.224-.981 3.532-.981.542 0 1.066.065 1.57.196.524.112 1 .28 1.43.505a6.07 6.07 0 0 1 1.178.756c.355.28.644.59.869.926.224.336.364.673.42 1.009l-.925.28.168-3.364h4.29v13.653c0 1.215-.187 2.3-.561 3.253a6.136 6.136 0 0 1-1.598 2.41c-.692.655-1.533 1.15-2.523 1.486-.99.356-2.122.533-3.393.533Zm.113-10.065c.728 0 1.355-.158 1.878-.476a3.074 3.074 0 0 0 1.234-1.346c.299-.58.448-1.252.448-2.019 0-.803-.15-1.495-.448-2.074a3.075 3.075 0 0 0-1.234-1.346c-.523-.336-1.15-.505-1.878-.505-.692 0-1.3.169-1.823.505a3.31 3.31 0 0 0-1.233 1.346c-.28.58-.42 1.261-.42 2.046 0 .786.14 1.468.42 2.047.299.58.71 1.028 1.233 1.346.524.318 1.131.476 1.823.476ZM65.853 21.657c-1.644 0-3.083-.327-4.317-.98-1.215-.655-2.159-1.552-2.832-2.692-.654-1.16-.98-2.477-.98-3.953 0-1.16.186-2.215.56-3.168a7.267 7.267 0 0 1 1.57-2.496 7.248 7.248 0 0 1 2.41-1.598c.935-.392 1.954-.588 3.057-.588 1.046 0 2 .187 2.86.56.86.374 1.607.897 2.242 1.57a6.88 6.88 0 0 1 1.458 2.383c.337.916.496 1.916.477 3l-.028 1.234H60.499l-.673-2.552h8.831l-.477.505v-.56a2.203 2.203 0 0 0-.448-1.206 2.538 2.538 0 0 0-.981-.841 2.857 2.857 0 0 0-1.346-.309c-.748 0-1.383.15-1.907.449-.504.28-.887.692-1.149 1.234-.261.542-.392 1.215-.392 2.018 0 .804.168 1.514.504 2.13.355.618.86 1.094 1.514 1.43.673.337 1.467.505 2.383.505.617 0 1.178-.093 1.682-.28.505-.187 1.047-.505 1.626-.953l2.103 2.972a9.98 9.98 0 0 1-1.85 1.233 8.912 8.912 0 0 1-2.019.701 8.407 8.407 0 0 1-2.047.252ZM75.888 21.377V2.733h4.514v18.644h-4.514Zm-2.636-10.934V6.49h10.01v3.953h-10.01ZM91.968 27.826c-1.197 0-2.402-.178-3.617-.533-1.196-.336-2.168-.785-2.916-1.346l1.57-3.196c.598.411 1.271.73 2.019.953.766.244 1.56.365 2.383.365.953 0 1.728-.14 2.327-.42.598-.281 1.037-.701 1.318-1.262.298-.56.448-1.262.448-2.103v-2.467l.841.168c-.112.58-.43 1.122-.953 1.626-.505.505-1.131.907-1.878 1.206a6.285 6.285 0 0 1-2.355.448c-1.346 0-2.552-.308-3.617-.925a6.901 6.901 0 0 1-2.523-2.607c-.599-1.122-.897-2.411-.897-3.87 0-1.494.298-2.821.897-3.98.617-1.159 1.448-2.065 2.495-2.72 1.046-.654 2.224-.98 3.532-.98.542 0 1.066.065 1.57.195.523.113 1 .28 1.43.505a6.07 6.07 0 0 1 1.178.757c.355.28.645.589.869.925.224.337.364.673.42 1.01l-.925.28.168-3.364h4.29v13.653c0 1.215-.187 2.299-.56 3.252a6.136 6.136 0 0 1-1.599 2.411c-.692.654-1.533 1.15-2.523 1.486-.991.355-2.122.533-3.392.533Zm.112-10.065c.729 0 1.355-.159 1.878-.477a3.075 3.075 0 0 0 1.234-1.345c.298-.58.448-1.253.448-2.019 0-.804-.15-1.495-.448-2.075a3.076 3.076 0 0 0-1.234-1.345c-.523-.337-1.15-.505-1.878-.505-.692 0-1.3.168-1.823.505a3.306 3.306 0 0 0-1.233 1.345c-.28.58-.42 1.262-.42 2.047 0 .785.14 1.467.42 2.047.299.579.71 1.028 1.233 1.345.523.318 1.131.477 1.823.477ZM110.469 21.658c-1.645 0-3.084-.327-4.317-.981-1.216-.654-2.159-1.552-2.832-2.692-.655-1.159-.981-2.476-.981-3.953 0-1.159.186-2.215.561-3.168a7.258 7.258 0 0 1 1.57-2.495 7.24 7.24 0 0 1 2.411-1.598c.934-.393 1.952-.589 3.056-.589 1.046 0 1.999.187 2.859.56a6.772 6.772 0 0 1 2.243 1.57 6.899 6.899 0 0 1 1.458 2.384c.336.916.495 1.916.477 3l-.029 1.233h-11.831l-.672-2.551h8.831l-.477.505v-.561a2.212 2.212 0 0 0-.448-1.206 2.55 2.55 0 0 0-.982-.84 2.856 2.856 0 0 0-1.345-.309c-.748 0-1.384.15-1.907.448-.504.28-.888.692-1.149 1.234-.262.542-.393 1.215-.393 2.019 0 .803.168 1.514.505 2.13a3.604 3.604 0 0 0 1.514 1.43c.673.337 1.467.505 2.383.505.617 0 1.177-.094 1.682-.28.505-.187 1.046-.505 1.626-.954l2.103 2.972a9.994 9.994 0 0 1-1.851 1.234 8.921 8.921 0 0 1-2.018.7 8.415 8.415 0 0 1-2.047.253ZM119.241 21.377V6.49h4.29l.14 2.692-.617.056c.205-.486.486-.916.841-1.29a5.04 5.04 0 0 1 1.178-.925 5.73 5.73 0 0 1 1.401-.589c.486-.15.973-.224 1.458-.224.748 0 1.411.112 1.991.336a3.716 3.716 0 0 1 1.542 1.094c.448.504.804 1.177 1.065 2.018l-.673-.112.197-.392c.261-.449.579-.85.953-1.206a6.385 6.385 0 0 1 1.289-.953 6.26 6.26 0 0 1 1.43-.589c.505-.13.991-.196 1.458-.196 1.178 0 2.159.234 2.944.7.785.468 1.374 1.16 1.766 2.075.393.898.589 2.01.589 3.337v9.055h-4.514v-8.719c0-.878-.187-1.532-.561-1.962-.355-.449-.897-.673-1.626-.673a2.99 2.99 0 0 0-1.093.196c-.318.112-.598.29-.841.533a2.546 2.546 0 0 0-.533.785 2.49 2.49 0 0 0-.196 1.009v8.831h-4.514V12.63c0-.84-.196-1.486-.589-1.934-.373-.449-.906-.673-1.598-.673-.373 0-.729.065-1.065.196-.318.112-.598.29-.841.533a2.546 2.546 0 0 0-.533.785 2.49 2.49 0 0 0-.196 1.009v8.831h-4.542ZM150.696 21.657c-1.421 0-2.692-.224-3.813-.672-1.122-.468-2.019-1.103-2.692-1.907l2.748-2.355a5.59 5.59 0 0 0 1.962 1.29c.729.261 1.42.392 2.075.392.243 0 .458-.028.645-.084.186-.056.345-.13.476-.224a1.22 1.22 0 0 0 .337-.365c.074-.15.112-.317.112-.504a.914.914 0 0 0-.477-.841c-.15-.094-.42-.206-.813-.337-.392-.15-.897-.299-1.514-.448-.878-.225-1.645-.496-2.298-.813-.636-.318-1.16-.683-1.57-1.094a4.015 4.015 0 0 1-.87-1.29 4.496 4.496 0 0 1-.28-1.625c0-.916.271-1.72.813-2.412.561-.691 1.29-1.224 2.187-1.598a7.19 7.19 0 0 1 2.916-.588c.822 0 1.598.093 2.327.28a9.165 9.165 0 0 1 2.074.785 7.763 7.763 0 0 1 1.738 1.206l-2.383 2.663a5.177 5.177 0 0 0-1.121-.841 6.752 6.752 0 0 0-1.29-.617 3.322 3.322 0 0 0-1.205-.252c-.281 0-.533.028-.757.084a1.241 1.241 0 0 0-.533.224.967.967 0 0 0-.308.365.886.886 0 0 0-.112.448c0 .206.046.393.14.56.112.15.261.29.448.421.169.094.458.215.869.365.43.15.991.318 1.683.505.878.242 1.626.523 2.242.84.635.3 1.14.655 1.514 1.066.318.318.542.691.673 1.121.15.412.225.86.225 1.346 0 .953-.272 1.804-.813 2.551-.524.73-1.253 1.309-2.187 1.739-.916.41-1.973.616-3.168.616Z"/>
    </g>
    <defs>
        <clipPath id="aha">
            <path fill="#fff" d="M0 0h157v28H0z"/>
        </clipPath>
    </defs>
</svg><svg fill="none" viewBox="0 0 28 28" id="logo-mobile" xmlns="http://www.w3.org/2000/svg">
    <path fill-rule="evenodd" clip-rule="evenodd" d="M14 2c0 6.627-5.373 12-12 12C2 7.373 7.373 2 14 2zm0 24C7.373 26 2 20.627 2 14c6.627 0 12 5.373 12 12zm12-12c0 6.627-5.373 12-12 12 0-6.627 5.373-12 12-12zm-11-1c5.523 0 10-4.477 10-10-5.523 0-10 4.477-10 10z" fill="#E5E5EA"/>
</svg><svg class="aigo656503599" fill="none" viewBox="0 0 16 16" id="modal-arrow" xmlns="http://www.w3.org/2000/svg">
    <path fill-rule="evenodd" clip-rule="evenodd" d="M10.212 14.34a.75.75 0 0 0 .129-1.052L6.202 8l4.139-5.288a.75.75 0 1 0-1.182-.924l-4.5 5.75a.75.75 0 0 0 0 .924l4.5 5.75a.75.75 0 0 0 1.053.129Z" fill="#909099"/>
</svg><svg fill="none" viewBox="0 0 16 16" id="modal-close" xmlns="http://www.w3.org/2000/svg">
    <path fill-rule="evenodd" clip-rule="evenodd" d="M2.72 2.72a.75.75 0 0 1 1.06 0L8 6.94l4.22-4.22a.75.75 0 1 1 1.06 1.06L9.06 8l4.22 4.22a.75.75 0 1 1-1.06 1.06L8 9.06l-4.22 4.22a.75.75 0 0 1-1.06-1.06L6.94 8 2.72 3.78a.75.75 0 0 1 0-1.06Z" fill="#909099"/>
</svg><svg fill="none" viewBox="0 0 16 16" id="modal-deksp" xmlns="http://www.w3.org/2000/svg">
    <path fill-rule="evenodd" clip-rule="evenodd" d="M1.5 6.8c0-1.68 0-2.52.327-3.162a3 3 0 0 1 1.311-1.311C3.78 2 4.62 2 6.3 2h3.4c1.68 0 2.52 0 3.162.327a3 3 0 0 1 1.311 1.311c.327.642.327 1.482.327 3.162v4.7h.75a.75.75 0 0 1 0 1.5H.75a.75.75 0 0 1 0-1.5h.75V6.8ZM3 11.5h10V5.9c0-.84 0-1.26-.164-1.581a1.5 1.5 0 0 0-.655-.656c-.32-.163-.74-.163-1.581-.163H5.4c-.84 0-1.26 0-1.581.163a1.5 1.5 0 0 0-.656.656C3 4.639 3 5.059 3 5.9v5.6Z" fill="#E5E5EA"/>
</svg><svg preserveAspectRatio="xMinYMin meet" viewBox="0 0 244 244" id="modal-qr" xmlns="http://www.w3.org/2000/svg">
    <rect width="100%" height="100%" fill="none"/>
    <path d="M0 0h4v4H0V0zm4 0h4v4H4V0zm4 0h4v4H8V0zm4 0h4v4h-4V0zm4 0h4v4h-4V0zm4 0h4v4h-4V0zm4 0h4v4h-4V0zm12 0h4v4h-4V0zm4 0h4v4h-4V0zm4 0h4v4h-4V0zm4 0h4v4h-4V0zm4 0h4v4h-4V0zm4 0h4v4h-4V0zm8 0h4v4h-4V0zm4 0h4v4h-4V0zm8 0h4v4h-4V0zm4 0h4v4h-4V0zm8 0h4v4h-4V0zm4 0h4v4h-4V0zm20 0h4v4h-4V0zm4 0h4v4h-4V0zm8 0h4v4h-4V0zm12 0h4v4h-4V0zm4 0h4v4h-4V0zm4 0h4v4h-4V0zm8 0h4v4h-4V0zm8 0h4v4h-4V0zm4 0h4v4h-4V0zm4 0h4v4h-4V0zm8 0h4v4h-4V0zm4 0h4v4h-4V0zm4 0h4v4h-4V0zm4 0h4v4h-4V0zm4 0h4v4h-4V0zm12 0h4v4h-4V0zm4 0h4v4h-4V0zm8 0h4v4h-4V0zm4 0h4v4h-4V0zm4 0h4v4h-4V0zm4 0h4v4h-4V0zm4 0h4v4h-4V0zm4 0h4v4h-4V0zm4 0h4v4h-4V0zM0 4h4v4H0V4zm24 0h4v4h-4V4zm8 0h4v4h-4V4zm8 0h4v4h-4V4zm4 0h4v4h-4V4zm4 0h4v4h-4V4zm4 0h4v4h-4V4zm12 0h4v4h-4V4zm12 0h4v4h-4V4zm8 0h4v4h-4V4zm8 0h4v4h-4V4zm4 0h4v4h-4V4zm4 0h4v4h-4V4zm12 0h4v4h-4V4zm8 0h4v4h-4V4zm28 0h4v4h-4V4zm4 0h4v4h-4V4zm4 0h4v4h-4V4zm8 0h4v4h-4V4zm4 0h4v4h-4V4zm4 0h4v4h-4V4zm8 0h4v4h-4V4zm8 0h4v4h-4V4zm8 0h4v4h-4V4zm8 0h4v4h-4V4zm4 0h4v4h-4V4zm8 0h4v4h-4V4zm24 0h4v4h-4V4zM0 8h4v4H0V8zm8 0h4v4H8V8zm4 0h4v4h-4V8zm4 0h4v4h-4V8zm8 0h4v4h-4V8zm8 0h4v4h-4V8zm4 0h4v4h-4V8zm8 0h4v4h-4V8zm4 0h4v4h-4V8zm8 0h4v4h-4V8zm8 0h4v4h-4V8zm8 0h4v4h-4V8zm8 0h4v4h-4V8zm4 0h4v4h-4V8zm4 0h4v4h-4V8zm12 0h4v4h-4V8zm8 0h4v4h-4V8zm8 0h4v4h-4V8zm4 0h4v4h-4V8zm4 0h4v4h-4V8zm8 0h4v4h-4V8zm8 0h4v4h-4V8zm28 0h4v4h-4V8zm4 0h4v4h-4V8zm4 0h4v4h-4V8zm4 0h4v4h-4V8zm4 0h4v4h-4V8zm4 0h4v4h-4V8zm4 0h4v4h-4V8zm8 0h4v4h-4V8zm4 0h4v4h-4V8zm4 0h4v4h-4V8zm8 0h4v4h-4V8zm8 0h4v4h-4V8zm4 0h4v4h-4V8zm4 0h4v4h-4V8zm8 0h4v4h-4V8zM0 12h4v4H0v-4zm8 0h4v4H8v-4zm4 0h4v4h-4v-4zm4 0h4v4h-4v-4zm8 0h4v4h-4v-4zm16 0h4v4h-4v-4zm8 0h4v4h-4v-4zm16 0h4v4h-4v-4zm4 0h4v4h-4v-4zm12 0h4v4h-4v-4zm4 0h4v4h-4v-4zm12 0h4v4h-4v-4zm4 0h4v4h-4v-4zm8 0h4v4h-4v-4zm4 0h4v4h-4v-4zm4 0h4v4h-4v-4zm4 0h4v4h-4v-4zm4 0h4v4h-4v-4zm8 0h4v4h-4v-4zm4 0h4v4h-4v-4zm12 0h4v4h-4v-4zm4 0h4v4h-4v-4zm12 0h4v4h-4v-4zm4 0h4v4h-4v-4zm32 0h4v4h-4v-4zm8 0h4v4h-4v-4zm8 0h4v4h-4v-4zm8 0h4v4h-4v-4zm4 0h4v4h-4v-4zm4 0h4v4h-4v-4zm8 0h4v4h-4v-4zM0 16h4v4H0v-4zm8 0h4v4H8v-4zm4 0h4v4h-4v-4zm4 0h4v4h-4v-4zm8 0h4v4h-4v-4zm8 0h4v4h-4v-4zm4 0h4v4h-4v-4zm4 0h4v4h-4v-4zm4 0h4v4h-4v-4zm16 0h4v4h-4v-4zm8 0h4v4h-4v-4zm8 0h4v4h-4v-4zm4 0h4v4h-4v-4zm4 0h4v4h-4v-4zm4 0h4v4h-4v-4zm4 0h4v4h-4v-4zm4 0h4v4h-4v-4zm12 0h4v4h-4v-4zm4 0h4v4h-4v-4zm4 0h4v4h-4v-4zm4 0h4v4h-4v-4zm4 0h4v4h-4v-4zm4 0h4v4h-4v-4zm4 0h4v4h-4v-4zm4 0h4v4h-4v-4zm8 0h4v4h-4v-4zm8 0h4v4h-4v-4zm8 0h4v4h-4v-4zm4 0h4v4h-4v-4zm4 0h4v4h-4v-4zm4 0h4v4h-4v-4zm4 0h4v4h-4v-4zm12 0h4v4h-4v-4zm12 0h4v4h-4v-4zm4 0h4v4h-4v-4zm12 0h4v4h-4v-4zm8 0h4v4h-4v-4zm4 0h4v4h-4v-4zm4 0h4v4h-4v-4zm8 0h4v4h-4v-4zM0 20h4v4H0v-4zm24 0h4v4h-4v-4zm8 0h4v4h-4v-4zm4 0h4v4h-4v-4zm4 0h4v4h-4v-4zm16 0h4v4h-4v-4zm12 0h4v4h-4v-4zm4 0h4v4h-4v-4zm8 0h4v4h-4v-4zm4 0h4v4h-4v-4zm16 0h4v4h-4v-4zm4 0h4v4h-4v-4zm4 0h4v4h-4v-4zm4 0h4v4h-4v-4zm16 0h4v4h-4v-4zm4 0h4v4h-4v-4zm8 0h4v4h-4v-4zm8 0h4v4h-4v-4zm4 0h4v4h-4v-4zm8 0h4v4h-4v-4zm4 0h4v4h-4v-4zm4 0h4v4h-4v-4zm8 0h4v4h-4v-4zm8 0h4v4h-4v-4zm4 0h4v4h-4v-4zm8 0h4v4h-4v-4zm4 0h4v4h-4v-4zm16 0h4v4h-4v-4zm24 0h4v4h-4v-4zM0 24h4v4H0v-4zm4 0h4v4H4v-4zm4 0h4v4H8v-4zm4 0h4v4h-4v-4zm4 0h4v4h-4v-4zm4 0h4v4h-4v-4zm4 0h4v4h-4v-4zm8 0h4v4h-4v-4zm8 0h4v4h-4v-4zm8 0h4v4h-4v-4zm8 0h4v4h-4v-4zm8 0h4v4h-4v-4zm8 0h4v4h-4v-4zm8 0h4v4h-4v-4zm8 0h4v4h-4v-4zm8 0h4v4h-4v-4zm8 0h4v4h-4v-4zm8 0h4v4h-4v-4zm8 0h4v4h-4v-4zm8 0h4v4h-4v-4zm8 0h4v4h-4v-4zm8 0h4v4h-4v-4zm8 0h4v4h-4v-4zm8 0h4v4h-4v-4zm8 0h4v4h-4v-4zm8 0h4v4h-4v-4zm8 0h4v4h-4v-4zm8 0h4v4h-4v-4zm8 0h4v4h-4v-4zm8 0h4v4h-4v-4zm8 0h4v4h-4v-4zm4 0h4v4h-4v-4zm4 0h4v4h-4v-4zm4 0h4v4h-4v-4zm4 0h4v4h-4v-4zm4 0h4v4h-4v-4zm4 0h4v4h-4v-4zM32 28h4v4h-4v-4zm4 0h4v4h-4v-4zm4 0h4v4h-4v-4zm12 0h4v4h-4v-4zm8 0h4v4h-4v-4zm4 0h4v4h-4v-4zm4 0h4v4h-4v-4zm4 0h4v4h-4v-4zm12 0h4v4h-4v-4zm8 0h4v4h-4v-4zm8 0h4v4h-4v-4zm8 0h4v4h-4v-4zm4 0h4v4h-4v-4zm16 0h4v4h-4v-4zm8 0h4v4h-4v-4zm8 0h4v4h-4v-4zm4 0h4v4h-4v-4zm8 0h4v4h-4v-4zm4 0h4v4h-4v-4zm4 0h4v4h-4v-4zm12 0h4v4h-4v-4zm4 0h4v4h-4v-4zm4 0h4v4h-4v-4zm8 0h4v4h-4v-4zm4 0h4v4h-4v-4zm4 0h4v4h-4v-4zm8 0h4v4h-4v-4zM0 32h4v4H0v-4zm4 0h4v4H4v-4zm8 0h4v4h-4v-4zm12 0h4v4h-4v-4zm4 0h4v4h-4v-4zm8 0h4v4h-4v-4zm8 0h4v4h-4v-4zm4 0h4v4h-4v-4zm28 0h4v4h-4v-4zm12 0h4v4h-4v-4zm20 0h4v4h-4v-4zm4 0h4v4h-4v-4zm4 0h4v4h-4v-4zm4 0h4v4h-4v-4zm4 0h4v4h-4v-4zm4 0h4v4h-4v-4zm12 0h4v4h-4v-4zm4 0h4v4h-4v-4zm12 0h4v4h-4v-4zm4 0h4v4h-4v-4zm8 0h4v4h-4v-4zm4 0h4v4h-4v-4zm16 0h4v4h-4v-4zm4 0h4v4h-4v-4zm4 0h4v4h-4v-4zm20 0h4v4h-4v-4zm4 0h4v4h-4v-4zm4 0h4v4h-4v-4zm8 0h4v4h-4v-4zm4 0h4v4h-4v-4zM0 36h4v4H0v-4zm4 0h4v4H4v-4zm16 0h4v4h-4v-4zm8 0h4v4h-4v-4zm4 0h4v4h-4v-4zm4 0h4v4h-4v-4zm4 0h4v4h-4v-4zm8 0h4v4h-4v-4zm8 0h4v4h-4v-4zm4 0h4v4h-4v-4zm8 0h4v4h-4v-4zm8 0h4v4h-4v-4zm8 0h4v4h-4v-4zm4 0h4v4h-4v-4zm4 0h4v4h-4v-4zm32 0h4v4h-4v-4zm16 0h4v4h-4v-4zm8 0h4v4h-4v-4zm12 0h4v4h-4v-4zm4 0h4v4h-4v-4zm12 0h4v4h-4v-4zm4 0h4v4h-4v-4zm24 0h4v4h-4v-4zm8 0h4v4h-4v-4zm8 0h4v4h-4v-4zm4 0h4v4h-4v-4zm12 0h4v4h-4v-4zm4 0h4v4h-4v-4zM4 40h4v4H4v-4zm8 0h4v4h-4v-4zm12 0h4v4h-4v-4zm4 0h4v4h-4v-4zm4 0h4v4h-4v-4zm4 0h4v4h-4v-4zm8 0h4v4h-4v-4zm8 0h4v4h-4v-4zm12 0h4v4h-4v-4zm16 0h4v4h-4v-4zm20 0h4v4h-4v-4zm4 0h4v4h-4v-4zm12 0h4v4h-4v-4zm4 0h4v4h-4v-4zm16 0h4v4h-4v-4zm8 0h4v4h-4v-4zm4 0h4v4h-4v-4zm8 0h4v4h-4v-4zm8 0h4v4h-4v-4zm12 0h4v4h-4v-4zm4 0h4v4h-4v-4zm4 0h4v4h-4v-4zm4 0h4v4h-4v-4zm4 0h4v4h-4v-4zm4 0h4v4h-4v-4zm8 0h4v4h-4v-4zm8 0h4v4h-4v-4zm12 0h4v4h-4v-4zm4 0h4v4h-4v-4zm4 0h4v4h-4v-4zm4 0h4v4h-4v-4zm4 0h4v4h-4v-4zM0 44h4v4H0v-4zm12 0h4v4h-4v-4zm8 0h4v4h-4v-4zm8 0h4v4h-4v-4zm4 0h4v4h-4v-4zm4 0h4v4h-4v-4zm4 0h4v4h-4v-4zm4 0h4v4h-4v-4zm12 0h4v4h-4v-4zm4 0h4v4h-4v-4zm16 0h4v4h-4v-4zm4 0h4v4h-4v-4zm4 0h4v4h-4v-4zm4 0h4v4h-4v-4zm12 0h4v4h-4v-4zm12 0h4v4h-4v-4zm12 0h4v4h-4v-4zm16 0h4v4h-4v-4zm12 0h4v4h-4v-4zm8 0h4v4h-4v-4zm4 0h4v4h-4v-4zm8 0h4v4h-4v-4zm20 0h4v4h-4v-4zm8 0h4v4h-4v-4zm20 0h4v4h-4v-4zm4 0h4v4h-4v-4zM0 48h4v4H0v-4zm8 0h4v4H8v-4zm4 0h4v4h-4v-4zm12 0h4v4h-4v-4zm8 0h4v4h-4v-4zm4 0h4v4h-4v-4zm4 0h4v4h-4v-4zm8 0h4v4h-4v-4zm4 0h4v4h-4v-4zm4 0h4v4h-4v-4zm16 0h4v4h-4v-4zm12 0h4v4h-4v-4zm4 0h4v4h-4v-4zm4 0h4v4h-4v-4zm8 0h4v4h-4v-4zm4 0h4v4h-4v-4zm12 0h4v4h-4v-4zm8 0h4v4h-4v-4zm8 0h4v4h-4v-4zm12 0h4v4h-4v-4zm4 0h4v4h-4v-4zm4 0h4v4h-4v-4zm8 0h4v4h-4v-4zm8 0h4v4h-4v-4zm8 0h4v4h-4v-4zm8 0h4v4h-4v-4zm8 0h4v4h-4v-4zm8 0h4v4h-4v-4zm4 0h4v4h-4v-4zm8 0h4v4h-4v-4zm4 0h4v4h-4v-4zm4 0h4v4h-4v-4zm4 0h4v4h-4v-4zm8 0h4v4h-4v-4zm4 0h4v4h-4v-4zm4 0h4v4h-4v-4zM8 52h4v4H8v-4zm4 0h4v4h-4v-4zm8 0h4v4h-4v-4zm8 0h4v4h-4v-4zm4 0h4v4h-4v-4zm4 0h4v4h-4v-4zm4 0h4v4h-4v-4zm16 0h4v4h-4v-4zm4 0h4v4h-4v-4zm4 0h4v4h-4v-4zm8 0h4v4h-4v-4zm12 0h4v4h-4v-4zm8 0h4v4h-4v-4zm12 0h4v4h-4v-4zm12 0h4v4h-4v-4zm12 0h4v4h-4v-4zm8 0h4v4h-4v-4zm24 0h4v4h-4v-4zm20 0h4v4h-4v-4zm4 0h4v4h-4v-4zm4 0h4v4h-4v-4zm4 0h4v4h-4v-4zm4 0h4v4h-4v-4zm12 0h4v4h-4v-4zm12 0h4v4h-4v-4zm4 0h4v4h-4v-4zm8 0h4v4h-4v-4zm4 0h4v4h-4v-4zm4 0h4v4h-4v-4zM0 56h4v4H0v-4zm12 0h4v4h-4v-4zm8 0h4v4h-4v-4zm4 0h4v4h-4v-4zm16 0h4v4h-4v-4zm4 0h4v4h-4v-4zm4 0h4v4h-4v-4zm4 0h4v4h-4v-4zm4 0h4v4h-4v-4zm4 0h4v4h-4v-4zm12 0h4v4h-4v-4zm8 0h4v4h-4v-4zm8 0h4v4h-4v-4zm8 0h4v4h-4v-4zm4 0h4v4h-4v-4zm4 0h4v4h-4v-4zm16 0h4v4h-4v-4zm20 0h4v4h-4v-4zm4 0h4v4h-4v-4zm12 0h4v4h-4v-4zm4 0h4v4h-4v-4zm12 0h4v4h-4v-4zm16 0h4v4h-4v-4zm4 0h4v4h-4v-4zm4 0h4v4h-4v-4zm8 0h4v4h-4v-4zm8 0h4v4h-4v-4zm16 0h4v4h-4v-4zm4 0h4v4h-4v-4zm8 0h4v4h-4v-4zM8 60h4v4H8v-4zm12 0h4v4h-4v-4zm8 0h4v4h-4v-4zm4 0h4v4h-4v-4zm8 0h4v4h-4v-4zm4 0h4v4h-4v-4zm8 0h4v4h-4v-4zm4 0h4v4h-4v-4zm12 0h4v4h-4v-4zm8 0h4v4h-4v-4zm16 0h4v4h-4v-4zm4 0h4v4h-4v-4zm4 0h4v4h-4v-4zm4 0h4v4h-4v-4zm4 0h4v4h-4v-4zm8 0h4v4h-4v-4zm16 0h4v4h-4v-4zm8 0h4v4h-4v-4zm4 0h4v4h-4v-4zm4 0h4v4h-4v-4zm4 0h4v4h-4v-4zm8 0h4v4h-4v-4zm12 0h4v4h-4v-4zm4 0h4v4h-4v-4zm16 0h4v4h-4v-4zm12 0h4v4h-4v-4zm8 0h4v4h-4v-4zm12 0h4v4h-4v-4zM0 64h4v4H0v-4zm24 0h4v4h-4v-4zm8 0h4v4h-4v-4zm8 0h4v4h-4v-4zm4 0h4v4h-4v-4zm24 0h4v4h-4v-4zm4 0h4v4h-4v-4zm4 0h4v4h-4v-4zm16 0h4v4h-4v-4zm4 0h4v4h-4v-4zm8 0h4v4h-4v-4zm4 0h4v4h-4v-4zm8 0h4v4h-4v-4zm4 0h4v4h-4v-4zm8 0h4v4h-4v-4zm8 0h4v4h-4v-4zm8 0h4v4h-4v-4zm4 0h4v4h-4v-4zm4 0h4v4h-4v-4zm16 0h4v4h-4v-4zm8 0h4v4h-4v-4zm8 0h4v4h-4v-4zm8 0h4v4h-4v-4zm8 0h4v4h-4v-4zm4 0h4v4h-4v-4zm4 0h4v4h-4v-4zm12 0h4v4h-4v-4zm4 0h4v4h-4v-4zm16 0h4v4h-4v-4zM0 68h4v4H0v-4zm20 0h4v4h-4v-4zm8 0h4v4h-4v-4zm4 0h4v4h-4v-4zm16 0h4v4h-4v-4zm4 0h4v4h-4v-4zm4 0h4v4h-4v-4zm8 0h4v4h-4v-4zm8 0h4v4h-4v-4zm8 0h4v4h-4v-4zm20 0h4v4h-4v-4zm8 0h4v4h-4v-4zm16 0h4v4h-4v-4zm8 0h4v4h-4v-4zm12 0h4v4h-4v-4zm4 0h4v4h-4v-4zm4 0h4v4h-4v-4zm4 0h4v4h-4v-4zm4 0h4v4h-4v-4zm4 0h4v4h-4v-4zm12 0h4v4h-4v-4zm4 0h4v4h-4v-4zm16 0h4v4h-4v-4zm4 0h4v4h-4v-4zm4 0h4v4h-4v-4zm20 0h4v4h-4v-4zm12 0h4v4h-4v-4zm4 0h4v4h-4v-4zM0 72h4v4H0v-4zm8 0h4v4H8v-4zm8 0h4v4h-4v-4zm4 0h4v4h-4v-4zm4 0h4v4h-4v-4zm8 0h4v4h-4v-4zm8 0h4v4h-4v-4zm8 0h4v4h-4v-4zm24 0h4v4h-4v-4zm16 0h4v4h-4v-4zm4 0h4v4h-4v-4zm4 0h4v4h-4v-4zm8 0h4v4h-4v-4zm16 0h4v4h-4v-4zm4 0h4v4h-4v-4zm4 0h4v4h-4v-4zm4 0h4v4h-4v-4zm12 0h4v4h-4v-4zm4 0h4v4h-4v-4zm12 0h4v4h-4v-4zm4 0h4v4h-4v-4zm12 0h4v4h-4v-4zm4 0h4v4h-4v-4zm12 0h4v4h-4v-4zm4 0h4v4h-4v-4zm12 0h4v4h-4v-4zm4 0h4v4h-4v-4zm8 0h4v4h-4v-4zm4 0h4v4h-4v-4zm8 0h4v4h-4v-4zm8 0h4v4h-4v-4zM8 76h4v4H8v-4zm8 0h4v4h-4v-4zm16 0h4v4h-4v-4zm4 0h4v4h-4v-4zm4 0h4v4h-4v-4zm4 0h4v4h-4v-4zm8 0h4v4h-4v-4zm16 0h4v4h-4v-4zm4 0h4v4h-4v-4zm16 0h4v4h-4v-4zm4 0h4v4h-4v-4zm12 0h4v4h-4v-4zm8 0h4v4h-4v-4zm4 0h4v4h-4v-4zm8 0h4v4h-4v-4zm8 0h4v4h-4v-4zm4 0h4v4h-4v-4zm8 0h4v4h-4v-4zm4 0h4v4h-4v-4zm8 0h4v4h-4v-4zm8 0h4v4h-4v-4zm8 0h4v4h-4v-4zm4 0h4v4h-4v-4zm4 0h4v4h-4v-4zm4 0h4v4h-4v-4zm8 0h4v4h-4v-4zm4 0h4v4h-4v-4zm4 0h4v4h-4v-4zm8 0h4v4h-4v-4zm4 0h4v4h-4v-4zm12 0h4v4h-4v-4zm4 0h4v4h-4v-4zm4 0h4v4h-4v-4zM0 80h4v4H0v-4zm8 0h4v4H8v-4zm8 0h4v4h-4v-4zm4 0h4v4h-4v-4zm4 0h4v4h-4v-4zm8 0h4v4h-4v-4zm4 0h4v4h-4v-4zm4 0h4v4h-4v-4zm8 0h4v4h-4v-4zm24 0h4v4h-4v-4zm8 0h4v4h-4v-4zm8 0h4v4h-4v-4zm20 0h4v4h-4v-4zm20 0h4v4h-4v-4zm4 0h4v4h-4v-4zm4 0h4v4h-4v-4zm8 0h4v4h-4v-4zm8 0h4v4h-4v-4zm4 0h4v4h-4v-4zm4 0h4v4h-4v-4zm4 0h4v4h-4v-4zm8 0h4v4h-4v-4zm8 0h4v4h-4v-4zm8 0h4v4h-4v-4zm4 0h4v4h-4v-4zm4 0h4v4h-4v-4zm20 0h4v4h-4v-4zm4 0h4v4h-4v-4zm20 0h4v4h-4v-4zM4 84h4v4H4v-4zm8 0h4v4h-4v-4zm8 0h4v4h-4v-4zm12 0h4v4h-4v-4zm4 0h4v4h-4v-4zm4 0h4v4h-4v-4zm8 0h4v4h-4v-4zm4 0h4v4h-4v-4zm4 0h4v4h-4v-4zm12 0h4v4h-4v-4zm20 0h4v4h-4v-4zm16 0h4v4h-4v-4zm4 0h4v4h-4v-4zm16 0h4v4h-4v-4zm4 0h4v4h-4v-4zm4 0h4v4h-4v-4zm16 0h4v4h-4v-4zm12 0h4v4h-4v-4zm12 0h4v4h-4v-4zm40 0h4v4h-4v-4zm16 0h4v4h-4v-4zm12 0h4v4h-4v-4zM0 88h4v4H0v-4zm4 0h4v4H4v-4zm8 0h4v4h-4v-4zm4 0h4v4h-4v-4zm4 0h4v4h-4v-4zm4 0h4v4h-4v-4zm12 0h4v4h-4v-4zm4 0h4v4h-4v-4zm8 0h4v4h-4v-4zm24 0h4v4h-4v-4zm4 0h4v4h-4v-4zm8 0h4v4h-4v-4zm8 0h4v4h-4v-4zm16 0h4v4h-4v-4zm4 0h4v4h-4v-4zm4 0h4v4h-4v-4zm4 0h4v4h-4v-4zm8 0h4v4h-4v-4zm4 0h4v4h-4v-4zm8 0h4v4h-4v-4zm4 0h4v4h-4v-4zm4 0h4v4h-4v-4zm8 0h4v4h-4v-4zm4 0h4v4h-4v-4zm12 0h4v4h-4v-4zm16 0h4v4h-4v-4zm4 0h4v4h-4v-4zm12 0h4v4h-4v-4zm4 0h4v4h-4v-4zm20 0h4v4h-4v-4zm4 0h4v4h-4v-4zm8 0h4v4h-4v-4zM0 92h4v4H0v-4zm12 0h4v4h-4v-4zm4 0h4v4h-4v-4zm4 0h4v4h-4v-4zm8 0h4v4h-4v-4zm4 0h4v4h-4v-4zm4 0h4v4h-4v-4zm4 0h4v4h-4v-4zm8 0h4v4h-4v-4zm8 0h4v4h-4v-4zm4 0h4v4h-4v-4zm8 0h4v4h-4v-4zm8 0h4v4h-4v-4zm4 0h4v4h-4v-4zm12 0h4v4h-4v-4zm4 0h4v4h-4v-4zm4 0h4v4h-4v-4zm8 0h4v4h-4v-4zm20 0h4v4h-4v-4zm4 0h4v4h-4v-4zm8 0h4v4h-4v-4zm4 0h4v4h-4v-4zm8 0h4v4h-4v-4zm8 0h4v4h-4v-4zm4 0h4v4h-4v-4zm16 0h4v4h-4v-4zm12 0h4v4h-4v-4zm8 0h4v4h-4v-4zm12 0h4v4h-4v-4zm4 0h4v4h-4v-4zm12 0h4v4h-4v-4zm8 0h4v4h-4v-4zM0 96h4v4H0v-4zm8 0h4v4H8v-4zm8 0h4v4h-4v-4zm8 0h4v4h-4v-4zm4 0h4v4h-4v-4zm8 0h4v4h-4v-4zm4 0h4v4h-4v-4zm4 0h4v4h-4v-4zm4 0h4v4h-4v-4zm8 0h4v4h-4v-4zm4 0h4v4h-4v-4zm12 0h4v4h-4v-4zm8 0h4v4h-4v-4zm8 0h4v4h-4v-4zm4 0h4v4h-4v-4zm8 0h4v4h-4v-4zm8 0h4v4h-4v-4zm4 0h4v4h-4v-4zm4 0h4v4h-4v-4zm12 0h4v4h-4v-4zm4 0h4v4h-4v-4zm12 0h4v4h-4v-4zm4 0h4v4h-4v-4zm4 0h4v4h-4v-4zm8 0h4v4h-4v-4zm16 0h4v4h-4v-4zm16 0h4v4h-4v-4zm20 0h4v4h-4v-4zm4 0h4v4h-4v-4zm4 0h4v4h-4v-4zm4 0h4v4h-4v-4zm4 0h4v4h-4v-4zm8 0h4v4h-4v-4zm4 0h4v4h-4v-4zM4 100h4v4H4v-4zm4 0h4v4H8v-4zm4 0h4v4h-4v-4zm4 0h4v4h-4v-4zm16 0h4v4h-4v-4zm16 0h4v4h-4v-4zm8 0h4v4h-4v-4zm4 0h4v4h-4v-4zm4 0h4v4h-4v-4zm12 0h4v4h-4v-4zm4 0h4v4h-4v-4zm12 0h4v4h-4v-4zm16 0h4v4h-4v-4zm8 0h4v4h-4v-4zm8 0h4v4h-4v-4zm8 0h4v4h-4v-4zm4 0h4v4h-4v-4zm24 0h4v4h-4v-4zm12 0h4v4h-4v-4zm12 0h4v4h-4v-4zm12 0h4v4h-4v-4zm12 0h4v4h-4v-4zm4 0h4v4h-4v-4zm8 0h4v4h-4v-4zm4 0h4v4h-4v-4zm4 0h4v4h-4v-4zm4 0h4v4h-4v-4zm8 0h4v4h-4v-4zM0 104h4v4H0v-4zm12 0h4v4h-4v-4zm12 0h4v4h-4v-4zm4 0h4v4h-4v-4zm8 0h4v4h-4v-4zm4 0h4v4h-4v-4zm8 0h4v4h-4v-4zm4 0h4v4h-4v-4zm16 0h4v4h-4v-4zm4 0h4v4h-4v-4zm8 0h4v4h-4v-4zm4 0h4v4h-4v-4zm12 0h4v4h-4v-4zm12 0h4v4h-4v-4zm4 0h4v4h-4v-4zm4 0h4v4h-4v-4zm16 0h4v4h-4v-4zm8 0h4v4h-4v-4zm4 0h4v4h-4v-4zm4 0h4v4h-4v-4zm4 0h4v4h-4v-4zm4 0h4v4h-4v-4zm4 0h4v4h-4v-4zm4 0h4v4h-4v-4zm12 0h4v4h-4v-4zm4 0h4v4h-4v-4zm8 0h4v4h-4v-4zm4 0h4v4h-4v-4zm8 0h4v4h-4v-4zm4 0h4v4h-4v-4zm4 0h4v4h-4v-4zm12 0h4v4h-4v-4zm4 0h4v4h-4v-4zm16 0h4v4h-4v-4zM4 108h4v4H4v-4zm4 0h4v4H8v-4zm8 0h4v4h-4v-4zm12 0h4v4h-4v-4zm8 0h4v4h-4v-4zm12 0h4v4h-4v-4zm12 0h4v4h-4v-4zm8 0h4v4h-4v-4zm4 0h4v4h-4v-4zm8 0h4v4h-4v-4zm8 0h4v4h-4v-4zm20 0h4v4h-4v-4zm8 0h4v4h-4v-4zm24 0h4v4h-4v-4zm12 0h4v4h-4v-4zm4 0h4v4h-4v-4zm4 0h4v4h-4v-4zm4 0h4v4h-4v-4zm8 0h4v4h-4v-4zm20 0h4v4h-4v-4zm16 0h4v4h-4v-4zm8 0h4v4h-4v-4zm8 0h4v4h-4v-4zm4 0h4v4h-4v-4zm8 0h4v4h-4v-4zm4 0h4v4h-4v-4zM8 112h4v4H8v-4zm8 0h4v4h-4v-4zm4 0h4v4h-4v-4zm4 0h4v4h-4v-4zm4 0h4v4h-4v-4zm4 0h4v4h-4v-4zm4 0h4v4h-4v-4zm4 0h4v4h-4v-4zm12 0h4v4h-4v-4zm8 0h4v4h-4v-4zm4 0h4v4h-4v-4zm4 0h4v4h-4v-4zm4 0h4v4h-4v-4zm12 0h4v4h-4v-4zm8 0h4v4h-4v-4zm12 0h4v4h-4v-4zm4 0h4v4h-4v-4zm4 0h4v4h-4v-4zm4 0h4v4h-4v-4zm4 0h4v4h-4v-4zm4 0h4v4h-4v-4zm4 0h4v4h-4v-4zm4 0h4v4h-4v-4zm8 0h4v4h-4v-4zm8 0h4v4h-4v-4zm20 0h4v4h-4v-4zm8 0h4v4h-4v-4zm4 0h4v4h-4v-4zm12 0h4v4h-4v-4zm8 0h4v4h-4v-4zm4 0h4v4h-4v-4zm4 0h4v4h-4v-4zm4 0h4v4h-4v-4zm4 0h4v4h-4v-4zm4 0h4v4h-4v-4zm4 0h4v4h-4v-4zm8 0h4v4h-4v-4zm4 0h4v4h-4v-4zm4 0h4v4h-4v-4zM8 116h4v4H8v-4zm4 0h4v4h-4v-4zm4 0h4v4h-4v-4zm16 0h4v4h-4v-4zm4 0h4v4h-4v-4zm16 0h4v4h-4v-4zm4 0h4v4h-4v-4zm4 0h4v4h-4v-4zm12 0h4v4h-4v-4zm4 0h4v4h-4v-4zm4 0h4v4h-4v-4zm4 0h4v4h-4v-4zm4 0h4v4h-4v-4zm12 0h4v4h-4v-4zm8 0h4v4h-4v-4zm4 0h4v4h-4v-4zm16 0h4v4h-4v-4zm16 0h4v4h-4v-4zm20 0h4v4h-4v-4zm16 0h4v4h-4v-4zm12 0h4v4h-4v-4zm8 0h4v4h-4v-4zm8 0h4v4h-4v-4zm16 0h4v4h-4v-4zm4 0h4v4h-4v-4zm12 0h4v4h-4v-4zM8 120h4v4H8v-4zm8 0h4v4h-4v-4zm8 0h4v4h-4v-4zm8 0h4v4h-4v-4zm4 0h4v4h-4v-4zm4 0h4v4h-4v-4zm12 0h4v4h-4v-4zm4 0h4v4h-4v-4zm12 0h4v4h-4v-4zm4 0h4v4h-4v-4zm12 0h4v4h-4v-4zm28 0h4v4h-4v-4zm8 0h4v4h-4v-4zm8 0h4v4h-4v-4zm12 0h4v4h-4v-4zm12 0h4v4h-4v-4zm8 0h4v4h-4v-4zm4 0h4v4h-4v-4zm8 0h4v4h-4v-4zm4 0h4v4h-4v-4zm4 0h4v4h-4v-4zm12 0h4v4h-4v-4zm4 0h4v4h-4v-4zm8 0h4v4h-4v-4zm4 0h4v4h-4v-4zm8 0h4v4h-4v-4zm8 0h4v4h-4v-4zm12 0h4v4h-4v-4zm4 0h4v4h-4v-4zM0 124h4v4H0v-4zm8 0h4v4H8v-4zm4 0h4v4h-4v-4zm4 0h4v4h-4v-4zm16 0h4v4h-4v-4zm20 0h4v4h-4v-4zm4 0h4v4h-4v-4zm4 0h4v4h-4v-4zm4 0h4v4h-4v-4zm20 0h4v4h-4v-4zm20 0h4v4h-4v-4zm4 0h4v4h-4v-4zm4 0h4v4h-4v-4zm16 0h4v4h-4v-4zm4 0h4v4h-4v-4zm4 0h4v4h-4v-4zm4 0h4v4h-4v-4zm8 0h4v4h-4v-4zm8 0h4v4h-4v-4zm8 0h4v4h-4v-4zm12 0h4v4h-4v-4zm4 0h4v4h-4v-4zm12 0h4v4h-4v-4zm12 0h4v4h-4v-4zm4 0h4v4h-4v-4zm16 0h4v4h-4v-4zm4 0h4v4h-4v-4zm4 0h4v4h-4v-4zm8 0h4v4h-4v-4zM4 128h4v4H4v-4zm12 0h4v4h-4v-4zm4 0h4v4h-4v-4zm4 0h4v4h-4v-4zm4 0h4v4h-4v-4zm4 0h4v4h-4v-4zm4 0h4v4h-4v-4zm4 0h4v4h-4v-4zm4 0h4v4h-4v-4zm12 0h4v4h-4v-4zm4 0h4v4h-4v-4zm4 0h4v4h-4v-4zm8 0h4v4h-4v-4zm4 0h4v4h-4v-4zm4 0h4v4h-4v-4zm4 0h4v4h-4v-4zm8 0h4v4h-4v-4zm4 0h4v4h-4v-4zm4 0h4v4h-4v-4zm12 0h4v4h-4v-4zm4 0h4v4h-4v-4zm4 0h4v4h-4v-4zm4 0h4v4h-4v-4zm4 0h4v4h-4v-4zm16 0h4v4h-4v-4zm4 0h4v4h-4v-4zm4 0h4v4h-4v-4zm4 0h4v4h-4v-4zm4 0h4v4h-4v-4zm4 0h4v4h-4v-4zm8 0h4v4h-4v-4zm8 0h4v4h-4v-4zm4 0h4v4h-4v-4zm4 0h4v4h-4v-4zm4 0h4v4h-4v-4zm8 0h4v4h-4v-4zm4 0h4v4h-4v-4zm4 0h4v4h-4v-4zm4 0h4v4h-4v-4zm4 0h4v4h-4v-4zm4 0h4v4h-4v-4zm4 0h4v4h-4v-4zM0 132h4v4H0v-4zm4 0h4v4H4v-4zm4 0h4v4H8v-4zm4 0h4v4h-4v-4zm4 0h4v4h-4v-4zm4 0h4v4h-4v-4zm8 0h4v4h-4v-4zm8 0h4v4h-4v-4zm4 0h4v4h-4v-4zm12 0h4v4h-4v-4zm8 0h4v4h-4v-4zm8 0h4v4h-4v-4zm4 0h4v4h-4v-4zm4 0h4v4h-4v-4zm8 0h4v4h-4v-4zm12 0h4v4h-4v-4zm8 0h4v4h-4v-4zm4 0h4v4h-4v-4zm4 0h4v4h-4v-4zm8 0h4v4h-4v-4zm4 0h4v4h-4v-4zm20 0h4v4h-4v-4zm4 0h4v4h-4v-4zm8 0h4v4h-4v-4zm8 0h4v4h-4v-4zm12 0h4v4h-4v-4zm12 0h4v4h-4v-4zm8 0h4v4h-4v-4zm8 0h4v4h-4v-4zm4 0h4v4h-4v-4zm4 0h4v4h-4v-4zm4 0h4v4h-4v-4zm4 0h4v4h-4v-4zm16 0h4v4h-4v-4zm4 0h4v4h-4v-4zM0 136h4v4H0v-4zm8 0h4v4H8v-4zm4 0h4v4h-4v-4zm12 0h4v4h-4v-4zm4 0h4v4h-4v-4zm8 0h4v4h-4v-4zm4 0h4v4h-4v-4zm8 0h4v4h-4v-4zm4 0h4v4h-4v-4zm4 0h4v4h-4v-4zm4 0h4v4h-4v-4zm12 0h4v4h-4v-4zm4 0h4v4h-4v-4zm24 0h4v4h-4v-4zm4 0h4v4h-4v-4zm8 0h4v4h-4v-4zm4 0h4v4h-4v-4zm8 0h4v4h-4v-4zm12 0h4v4h-4v-4zm4 0h4v4h-4v-4zm4 0h4v4h-4v-4zm16 0h4v4h-4v-4zm24 0h4v4h-4v-4zm8 0h4v4h-4v-4zm20 0h4v4h-4v-4zm4 0h4v4h-4v-4zm8 0h4v4h-4v-4zm4 0h4v4h-4v-4zm12 0h4v4h-4v-4zM8 140h4v4H8v-4zm4 0h4v4h-4v-4zm4 0h4v4h-4v-4zm20 0h4v4h-4v-4zm8 0h4v4h-4v-4zm4 0h4v4h-4v-4zm4 0h4v4h-4v-4zm4 0h4v4h-4v-4zm4 0h4v4h-4v-4zm8 0h4v4h-4v-4zm4 0h4v4h-4v-4zm4 0h4v4h-4v-4zm4 0h4v4h-4v-4zm12 0h4v4h-4v-4zm4 0h4v4h-4v-4zm4 0h4v4h-4v-4zm20 0h4v4h-4v-4zm8 0h4v4h-4v-4zm8 0h4v4h-4v-4zm8 0h4v4h-4v-4zm8 0h4v4h-4v-4zm4 0h4v4h-4v-4zm4 0h4v4h-4v-4zm4 0h4v4h-4v-4zm8 0h4v4h-4v-4zm8 0h4v4h-4v-4zm12 0h4v4h-4v-4zm4 0h4v4h-4v-4zm4 0h4v4h-4v-4zm8 0h4v4h-4v-4zm8 0h4v4h-4v-4zm8 0h4v4h-4v-4zm4 0h4v4h-4v-4zm8 0h4v4h-4v-4zM8 144h4v4H8v-4zm4 0h4v4h-4v-4zm4 0h4v4h-4v-4zm4 0h4v4h-4v-4zm4 0h4v4h-4v-4zm4 0h4v4h-4v-4zm8 0h4v4h-4v-4zm4 0h4v4h-4v-4zm4 0h4v4h-4v-4zm12 0h4v4h-4v-4zm4 0h4v4h-4v-4zm12 0h4v4h-4v-4zm16 0h4v4h-4v-4zm4 0h4v4h-4v-4zm4 0h4v4h-4v-4zm4 0h4v4h-4v-4zm4 0h4v4h-4v-4zm8 0h4v4h-4v-4zm4 0h4v4h-4v-4zm8 0h4v4h-4v-4zm4 0h4v4h-4v-4zm12 0h4v4h-4v-4zm4 0h4v4h-4v-4zm4 0h4v4h-4v-4zm4 0h4v4h-4v-4zm4 0h4v4h-4v-4zm4 0h4v4h-4v-4zm4 0h4v4h-4v-4zm4 0h4v4h-4v-4zm4 0h4v4h-4v-4zm4 0h4v4h-4v-4zm4 0h4v4h-4v-4zm4 0h4v4h-4v-4zm8 0h4v4h-4v-4zm4 0h4v4h-4v-4zm20 0h4v4h-4v-4zm12 0h4v4h-4v-4zm12 0h4v4h-4v-4zM0 148h4v4H0v-4zm4 0h4v4H4v-4zm4 0h4v4H8v-4zm4 0h4v4h-4v-4zm24 0h4v4h-4v-4zm8 0h4v4h-4v-4zm8 0h4v4h-4v-4zm12 0h4v4h-4v-4zm4 0h4v4h-4v-4zm4 0h4v4h-4v-4zm4 0h4v4h-4v-4zm24 0h4v4h-4v-4zm4 0h4v4h-4v-4zm12 0h4v4h-4v-4zm8 0h4v4h-4v-4zm4 0h4v4h-4v-4zm16 0h4v4h-4v-4zm12 0h4v4h-4v-4zm20 0h4v4h-4v-4zm4 0h4v4h-4v-4zm4 0h4v4h-4v-4zm4 0h4v4h-4v-4zm4 0h4v4h-4v-4zm12 0h4v4h-4v-4zm4 0h4v4h-4v-4zm4 0h4v4h-4v-4zm4 0h4v4h-4v-4zm12 0h4v4h-4v-4zm8 0h4v4h-4v-4zm4 0h4v4h-4v-4zM8 152h4v4H8v-4zm8 0h4v4h-4v-4zm8 0h4v4h-4v-4zm4 0h4v4h-4v-4zm8 0h4v4h-4v-4zm16 0h4v4h-4v-4zm24 0h4v4h-4v-4zm4 0h4v4h-4v-4zm8 0h4v4h-4v-4zm4 0h4v4h-4v-4zm20 0h4v4h-4v-4zm4 0h4v4h-4v-4zm12 0h4v4h-4v-4zm8 0h4v4h-4v-4zm8 0h4v4h-4v-4zm4 0h4v4h-4v-4zm4 0h4v4h-4v-4zm4 0h4v4h-4v-4zm32 0h4v4h-4v-4zm4 0h4v4h-4v-4zm8 0h4v4h-4v-4zm4 0h4v4h-4v-4zm4 0h4v4h-4v-4zm8 0h4v4h-4v-4zm8 0h4v4h-4v-4zm12 0h4v4h-4v-4zm4 0h4v4h-4v-4zM4 156h4v4H4v-4zm4 0h4v4H8v-4zm20 0h4v4h-4v-4zm12 0h4v4h-4v-4zm8 0h4v4h-4v-4zm12 0h4v4h-4v-4zm8 0h4v4h-4v-4zm4 0h4v4h-4v-4zm12 0h4v4h-4v-4zm4 0h4v4h-4v-4zm8 0h4v4h-4v-4zm12 0h4v4h-4v-4zm4 0h4v4h-4v-4zm32 0h4v4h-4v-4zm4 0h4v4h-4v-4zm8 0h4v4h-4v-4zm4 0h4v4h-4v-4zm4 0h4v4h-4v-4zm12 0h4v4h-4v-4zm12 0h4v4h-4v-4zm20 0h4v4h-4v-4zm4 0h4v4h-4v-4zm4 0h4v4h-4v-4zm4 0h4v4h-4v-4zm8 0h4v4h-4v-4zM0 160h4v4H0v-4zm8 0h4v4H8v-4zm12 0h4v4h-4v-4zm4 0h4v4h-4v-4zm4 0h4v4h-4v-4zm16 0h4v4h-4v-4zm8 0h4v4h-4v-4zm8 0h4v4h-4v-4zm4 0h4v4h-4v-4zm4 0h4v4h-4v-4zm12 0h4v4h-4v-4zm4 0h4v4h-4v-4zm16 0h4v4h-4v-4zm4 0h4v4h-4v-4zm8 0h4v4h-4v-4zm4 0h4v4h-4v-4zm4 0h4v4h-4v-4zm4 0h4v4h-4v-4zm8 0h4v4h-4v-4zm4 0h4v4h-4v-4zm8 0h4v4h-4v-4zm4 0h4v4h-4v-4zm24 0h4v4h-4v-4zm4 0h4v4h-4v-4zm12 0h4v4h-4v-4zm4 0h4v4h-4v-4zm4 0h4v4h-4v-4zm4 0h4v4h-4v-4zm12 0h4v4h-4v-4zm4 0h4v4h-4v-4zm4 0h4v4h-4v-4zm12 0h4v4h-4v-4zm4 0h4v4h-4v-4zM0 164h4v4H0v-4zm4 0h4v4H4v-4zm4 0h4v4H8v-4zm20 0h4v4h-4v-4zm4 0h4v4h-4v-4zm12 0h4v4h-4v-4zm4 0h4v4h-4v-4zm4 0h4v4h-4v-4zm4 0h4v4h-4v-4zm4 0h4v4h-4v-4zm16 0h4v4h-4v-4zm4 0h4v4h-4v-4zm4 0h4v4h-4v-4zm20 0h4v4h-4v-4zm16 0h4v4h-4v-4zm12 0h4v4h-4v-4zm12 0h4v4h-4v-4zm8 0h4v4h-4v-4zm4 0h4v4h-4v-4zm4 0h4v4h-4v-4zm16 0h4v4h-4v-4zm12 0h4v4h-4v-4zm4 0h4v4h-4v-4zm4 0h4v4h-4v-4zm4 0h4v4h-4v-4zm12 0h4v4h-4v-4zm12 0h4v4h-4v-4zm12 0h4v4h-4v-4zM4 168h4v4H4v-4zm8 0h4v4h-4v-4zm12 0h4v4h-4v-4zm24 0h4v4h-4v-4zm8 0h4v4h-4v-4zm4 0h4v4h-4v-4zm4 0h4v4h-4v-4zm4 0h4v4h-4v-4zm4 0h4v4h-4v-4zm4 0h4v4h-4v-4zm4 0h4v4h-4v-4zm4 0h4v4h-4v-4zm20 0h4v4h-4v-4zm8 0h4v4h-4v-4zm8 0h4v4h-4v-4zm4 0h4v4h-4v-4zm8 0h4v4h-4v-4zm8 0h4v4h-4v-4zm4 0h4v4h-4v-4zm8 0h4v4h-4v-4zm8 0h4v4h-4v-4zm4 0h4v4h-4v-4zm8 0h4v4h-4v-4zm4 0h4v4h-4v-4zm16 0h4v4h-4v-4zm4 0h4v4h-4v-4zm12 0h4v4h-4v-4zm8 0h4v4h-4v-4zm12 0h4v4h-4v-4zm4 0h4v4h-4v-4zm8 0h4v4h-4v-4zM8 172h4v4H8v-4zm12 0h4v4h-4v-4zm8 0h4v4h-4v-4zm4 0h4v4h-4v-4zm4 0h4v4h-4v-4zm12 0h4v4h-4v-4zm8 0h4v4h-4v-4zm8 0h4v4h-4v-4zm4 0h4v4h-4v-4zm28 0h4v4h-4v-4zm4 0h4v4h-4v-4zm4 0h4v4h-4v-4zm8 0h4v4h-4v-4zm4 0h4v4h-4v-4zm4 0h4v4h-4v-4zm36 0h4v4h-4v-4zm4 0h4v4h-4v-4zm4 0h4v4h-4v-4zm8 0h4v4h-4v-4zm4 0h4v4h-4v-4zm8 0h4v4h-4v-4zm8 0h4v4h-4v-4zm24 0h4v4h-4v-4zm12 0h4v4h-4v-4zm4 0h4v4h-4v-4zM0 176h4v4H0v-4zm8 0h4v4H8v-4zm4 0h4v4h-4v-4zm4 0h4v4h-4v-4zm4 0h4v4h-4v-4zm4 0h4v4h-4v-4zm20 0h4v4h-4v-4zm8 0h4v4h-4v-4zm8 0h4v4h-4v-4zm8 0h4v4h-4v-4zm4 0h4v4h-4v-4zm4 0h4v4h-4v-4zm4 0h4v4h-4v-4zm4 0h4v4h-4v-4zm4 0h4v4h-4v-4zm4 0h4v4h-4v-4zm8 0h4v4h-4v-4zm12 0h4v4h-4v-4zm8 0h4v4h-4v-4zm8 0h4v4h-4v-4zm4 0h4v4h-4v-4zm4 0h4v4h-4v-4zm4 0h4v4h-4v-4zm4 0h4v4h-4v-4zm4 0h4v4h-4v-4zm8 0h4v4h-4v-4zm4 0h4v4h-4v-4zm20 0h4v4h-4v-4zm4 0h4v4h-4v-4zm4 0h4v4h-4v-4zm4 0h4v4h-4v-4zm8 0h4v4h-4v-4zm12 0h4v4h-4v-4zm4 0h4v4h-4v-4zm4 0h4v4h-4v-4zm4 0h4v4h-4v-4zm4 0h4v4h-4v-4zm8 0h4v4h-4v-4zm4 0h4v4h-4v-4zM8 180h4v4H8v-4zm20 0h4v4h-4v-4zm8 0h4v4h-4v-4zm4 0h4v4h-4v-4zm4 0h4v4h-4v-4zm8 0h4v4h-4v-4zm8 0h4v4h-4v-4zm12 0h4v4h-4v-4zm4 0h4v4h-4v-4zm8 0h4v4h-4v-4zm4 0h4v4h-4v-4zm12 0h4v4h-4v-4zm4 0h4v4h-4v-4zm4 0h4v4h-4v-4zm4 0h4v4h-4v-4zm4 0h4v4h-4v-4zm32 0h4v4h-4v-4zm12 0h4v4h-4v-4zm4 0h4v4h-4v-4zm40 0h4v4h-4v-4zm8 0h4v4h-4v-4zm4 0h4v4h-4v-4zm4 0h4v4h-4v-4zm16 0h4v4h-4v-4zm4 0h4v4h-4v-4zM0 184h4v4H0v-4zm4 0h4v4H4v-4zm4 0h4v4H8v-4zm8 0h4v4h-4v-4zm8 0h4v4h-4v-4zm4 0h4v4h-4v-4zm8 0h4v4h-4v-4zm4 0h4v4h-4v-4zm4 0h4v4h-4v-4zm4 0h4v4h-4v-4zm8 0h4v4h-4v-4zm12 0h4v4h-4v-4zm12 0h4v4h-4v-4zm12 0h4v4h-4v-4zm8 0h4v4h-4v-4zm4 0h4v4h-4v-4zm4 0h4v4h-4v-4zm12 0h4v4h-4v-4zm4 0h4v4h-4v-4zm4 0h4v4h-4v-4zm4 0h4v4h-4v-4zm4 0h4v4h-4v-4zm8 0h4v4h-4v-4zm8 0h4v4h-4v-4zm24 0h4v4h-4v-4zm12 0h4v4h-4v-4zm4 0h4v4h-4v-4zm4 0h4v4h-4v-4zm20 0h4v4h-4v-4zm12 0h4v4h-4v-4zm8 0h4v4h-4v-4zm4 0h4v4h-4v-4zM4 188h4v4H4v-4zm4 0h4v4H8v-4zm8 0h4v4h-4v-4zm4 0h4v4h-4v-4zm16 0h4v4h-4v-4zm16 0h4v4h-4v-4zm8 0h4v4h-4v-4zm4 0h4v4h-4v-4zm4 0h4v4h-4v-4zm12 0h4v4h-4v-4zm32 0h4v4h-4v-4zm8 0h4v4h-4v-4zm16 0h4v4h-4v-4zm4 0h4v4h-4v-4zm4 0h4v4h-4v-4zm8 0h4v4h-4v-4zm8 0h4v4h-4v-4zm4 0h4v4h-4v-4zm12 0h4v4h-4v-4zm4 0h4v4h-4v-4zm8 0h4v4h-4v-4zm4 0h4v4h-4v-4zm4 0h4v4h-4v-4zm4 0h4v4h-4v-4zm8 0h4v4h-4v-4zm8 0h4v4h-4v-4zm12 0h4v4h-4v-4zM0 192h4v4H0v-4zm4 0h4v4H4v-4zm4 0h4v4H8v-4zm4 0h4v4h-4v-4zm4 0h4v4h-4v-4zm4 0h4v4h-4v-4zm4 0h4v4h-4v-4zm8 0h4v4h-4v-4zm4 0h4v4h-4v-4zm4 0h4v4h-4v-4zm8 0h4v4h-4v-4zm4 0h4v4h-4v-4zm4 0h4v4h-4v-4zm8 0h4v4h-4v-4zm4 0h4v4h-4v-4zm4 0h4v4h-4v-4zm4 0h4v4h-4v-4zm12 0h4v4h-4v-4zm4 0h4v4h-4v-4zm4 0h4v4h-4v-4zm4 0h4v4h-4v-4zm4 0h4v4h-4v-4zm4 0h4v4h-4v-4zm12 0h4v4h-4v-4zm24 0h4v4h-4v-4zm16 0h4v4h-4v-4zm4 0h4v4h-4v-4zm4 0h4v4h-4v-4zm4 0h4v4h-4v-4zm4 0h4v4h-4v-4zm4 0h4v4h-4v-4zm4 0h4v4h-4v-4zm8 0h4v4h-4v-4zm16 0h4v4h-4v-4zm20 0h4v4h-4v-4zm8 0h4v4h-4v-4zM0 196h4v4H0v-4zm4 0h4v4H4v-4zm4 0h4v4H8v-4zm4 0h4v4h-4v-4zm4 0h4v4h-4v-4zm4 0h4v4h-4v-4zm20 0h4v4h-4v-4zm4 0h4v4h-4v-4zm28 0h4v4h-4v-4zm16 0h4v4h-4v-4zm4 0h4v4h-4v-4zm12 0h4v4h-4v-4zm8 0h4v4h-4v-4zm4 0h4v4h-4v-4zm4 0h4v4h-4v-4zm4 0h4v4h-4v-4zm4 0h4v4h-4v-4zm8 0h4v4h-4v-4zm24 0h4v4h-4v-4zm4 0h4v4h-4v-4zm12 0h4v4h-4v-4zm4 0h4v4h-4v-4zm4 0h4v4h-4v-4zm8 0h4v4h-4v-4zm36 0h4v4h-4v-4zm4 0h4v4h-4v-4zm4 0h4v4h-4v-4zM8 200h4v4H8v-4zm4 0h4v4h-4v-4zm4 0h4v4h-4v-4zm4 0h4v4h-4v-4zm4 0h4v4h-4v-4zm4 0h4v4h-4v-4zm44 0h4v4h-4v-4zm4 0h4v4h-4v-4zm12 0h4v4h-4v-4zm8 0h4v4h-4v-4zm4 0h4v4h-4v-4zm16 0h4v4h-4v-4zm4 0h4v4h-4v-4zm8 0h4v4h-4v-4zm16 0h4v4h-4v-4zm4 0h4v4h-4v-4zm4 0h4v4h-4v-4zm8 0h4v4h-4v-4zm12 0h4v4h-4v-4zm4 0h4v4h-4v-4zm4 0h4v4h-4v-4zm8 0h4v4h-4v-4zm4 0h4v4h-4v-4zm8 0h4v4h-4v-4zm8 0h4v4h-4v-4zm8 0h4v4h-4v-4zm8 0h4v4h-4v-4zm16 0h4v4h-4v-4zM0 204h4v4H0v-4zm4 0h4v4H4v-4zm4 0h4v4H8v-4zm8 0h4v4h-4v-4zm12 0h4v4h-4v-4zm16 0h4v4h-4v-4zm8 0h4v4h-4v-4zm4 0h4v4h-4v-4zm8 0h4v4h-4v-4zm20 0h4v4h-4v-4zm8 0h4v4h-4v-4zm8 0h4v4h-4v-4zm8 0h4v4h-4v-4zm4 0h4v4h-4v-4zm20 0h4v4h-4v-4zm8 0h4v4h-4v-4zm4 0h4v4h-4v-4zm4 0h4v4h-4v-4zm8 0h4v4h-4v-4zm4 0h4v4h-4v-4zm16 0h4v4h-4v-4zm16 0h4v4h-4v-4zm16 0h4v4h-4v-4zm4 0h4v4h-4v-4zm4 0h4v4h-4v-4zm4 0h4v4h-4v-4zm8 0h4v4h-4v-4zm12 0h4v4h-4v-4zM0 208h4v4H0v-4zm4 0h4v4H4v-4zm4 0h4v4H8v-4zm4 0h4v4h-4v-4zm12 0h4v4h-4v-4zm4 0h4v4h-4v-4zm4 0h4v4h-4v-4zm4 0h4v4h-4v-4zm4 0h4v4h-4v-4zm4 0h4v4h-4v-4zm4 0h4v4h-4v-4zm4 0h4v4h-4v-4zm4 0h4v4h-4v-4zm4 0h4v4h-4v-4zm4 0h4v4h-4v-4zm8 0h4v4h-4v-4zm12 0h4v4h-4v-4zm20 0h4v4h-4v-4zm8 0h4v4h-4v-4zm4 0h4v4h-4v-4zm4 0h4v4h-4v-4zm4 0h4v4h-4v-4zm4 0h4v4h-4v-4zm4 0h4v4h-4v-4zm8 0h4v4h-4v-4zm4 0h4v4h-4v-4zm4 0h4v4h-4v-4zm8 0h4v4h-4v-4zm12 0h4v4h-4v-4zm4 0h4v4h-4v-4zm4 0h4v4h-4v-4zm4 0h4v4h-4v-4zm12 0h4v4h-4v-4zm8 0h4v4h-4v-4zm8 0h4v4h-4v-4zm4 0h4v4h-4v-4zm4 0h4v4h-4v-4zm4 0h4v4h-4v-4zm4 0h4v4h-4v-4zm4 0h4v4h-4v-4zm4 0h4v4h-4v-4zm8 0h4v4h-4v-4zm-208 4h4v4h-4v-4zm4 0h4v4h-4v-4zm8 0h4v4h-4v-4zm12 0h4v4h-4v-4zm4 0h4v4h-4v-4zm8 0h4v4h-4v-4zm4 0h4v4h-4v-4zm4 0h4v4h-4v-4zm4 0h4v4h-4v-4zm4 0h4v4h-4v-4zm4 0h4v4h-4v-4zm4 0h4v4h-4v-4zm8 0h4v4h-4v-4zm12 0h4v4h-4v-4zm16 0h4v4h-4v-4zm4 0h4v4h-4v-4zm12 0h4v4h-4v-4zm8 0h4v4h-4v-4zm20 0h4v4h-4v-4zm8 0h4v4h-4v-4zm12 0h4v4h-4v-4zm4 0h4v4h-4v-4zm4 0h4v4h-4v-4zm4 0h4v4h-4v-4zm4 0h4v4h-4v-4zm16 0h4v4h-4v-4zm8 0h4v4h-4v-4zm4 0h4v4h-4v-4zm4 0h4v4h-4v-4zM0 216h4v4H0v-4zm4 0h4v4H4v-4zm4 0h4v4H8v-4zm4 0h4v4h-4v-4zm4 0h4v4h-4v-4zm4 0h4v4h-4v-4zm4 0h4v4h-4v-4zm8 0h4v4h-4v-4zm8 0h4v4h-4v-4zm4 0h4v4h-4v-4zm4 0h4v4h-4v-4zm24 0h4v4h-4v-4zm4 0h4v4h-4v-4zm12 0h4v4h-4v-4zm4 0h4v4h-4v-4zm8 0h4v4h-4v-4zm8 0h4v4h-4v-4zm4 0h4v4h-4v-4zm8 0h4v4h-4v-4zm8 0h4v4h-4v-4zm4 0h4v4h-4v-4zm4 0h4v4h-4v-4zm4 0h4v4h-4v-4zm4 0h4v4h-4v-4zm8 0h4v4h-4v-4zm4 0h4v4h-4v-4zm8 0h4v4h-4v-4zm12 0h4v4h-4v-4zm4 0h4v4h-4v-4zm12 0h4v4h-4v-4zm4 0h4v4h-4v-4zm8 0h4v4h-4v-4zm4 0h4v4h-4v-4zm8 0h4v4h-4v-4zm8 0h4v4h-4v-4zm4 0h4v4h-4v-4zm12 0h4v4h-4v-4zM0 220h4v4H0v-4zm24 0h4v4h-4v-4zm12 0h4v4h-4v-4zm4 0h4v4h-4v-4zm8 0h4v4h-4v-4zm12 0h4v4h-4v-4zm4 0h4v4h-4v-4zm32 0h4v4h-4v-4zm8 0h4v4h-4v-4zm8 0h4v4h-4v-4zm16 0h4v4h-4v-4zm8 0h4v4h-4v-4zm4 0h4v4h-4v-4zm4 0h4v4h-4v-4zm20 0h4v4h-4v-4zm4 0h4v4h-4v-4zm8 0h4v4h-4v-4zm16 0h4v4h-4v-4zm16 0h4v4h-4v-4zm16 0h4v4h-4v-4zm4 0h4v4h-4v-4zm4 0h4v4h-4v-4zm4 0h4v4h-4v-4zm4 0h4v4h-4v-4zM0 224h4v4H0v-4zm8 0h4v4H8v-4zm4 0h4v4h-4v-4zm4 0h4v4h-4v-4zm8 0h4v4h-4v-4zm24 0h4v4h-4v-4zm20 0h4v4h-4v-4zm4 0h4v4h-4v-4zm16 0h4v4h-4v-4zm4 0h4v4h-4v-4zm8 0h4v4h-4v-4zm4 0h4v4h-4v-4zm8 0h4v4h-4v-4zm4 0h4v4h-4v-4zm4 0h4v4h-4v-4zm4 0h4v4h-4v-4zm4 0h4v4h-4v-4zm8 0h4v4h-4v-4zm8 0h4v4h-4v-4zm4 0h4v4h-4v-4zm4 0h4v4h-4v-4zm8 0h4v4h-4v-4zm4 0h4v4h-4v-4zm4 0h4v4h-4v-4zm4 0h4v4h-4v-4zm8 0h4v4h-4v-4zm8 0h4v4h-4v-4zm4 0h4v4h-4v-4zm16 0h4v4h-4v-4zm4 0h4v4h-4v-4zm4 0h4v4h-4v-4zm4 0h4v4h-4v-4zm4 0h4v4h-4v-4zm12 0h4v4h-4v-4zm4 0h4v4h-4v-4zM0 228h4v4H0v-4zm8 0h4v4H8v-4zm4 0h4v4h-4v-4zm4 0h4v4h-4v-4zm8 0h4v4h-4v-4zm8 0h4v4h-4v-4zm4 0h4v4h-4v-4zm4 0h4v4h-4v-4zm8 0h4v4h-4v-4zm8 0h4v4h-4v-4zm4 0h4v4h-4v-4zm20 0h4v4h-4v-4zm4 0h4v4h-4v-4zm4 0h4v4h-4v-4zm12 0h4v4h-4v-4zm8 0h4v4h-4v-4zm4 0h4v4h-4v-4zm4 0h4v4h-4v-4zm16 0h4v4h-4v-4zm16 0h4v4h-4v-4zm8 0h4v4h-4v-4zm4 0h4v4h-4v-4zm12 0h4v4h-4v-4zm24 0h4v4h-4v-4zm12 0h4v4h-4v-4zm8 0h4v4h-4v-4zm4 0h4v4h-4v-4zm8 0h4v4h-4v-4zm8 0h4v4h-4v-4zM0 232h4v4H0v-4zm8 0h4v4H8v-4zm4 0h4v4h-4v-4zm4 0h4v4h-4v-4zm8 0h4v4h-4v-4zm20 0h4v4h-4v-4zm4 0h4v4h-4v-4zm4 0h4v4h-4v-4zm8 0h4v4h-4v-4zm4 0h4v4h-4v-4zm4 0h4v4h-4v-4zm4 0h4v4h-4v-4zm4 0h4v4h-4v-4zm8 0h4v4h-4v-4zm8 0h4v4h-4v-4zm8 0h4v4h-4v-4zm4 0h4v4h-4v-4zm4 0h4v4h-4v-4zm8 0h4v4h-4v-4zm4 0h4v4h-4v-4zm4 0h4v4h-4v-4zm4 0h4v4h-4v-4zm4 0h4v4h-4v-4zm4 0h4v4h-4v-4zm8 0h4v4h-4v-4zm4 0h4v4h-4v-4zm28 0h4v4h-4v-4zm8 0h4v4h-4v-4zm4 0h4v4h-4v-4zm4 0h4v4h-4v-4zm32 0h4v4h-4v-4zm8 0h4v4h-4v-4zm8 0h4v4h-4v-4zM0 236h4v4H0v-4zm24 0h4v4h-4v-4zm8 0h4v4h-4v-4zm8 0h4v4h-4v-4zm4 0h4v4h-4v-4zm16 0h4v4h-4v-4zm8 0h4v4h-4v-4zm16 0h4v4h-4v-4zm4 0h4v4h-4v-4zm4 0h4v4h-4v-4zm4 0h4v4h-4v-4zm4 0h4v4h-4v-4zm8 0h4v4h-4v-4zm4 0h4v4h-4v-4zm4 0h4v4h-4v-4zm8 0h4v4h-4v-4zm8 0h4v4h-4v-4zm28 0h4v4h-4v-4zm4 0h4v4h-4v-4zm8 0h4v4h-4v-4zm20 0h4v4h-4v-4zm12 0h4v4h-4v-4zm4 0h4v4h-4v-4zm4 0h4v4h-4v-4zm16 0h4v4h-4v-4zM0 240h4v4H0v-4zm4 0h4v4H4v-4zm4 0h4v4H8v-4zm4 0h4v4h-4v-4zm4 0h4v4h-4v-4zm4 0h4v4h-4v-4zm4 0h4v4h-4v-4zm8 0h4v4h-4v-4zm4 0h4v4h-4v-4zm8 0h4v4h-4v-4zm4 0h4v4h-4v-4zm8 0h4v4h-4v-4zm4 0h4v4h-4v-4zm12 0h4v4h-4v-4zm16 0h4v4h-4v-4zm12 0h4v4h-4v-4zm4 0h4v4h-4v-4zm4 0h4v4h-4v-4zm4 0h4v4h-4v-4zm16 0h4v4h-4v-4zm4 0h4v4h-4v-4zm8 0h4v4h-4v-4zm20 0h4v4h-4v-4zm4 0h4v4h-4v-4zm4 0h4v4h-4v-4zm8 0h4v4h-4v-4zm8 0h4v4h-4v-4zm8 0h4v4h-4v-4zm8 0h4v4h-4v-4zm8 0h4v4h-4v-4zm12 0h4v4h-4v-4zm4 0h4v4h-4v-4zm4 0h4v4h-4v-4zm8 0h4v4h-4v-4zm4 0h4v4h-4v-4z"/>
</svg><svg fill="none" viewBox="0 0 16 16" id="modal-question" xmlns="http://www.w3.org/2000/svg">
    <path fill-rule="evenodd" clip-rule="evenodd" d="M5.566 4.426A2.501 2.501 0 0 1 10.5 5c0 .63-.16 1.039-.374 1.345-.226.325-.54.58-.937.864l-.2.14C8.274 7.845 7.25 8.555 7.25 10v.25a.75.75 0 0 0 1.5 0V10c0-.635.358-.89 1.196-1.489l.115-.082c.416-.298.914-.677 1.297-1.228C11.755 6.63 12 5.92 12 5a4 4 0 0 0-7.894-.917.75.75 0 1 0 1.46.343ZM8 15a1.1 1.1 0 1 0 0-2.2A1.1 1.1 0 0 0 8 15Z" fill="#909099"/>
</svg><svg fill="none" viewBox="0 0 158 28" id="modal-ton-connect" xmlns="http://www.w3.org/2000/svg">
    <path fill-rule="evenodd" clip-rule="evenodd" d="M28 14.001c0 7.732-6.268 14-14 14s-14-6.268-14-14 6.268-14 14-14 14 6.268 14 14Zm-18.78-6h9.561c1.757 0 2.871 1.899 1.988 3.43l-5.902 10.227a1.002 1.002 0 0 1-1.735 0l-5.9-10.228c-.885-1.533.23-3.429 1.987-3.429Zm3.906 10.587v-8.84H9.218a.542.542 0 0 0-.476.81l3.1 5.546 1.284 2.484Zm3.03-2.483 3.1-5.548a.542.542 0 0 0-.477-.81H14.87v8.844l1.285-2.486Z" fill="#0098EA"/>
    <path d="M18.78 8.001H9.22c-1.759 0-2.873 1.896-1.988 3.43l5.9 10.227c.385.667 1.35.667 1.735 0L20.77 11.43c.883-1.53-.23-3.429-1.988-3.429Zm-5.653 10.59-1.285-2.488-3.1-5.545a.542.542 0 0 1 .476-.81h3.908v8.844l.001-.001Zm6.129-8.034-3.1 5.548-1.285 2.486V9.747h3.908c.428 0 .681.455.477.81Z" fill="#FFF"/>
    <path fill-rule="evenodd" clip-rule="evenodd" d="M51.748 22.197c3.97 0 7.213-3.243 7.213-7.213s-3.243-7.213-7.213-7.213c-3.99 0-7.212 3.243-7.212 7.213s3.223 7.213 7.212 7.213Zm0-3.027c-2.28 0-4.068-1.926-4.068-4.186s1.789-4.186 4.068-4.186c2.26 0 4.049 1.926 4.049 4.186s-1.789 4.186-4.049 4.186ZM37.07 21.96h3.144V10.996h4.07V8.007H33v2.988h4.07V21.96ZM69.938 8.008h3.144v13.954H70.39l-6.8-8.628v8.628h-3.125V8.007h2.693l6.78 8.608V8.007Zm9.288 6.982c0-4.069 3.125-7.214 7.272-7.214 3.361 0 6.054 2.182 6.722 4.914h-2.476c-.59-1.592-2.28-2.693-4.246-2.693-2.909 0-4.953 2.182-4.953 4.993 0 2.81 2.044 4.992 4.953 4.992 1.966 0 3.656-1.1 4.246-2.693h2.476c-.668 2.732-3.36 4.914-6.722 4.914-4.147 0-7.272-3.145-7.272-7.213Zm25.358 2.063c0 2.85-2.241 5.11-5.15 5.11-2.909 0-5.15-2.26-5.15-5.11 0-2.85 2.241-5.11 5.15-5.11 2.909 0 5.15 2.26 5.15 5.11Zm-8.118 0c0 1.75 1.219 3.106 2.968 3.106 1.73 0 2.948-1.356 2.948-3.106 0-1.749-1.218-3.105-2.948-3.105-1.75 0-2.968 1.356-2.968 3.105Zm12.16-4.913h-2.163v9.827h2.163v-4.835c0-2.103 1.1-3.223 2.535-3.223 1.258 0 2.044.943 2.044 2.496v5.562h2.162V16.05c0-2.496-1.474-4.108-3.754-4.108-1.278 0-2.398.55-2.987 1.533V12.14Zm9.213 0h2.162v1.336c.589-.982 1.71-1.533 2.987-1.533 2.28 0 3.754 1.612 3.754 4.108v5.916h-2.162v-5.562c0-1.553-.786-2.496-2.044-2.496-1.435 0-2.535 1.12-2.535 3.223v4.835h-2.162V12.14Zm15.719 10.024c2.496 0 4.265-1.435 4.815-3.283h-2.26c-.452.944-1.396 1.376-2.477 1.376-1.749 0-2.889-1.179-2.968-2.673h7.823c.197-3.341-1.906-5.64-4.914-5.64-3.026 0-5.051 2.2-5.051 5.11 0 2.948 2.103 5.11 5.032 5.11Zm-2.811-6.113c.295-1.513 1.415-2.3 2.771-2.3 1.199 0 2.32.708 2.654 2.3h-5.425Zm19.104 2.32c-.531 2.181-2.398 3.793-4.992 3.793-2.988 0-5.15-2.28-5.15-5.11 0-2.83 2.162-5.11 5.15-5.11 2.594 0 4.461 1.61 4.992 3.793h-2.28c-.393-1.062-1.356-1.828-2.712-1.828-1.75 0-2.949 1.317-2.949 3.144 0 1.828 1.199 3.145 2.949 3.145 1.356 0 2.319-.766 2.712-1.828h2.28Zm5.899 3.694c.668 0 1.179-.078 1.612-.216v-1.926a3.493 3.493 0 0 1-1.16.197c-1.12 0-1.651-.452-1.651-1.671v-4.383h2.811v-1.926h-2.811V9.407h-2.162v2.732h-2.044v1.926h2.044v4.737c0 2.22 1.474 3.262 3.361 3.262Z" fill="#FFF"/>
</svg><svg fill="none" viewBox="0 0 16 16" id="modal-web" xmlns="http://www.w3.org/2000/svg">
    <path fill-rule="evenodd" clip-rule="evenodd" d="M9.982 8.75C9.849 11.433 9.012 13.5 8 13.5s-1.849-2.067-1.982-4.75h3.964Zm1.501 0c-.061 1.366-.29 2.637-.66 3.652a7.32 7.32 0 0 1-.164.413 5.504 5.504 0 0 0 2.79-4.065h-1.966Zm1.966-1.5h-1.966c-.061-1.365-.29-2.637-.66-3.652a7.326 7.326 0 0 0-.164-.413 5.504 5.504 0 0 1 2.79 4.065Zm-3.467 0H6.018C6.151 4.568 6.988 2.5 8 2.5s1.849 2.067 1.982 4.75Zm-5.465 0c.061-1.365.29-2.637.66-3.652.05-.139.104-.277.163-.413A5.504 5.504 0 0 0 2.55 7.25h1.967ZM2.55 8.75a5.504 5.504 0 0 0 2.79 4.065 7.327 7.327 0 0 1-.165-.413c-.369-1.015-.598-2.286-.66-3.652H2.552ZM15 8A7 7 0 1 1 1 8a7 7 0 0 1 14 0Z" fill="#E5E5EA"/>
</svg><svg fill="none" viewBox="0 0 24 24" id="navbar" xmlns="http://www.w3.org/2000/svg">
    <path d="M5.5 7.7a.9.9 0 0 0 0 1.8h13a.9.9 0 0 0 0-1.8h-13zm-.9 7.7a.9.9 0 0 1 .9-.9h13a.9.9 0 0 1 0 1.8h-13a.9.9 0 0 1-.9-.9z" fill="#E5E5EA"/>
</svg><svg fill="none" style="color:var(--foreground_secondary)" viewBox="0 0 24 24" id="search-black" xmlns="http://www.w3.org/2000/svg">
    <path d="M10.75 3.5a7.25 7.25 0 0 1 5.785 11.62l4.172 4.173a1 1 0 0 1-1.414 1.414l-4.173-4.172A7.25 7.25 0 1 1 10.75 3.5zm0 2a5.25 5.25 0 1 0 0 10.5 5.25 5.25 0 0 0 0-10.5z" fill="#7D7D85"/>
</svg><svg fill="none" viewBox="0 0 24 24" id="search-white" xmlns="http://www.w3.org/2000/svg">
    <path d="M10.75 3.5a7.25 7.25 0 0 1 5.785 11.62l4.172 4.173a1 1 0 0 1-1.414 1.414l-4.173-4.172A7.25 7.25 0 1 1 10.75 3.5zm0 2a5.25 5.25 0 1 0 0 10.5 5.25 5.25 0 0 0 0-10.5z" fill="#E5E5EA"/>
</svg><svg fill="none" viewBox="0 0 28 28" id="sidebar-arrow" xmlns="http://www.w3.org/2000/svg">
    <path d="m14 15.336 5.793-4.793a1 1 0 0 1 1.414 1.414l-6.5 5.5a1 1 0 0 1-1.414 0l-6.5-5.5a1 1 0 1 1 1.414-1.414L14 15.336z" fill="#606066"/>
</svg><svg fill="none" viewBox="0 0 24 24" id="sidebar-close" xmlns="http://www.w3.org/2000/svg">
    <path fill-rule="evenodd" clip-rule="evenodd" d="M4.363 4.364a.9.9 0 0 1 1.273 0L12 10.727l6.363-6.363a.9.9 0 0 1 1.273 1.272L13.272 12l6.364 6.364a.9.9 0 1 1-1.273 1.273L12 13.273l-6.364 6.364a.9.9 0 1 1-1.273-1.273L10.727 12 4.363 5.636a.9.9 0 0 1 0-1.272z" fill="#E5E5EA"/>
</svg><svg fill="none" viewBox="0 0 28 28" id="sidebar-faq" xmlns="http://www.w3.org/2000/svg">
    <path fill-rule="evenodd" clip-rule="evenodd" d="M14 4.5A9.5 9.5 0 0 0 4.5 14a9.5 9.5 0 0 0 9.5 9.5 9.5 9.5 0 0 0 9.5-9.5A9.5 9.5 0 0 0 14 4.5zM2.5 14C2.5 7.648 7.648 2.5 14 2.5S25.5 7.648 25.5 14 20.352 25.5 14 25.5 2.5 20.352 2.5 14z" fill="#E5E5EA"/>
    <path fill-rule="evenodd" clip-rule="evenodd" d="M10.666 11.472a3.333 3.333 0 1 1 6.667 0c0 1.459-.955 2.226-1.595 2.657v.001c-.267.179-.448.331-.567.49a.855.855 0 0 0-.171.547v.292a1 1 0 1 1-2 0v-.292c0-1.479.966-2.256 1.62-2.696.26-.175.435-.323.55-.476a.817.817 0 0 0 .163-.523 1.333 1.333 0 1 0-2.667 0 1 1 0 1 1-2 0z" fill="#E5E5EA"/>
    <path d="M15.15 19.15a1.15 1.15 0 1 1-2.3 0 1.15 1.15 0 0 1 2.3 0z" fill="#E5E5EA"/>
</svg><svg fill="none" viewBox="0 0 28 28" id="sidebar-lg" xmlns="http://www.w3.org/2000/svg">
    <path fill-rule="evenodd" clip-rule="evenodd" d="M13 3.5a1 1 0 0 1 1-1c6.365 0 11.5 5.135 11.5 11.5S20.365 25.5 14 25.5a1 1 0 1 1 0-2c5.26 0 9.5-4.24 9.5-9.5S19.26 4.5 14 4.5a1 1 0 0 1-1-1z" fill="#E5E5EA"/>
    <path fill-rule="evenodd" clip-rule="evenodd" d="M14 4.5c-5.26 0-9.5 4.24-9.5 9.5s4.24 9.5 9.5 9.5a1 1 0 1 1 0 2C7.635 25.5 2.5 20.365 2.5 14S7.635 2.5 14 2.5a1 1 0 1 1 0 2z" fill="#E5E5EA"/>
    <path fill-rule="evenodd" clip-rule="evenodd" d="M11.005 4.223a3.466 3.466 0 0 1 5.991 0c3.561 5.945 3.562 13.61 0 19.555a3.466 3.466 0 0 1-5.991 0c-3.561-5.945-3.561-13.61 0-19.555zM15.28 5.25c-.6-1-1.962-1-2.56 0-3.183 5.313-3.183 12.188 0 17.5.598 1 1.96 1 2.56 0 3.182-5.312 3.182-12.187 0-17.5z" fill="#E5E5EA"/>
    <path fill-rule="evenodd" clip-rule="evenodd" d="M3.723 8.873a1 1 0 0 1 1.25-.66c5.516 1.703 12.539 1.703 18.052 0a1 1 0 1 1 .59 1.91c-5.898 1.822-13.332 1.822-19.232 0a1 1 0 0 1-.66-1.25zm.661 9.004c5.899-1.822 13.333-1.822 19.233 0a1 1 0 1 1-.59 1.91c-5.516-1.703-12.539-1.703-18.052 0a1 1 0 0 1-.59-1.91z" fill="#E5E5EA"/>
</svg><svg fill="none" viewBox="0 0 28 28" id="sidebar-theme" xmlns="http://www.w3.org/2000/svg">
    <g clip-path="url(#awa)">
        <g clip-path="url(#awb)">
            <path d="M22.22 15.32c.425-.2.878.219.76.672a9.273 9.273 0 0 1-2.419 4.238c-3.626 3.626-9.428 3.702-12.96.17-3.533-3.533-3.456-9.336.17-12.963A9.266 9.266 0 0 1 12.01 5.02c.453-.118.87.334.672.759-1.288 2.75-.865 6.043 1.316 8.224 2.18 2.183 5.474 2.606 8.224 1.318z" stroke="#E5E5EA" stroke-width="2" stroke-linecap="round" stroke-linejoin="round"/>
        </g>
    </g>
    <defs>
        <clipPath id="awa">
            <path fill="#fff" d="M0 0h28v28H0z"/>
        </clipPath>
        <clipPath id="awb">
            <path fill="#fff" transform="translate(2 2)" d="M0 0h24v24H0z"/>
        </clipPath>
    </defs>
</svg><svg fill="none" viewBox="0 0 28 28" id="slider-arrow" xmlns="http://www.w3.org/2000/svg">
    <path d="m17.086 14-5.793 5.793a1 1 0 0 0 1.414 1.414l6.5-6.5a1 1 0 0 0 0-1.414l-6.5-6.5a1 1 0 1 0-1.414 1.414L17.086 14z" fill="#E5E5EA"/>
</svg><svg fill="none" viewBox="0 0 24 24" id="soc-github" xmlns="http://www.w3.org/2000/svg">
    <path fill-rule="evenodd" clip-rule="evenodd" d="M4.737 5.292C6.73 3.08 9.584 2.1 12 2.1c2.42 0 5.255.982 7.336 3.064a.822.822 0 0 1 .022.022C20.905 6.844 22 9.16 22 12.1c0 2.19-.76 4.386-1.989 5.952-1.437 1.876-3.5 2.953-4.577 3.384A.9.9 0 0 1 14.2 20.6v-.702a2.04 2.04 0 0 0-.011-.197 5.506 5.506 0 0 0-.085-.603c-.099-.506-.292-1.137-.661-1.711a.9.9 0 0 1 .667-1.383c1.506-.15 2.79-1.531 2.79-3.304 0-.47-.213-1.07-.591-1.524a.9.9 0 0 1-.208-.529l-.09-1.697-1.508.755a.9.9 0 0 1-.551.083c-.605-.101-1.136-.188-1.752-.188-.616 0-1.147.087-1.752.188a.9.9 0 0 1-.468-.047l-1.89-.72-.091 1.726a.9.9 0 0 1-.208.53c-.388.465-.591.967-.591 1.523 0 1.813 1.311 3.23 2.745 3.301a.9.9 0 0 1 .712 1.386c-.369.574-.562 1.205-.661 1.71a5.527 5.527 0 0 0-.096.801v.702a.9.9 0 0 1-1.234.836c-1.078-.431-3.144-1.51-4.58-3.39l-.012-.014C2.871 16.492 2.1 14.408 2.1 12.2c0-2.936 1.092-5.25 2.637-6.908zM12 3.9c-1.982 0-4.325.818-5.931 2.602l-.011.012C4.805 7.856 3.9 9.74 3.9 12.2c0 1.789.626 3.502 1.62 4.86.764.997 1.773 1.735 2.637 2.23a7.566 7.566 0 0 1 .42-1.654C6.686 16.93 5.4 14.935 5.4 12.8c0-.93.315-1.744.816-2.43L6.3 8.772a1.58 1.58 0 0 1 .713-1.296 1.82 1.82 0 0 1 1.364-.259.9.9 0 0 1 .143.042l1.873.713A10.88 10.88 0 0 1 12.2 7.8c.66 0 1.237.08 1.759.164l1.539-.769a.909.909 0 0 1 .068-.03c1.154-.462 2.215.463 2.234 1.506l.084 1.603c.508.711.816 1.597.816 2.426 0 2.179-1.318 4.076-3.19 4.803a7.281 7.281 0 0 1 .433 1.686c.866-.495 1.877-1.236 2.642-2.236l.007-.01v.001c.97-1.234 1.608-3.036 1.608-4.844 0-2.453-.9-4.333-2.147-5.675C16.335 4.715 13.976 3.9 12 3.9z" fill="#E5E5EA"/>
</svg><svg fill="none" viewBox="0 0 24 24" id="soc-telegram" xmlns="http://www.w3.org/2000/svg">
    <path fill-rule="evenodd" clip-rule="evenodd" d="M18.334 4.03c1.24-.478 2.518.608 2.241 1.91l-2.64 12.447a1.805 1.805 0 0 1-2.838 1.077l-3.221-2.38-1.518 1.476c-.84.817-2.25.457-2.59-.667L6.53 13.818l-3.623-1.13c-1.278-.4-1.343-2.191-.088-2.675L18.334 4.03zM7.89 12.464c.101.101.18.228.224.374l1.264 4.163L10.408 16l-.688-.509a1.743 1.743 0 0 1-.135-2.697l2.456-2.217 1.46-1.318.604.668.603.668-1.46 1.318-2.405 2.17 1.47 1.086a.947.947 0 0 1 .034.025l3.82 2.822.001.001h.002l.003-.001v-.003l2.594-12.221-14.274 5.505 3.027.944c.145.045.27.123.37.224zm6.215-2.538.603.668A.9.9 0 1 0 13.5 9.26l.604.668z" fill="#E5E5EA"/>
</svg><svg fill="none" viewBox="0 0 24 24" id="soc-vk" xmlns="http://www.w3.org/2000/svg">
    <path fill-rule="evenodd" clip-rule="evenodd" d="M8 3.9A4.1 4.1 0 0 0 3.9 8v8A4.1 4.1 0 0 0 8 20.1h8a4.1 4.1 0 0 0 4.1-4.1V8A4.1 4.1 0 0 0 16 3.9H8zM2.1 8A5.9 5.9 0 0 1 8 2.1h8A5.9 5.9 0 0 1 21.9 8v8a5.9 5.9 0 0 1-5.9 5.9H8A5.9 5.9 0 0 1 2.1 16V8zm15.254.673a.9.9 0 0 1 .473 1.182l-.121.282a6.208 6.208 0 0 1-2.23 2.699 6.05 6.05 0 0 1 2.296 2.201.9.9 0 0 1-1.544.926 4.25 4.25 0 0 0-3.328-2.051V15.5a.9.9 0 0 1-.9.9 5.9 5.9 0 0 1-5.9-5.9v-1a.9.9 0 1 1 1.8 0v1a4.1 4.1 0 0 0 3.2 4v-5a.9.9 0 1 1 1.8 0v2.507a4.409 4.409 0 0 0 3.151-2.579l.122-.283a.9.9 0 0 1 1.181-.472z" fill="#E5E5EA"/>
</svg><svg fill="none" viewBox="0 0 24 24" id="soc-x-twitter" xmlns="http://www.w3.org/2000/svg">
    <path d="m2.431 3 7.425 9.928L2.384 21h1.682l6.542-7.068L15.893 21h5.723l-7.843-10.487L20.728 3h-1.682l-6.024 6.508L8.154 3H2.43zm2.473 1.238h2.63l11.608 15.523h-2.629L4.904 4.238z" fill="#E5E5EA"/>
</svg><svg fill="none" viewBox="0 0 16 16" id="ton-black" xmlns="http://www.w3.org/2000/svg">
    <path fill-rule="evenodd" clip-rule="evenodd" d="M4.702 2.15h6.596c.42 0 .787 0 1.08.027.296.027.639.09.936.304.4.288.66.732.715 1.222.041.365-.073.694-.194.966-.12.268-.3.587-.506.954l-4.675 8.311a.75.75 0 0 1-1.308 0L2.687 5.652l-.016-.03c-.206-.366-.386-.685-.506-.953-.122-.272-.235-.601-.194-.966a1.75 1.75 0 0 1 .715-1.222c.297-.215.64-.277.937-.304.292-.027.658-.027 1.079-.027zM3.553 3.705a.25.25 0 0 0-.09.154.956.956 0 0 0 .071.197c.089.197.233.456.46.86l3.256 5.788V3.65H4.736c-.465 0-.761 0-.976.02a.955.955 0 0 0-.207.035zM8.75 3.65v7.054l3.255-5.787c.228-.405.372-.664.46-.86a.96.96 0 0 0 .072-.198.25.25 0 0 0-.09-.154.956.956 0 0 0-.207-.034c-.215-.02-.511-.021-.976-.021H8.75z" fill="#7D7D85"/>
</svg><svg fill="none" viewBox="0 0 20 20" id="ton-white" xmlns="http://www.w3.org/2000/svg">
    <path fill-rule="evenodd" clip-rule="evenodd" d="M5.922 3h8.156c.533 0 .994 0 1.361.034.371.034.796.111 1.16.376.493.359.811.909.875 1.515.047.448-.097.854-.253 1.193-.154.335-.385.734-.651 1.196L10.78 17.35a.9.9 0 0 1-1.56 0L3.43 7.314c-.266-.462-.496-.861-.65-1.196-.156-.339-.301-.745-.254-1.193a2.15 2.15 0 0 1 .875-1.515c.365-.265.789-.342 1.16-.376C4.928 3 5.39 3 5.921 3zM4.449 4.874a.35.35 0 0 0-.131.228c.003.017.018.092.096.263.116.25.303.577.596 1.085l4.09 7.089V4.8H5.963c-.586 0-.963 0-1.237.026-.188.017-.26.042-.277.048zM10.9 4.8v8.739l4.09-7.09c.293-.507.48-.834.596-1.084.079-.17.094-.246.096-.263a.35.35 0 0 0-.131-.228 1.142 1.142 0 0 0-.276-.048C15 4.801 14.623 4.8 14.037 4.8H10.9z" fill="#E5E5EA"/>
</svg></svg>