<svg xmlns:xlink="http://www.w3.org/1999/xlink" width="28" height="28" viewBox="0 0 28 28" fill="none" xmlns="http://www.w3.org/2000/svg"><g clip-path="url(#clip0_29606_175680)" fill="none"><g clip-path="url(#clip1_29606_175680)" fill="none"><path d="M16.053 12.818a2.903 2.903 0 1 1-4.107 4.106 2.903 2.903 0 0 1 4.107-4.106zm6.37-6.968a2.903 2.903 0 1 1-4.105 4.105 2.903 2.903 0 0 1 4.106-4.105m-1.456 8.44c1.78 0 3.484.619 4.645 1.548M9.682 5.85a2.903 2.903 0 1 1-4.106 4.105A2.903 2.903 0 0 1 9.682 5.85m-7.296 9.988c1.162-.929 2.865-1.548 4.646-1.548m12.3 8.71c-1.353-1.046-3.297-1.742-5.332-1.742-2.035 0-3.979.696-5.332 1.742" stroke="#E5E5EA" stroke-width="2px" stroke-linecap="round" stroke-linejoin="round" fill="#8C8C93"></path></g></g><defs><clipPath id="clip0_29606_175680"><path fill="#fff" d="M0 0H28V28H0z"></path></clipPath><clipPath id="clip1_29606_175680"><path fill="#fff" d="M0 0H28V28H0z"></path></clipPath></defs></svg>