<svg xmlns:xlink="http://www.w3.org/1999/xlink" width="28" height="28" viewBox="0 0 28 28" fill="none" xmlns="http://www.w3.org/2000/svg"><path fill-rule="evenodd" clip-rule="evenodd" d="M8.75 2.5a1 1 0 0 1 1 1V7a1 1 0 0 1-2 0V3.5a1 1 0 0 1 1-1zm10.5 0a1 1 0 0 1 1 1V7a1 1 0 1 1-2 0V3.5a1 1 0 0 1 1-1z" fill="#8C8C93"></path><path fill-rule="evenodd" clip-rule="evenodd" d="M7 6.25a2.5 2.5 0 0 0-2.5 2.5V21A2.5 2.5 0 0 0 7 23.5h11.384a2.5 2.5 0 0 0 1.767-.732l2.617-2.617a2.5 2.5 0 0 0 .732-1.767V8.75a2.5 2.5 0 0 0-2.5-2.5H7zm-3.182-.682A4.5 4.5 0 0 1 7 4.25h14a4.5 4.5 0 0 1 4.5 4.5v9.634a4.5 4.5 0 0 1-1.318 3.182l-2.616 2.616a4.5 4.5 0 0 1-3.182 1.318H7A4.5 4.5 0 0 1 2.5 21V8.75a4.5 4.5 0 0 1 1.318-3.182z" fill="#8C8C93"></path><path fill-rule="evenodd" clip-rule="evenodd" d="M18.06 18.06a3.334 3.334 0 0 1 2.357-.977H24.5a1 1 0 1 1 0 2h-4.083a1.334 1.334 0 0 0-1.334 1.334V24.5a1 1 0 0 1-2 0v-4.083c0-.884.352-1.732.977-2.357z" fill="#8C8C93"></path></svg>