<svg xmlns:xlink="http://www.w3.org/1999/xlink" width="28" height="28" viewBox="0 0 28 28" fill="none" xmlns="http://www.w3.org/2000/svg"><path fill-rule="evenodd" clip-rule="evenodd" d="M14 4.5A9.5 9.5 0 0 0 4.5 14a9.5 9.5 0 0 0 9.5 9.5 9.5 9.5 0 0 0 9.5-9.5A9.5 9.5 0 0 0 14 4.5zM2.5 14C2.5 7.648 7.648 2.5 14 2.5S25.5 7.648 25.5 14 20.352 25.5 14 25.5 2.5 20.352 2.5 14z" fill="#E5E5EA"></path><path fill-rule="evenodd" clip-rule="evenodd" d="M10.666 11.472a3.333 3.333 0 1 1 6.667 0c0 1.459-.955 2.226-1.595 2.657v.001c-.267.179-.448.331-.567.49a.855.855 0 0 0-.171.547v.292a1 1 0 1 1-2 0v-.292c0-1.479.966-2.256 1.62-2.696.26-.175.435-.323.55-.476a.817.817 0 0 0 .163-.523 1.333 1.333 0 1 0-2.667 0 1 1 0 1 1-2 0z" fill="#E5E5EA"></path><path d="M15.15 19.15a1.15 1.15 0 1 1-2.3 0 1.15 1.15 0 0 1 2.3 0z" fill="#E5E5EA"></path></svg>