<svg xmlns:xlink="http://www.w3.org/1999/xlink" width="28" height="28" viewBox="0 0 28 28" fill="none" xmlns="http://www.w3.org/2000/svg"><g clip-path="url(#clip0_27505_33924)" fill="none"><g clip-path="url(#clip1_27505_33924)" fill="none"><path d="M22.22 15.32c.425-.2.878.219.76.672a9.273 9.273 0 0 1-2.419 4.238c-3.626 3.626-9.428 3.702-12.96.17-3.533-3.533-3.456-9.336.17-12.963A9.266 9.266 0 0 1 12.01 5.02c.453-.118.87.334.672.759-1.288 2.75-.865 6.043 1.316 8.224 2.18 2.183 5.474 2.606 8.224 1.318z" stroke="#E5E5EA" stroke-width="2px" stroke-linecap="round" stroke-linejoin="round" fill="none"></path></g></g><defs><clipPath id="clip0_27505_33924"><path fill="#fff" d="M0 0H28V28H0z"></path></clipPath><clipPath id="clip1_27505_33924"><path fill="#fff" transform="translate(2 2)" d="M0 0H24V24H0z"></path></clipPath></defs></svg>