<svg xmlns:xlink="http://www.w3.org/1999/xlink" width="28" height="28" viewBox="0 0 28 28" fill="none" xmlns="http://www.w3.org/2000/svg"><path fill-rule="evenodd" clip-rule="evenodd" d="M13 3.5a1 1 0 0 1 1-1c6.365 0 11.5 5.135 11.5 11.5S20.365 25.5 14 25.5a1 1 0 1 1 0-2c5.26 0 9.5-4.24 9.5-9.5S19.26 4.5 14 4.5a1 1 0 0 1-1-1z" fill="#E5E5EA"></path><path fill-rule="evenodd" clip-rule="evenodd" d="M14 4.5c-5.26 0-9.5 4.24-9.5 9.5s4.24 9.5 9.5 9.5a1 1 0 1 1 0 2C7.635 25.5 2.5 20.365 2.5 14S7.635 2.5 14 2.5a1 1 0 1 1 0 2z" fill="#E5E5EA"></path><path fill-rule="evenodd" clip-rule="evenodd" d="M11.005 4.223a3.466 3.466 0 0 1 5.991 0c3.561 5.945 3.562 13.61 0 19.555a3.466 3.466 0 0 1-5.991 0c-3.561-5.945-3.561-13.61 0-19.555zM15.28 5.25c-.6-1-1.962-1-2.56 0-3.183 5.313-3.183 12.188 0 17.5.598 1 1.96 1 2.56 0 3.182-5.312 3.182-12.187 0-17.5z" fill="#E5E5EA"></path><path fill-rule="evenodd" clip-rule="evenodd" d="M3.723 8.873a1 1 0 0 1 1.25-.66c5.516 1.703 12.539 1.703 18.052 0a1 1 0 1 1 .59 1.91c-5.898 1.822-13.332 1.822-19.232 0a1 1 0 0 1-.66-1.25zm.661 9.004c5.899-1.822 13.333-1.822 19.233 0a1 1 0 1 1-.59 1.91c-5.516-1.703-12.539-1.703-18.052 0a1 1 0 0 1-.59-1.91z" fill="#E5E5EA"></path></svg>