<svg xmlns:xlink="http://www.w3.org/1999/xlink" width="24" height="24" viewBox="0 0 24 24" fill="none" xmlns="http://www.w3.org/2000/svg"><path fill-rule="evenodd" clip-rule="evenodd" d="M4.737 5.292C6.73 3.08 9.584 2.1 12 2.1c2.42 0 5.255.982 7.336 3.064a.822.822 0 0 1 .022.022C20.905 6.844 22 9.16 22 12.1c0 2.19-.76 4.386-1.989 5.952-1.437 1.876-3.5 2.953-4.577 3.384A.9.9 0 0 1 14.2 20.6v-.702a2.04 2.04 0 0 0-.011-.197 5.506 5.506 0 0 0-.085-.603c-.099-.506-.292-1.137-.661-1.711a.9.9 0 0 1 .667-1.383c1.506-.15 2.79-1.531 2.79-3.304 0-.47-.213-1.07-.591-1.524a.9.9 0 0 1-.208-.529l-.09-1.697-1.508.755a.9.9 0 0 1-.551.083c-.605-.101-1.136-.188-1.752-.188-.616 0-1.147.087-1.752.188a.9.9 0 0 1-.468-.047l-1.89-.72-.091 1.726a.9.9 0 0 1-.208.53c-.388.465-.591.967-.591 1.523 0 1.813 1.311 3.23 2.745 3.301a.9.9 0 0 1 .712 1.386c-.369.574-.562 1.205-.661 1.71a5.527 5.527 0 0 0-.096.801v.702a.9.9 0 0 1-1.234.836c-1.078-.431-3.144-1.51-4.58-3.39l-.012-.014C2.871 16.492 2.1 14.408 2.1 12.2c0-2.936 1.092-5.25 2.637-6.908zM12 3.9c-1.982 0-4.325.818-5.931 2.602l-.011.012C4.805 7.856 3.9 9.74 3.9 12.2c0 1.789.626 3.502 1.62 4.86.764.997 1.773 1.735 2.637 2.23a7.566 7.566 0 0 1 .42-1.654C6.686 16.93 5.4 14.935 5.4 12.8c0-.93.315-1.744.816-2.43L6.3 8.772c.01-.568.308-1.026.713-1.296a1.82 1.82 0 0 1 1.364-.259.9.9 0 0 1 .143.042l1.873.713A10.88 10.88 0 0 1 12.2 7.8c.66 0 1.237.08 1.759.164l1.539-.769a.909.909 0 0 1 .068-.03c1.154-.462 2.215.463 2.234 1.506l.084 1.603c.508.711.816 1.597.816 2.426 0 2.179-1.318 4.076-3.19 4.803a7.281 7.281 0 0 1 .433 1.686c.866-.495 1.877-1.236 2.642-2.236l.007-.01v.001c.97-1.234 1.608-3.036 1.608-4.844 0-2.453-.9-4.333-2.147-5.675C16.335 4.715 13.976 3.9 12 3.9z" fill="#E5E5EA"></path></svg>