<svg xmlns:xlink="http://www.w3.org/1999/xlink" width="24" height="24" viewBox="0 0 24 24" fill="none" xmlns="http://www.w3.org/2000/svg"><path fill-rule="evenodd" clip-rule="evenodd" d="M8 3.9A4.1 4.1 0 0 0 3.9 8v8A4.1 4.1 0 0 0 8 20.1h8a4.1 4.1 0 0 0 4.1-4.1V8A4.1 4.1 0 0 0 16 3.9H8zM2.1 8A5.9 5.9 0 0 1 8 2.1h8A5.9 5.9 0 0 1 21.9 8v8a5.9 5.9 0 0 1-5.9 5.9H8A5.9 5.9 0 0 1 2.1 16V8zm15.254.673a.9.9 0 0 1 .473 1.182l-.121.282a6.208 6.208 0 0 1-2.23 2.699 6.05 6.05 0 0 1 2.296 2.201.9.9 0 0 1-1.544.926 4.25 4.25 0 0 0-3.328-2.051V15.5a.9.9 0 0 1-.9.9 5.9 5.9 0 0 1-5.9-5.9v-1a.9.9 0 1 1 1.8 0v1a4.1 4.1 0 0 0 3.2 4v-5a.9.9 0 1 1 1.8 0v2.507a4.409 4.409 0 0 0 3.151-2.579l.122-.283a.9.9 0 0 1 1.181-.472z" fill="#E5E5EA"></path></svg>